if (_typeface_js && _typeface_js.loadFace) _typeface_js.loadFace({"glyphs":{"¦":{"x_min":111.234375,"x_max":270.609375,"ha":375,"o":"m 270 1174 l 259 560 l 116 560 l 122 1174 l 270 1174 m 255 389 l 245 -172 l 111 -179 l 115 389 l 255 389 "},"Ő":{"x_min":55.609375,"x_max":1081.765625,"ha":1137,"o":"m 1081 479 q 1063 340 1081 406 q 1011 215 1045 273 q 931 108 978 156 q 827 26 884 60 q 704 -27 769 -8 q 568 -46 638 -46 q 431 -27 497 -46 q 309 26 366 -8 q 205 108 252 60 q 125 215 158 156 q 73 340 92 273 q 55 479 55 406 q 73 619 55 552 q 125 744 92 686 q 205 850 158 803 q 309 932 252 898 q 432 985 366 967 q 568 1004 497 1004 q 704 985 638 1004 q 827 932 769 967 q 931 850 884 898 q 1011 744 978 803 q 1063 619 1045 686 q 1081 479 1081 552 m 947 479 q 933 582 947 533 q 895 676 920 632 q 836 755 870 719 q 759 816 801 790 q 669 855 717 841 q 568 869 620 869 q 421 838 489 869 q 301 754 352 807 q 220 631 249 701 q 190 479 190 560 q 220 327 190 398 q 301 203 249 256 q 421 119 352 150 q 568 88 489 88 q 669 102 620 88 q 759 142 717 116 q 836 203 801 167 q 895 282 870 238 q 933 375 920 325 q 947 479 947 425 m 1038 1312 l 761 1053 l 675 1102 l 877 1398 l 1038 1312 m 739 1328 l 498 1053 l 412 1102 l 589 1414 l 739 1328 "},"Ž":{"x_min":50.1875,"x_max":797.59375,"ha":848,"o":"m 797 975 l 794 858 l 225 122 l 786 127 l 780 -15 l 55 -18 l 50 109 l 613 848 l 73 819 l 65 965 l 797 975 m 669 1206 l 436 1008 l 227 1235 l 321 1311 l 450 1160 l 587 1283 l 669 1206 "},"Á":{"x_min":-2.71875,"x_max":1034.96875,"ha":1068,"o":"m 874 -38 q 834 98 855 30 q 790 236 813 166 l 244 212 q 196 82 219 147 q 151 -47 172 18 l -2 -26 q 209 478 92 229 q 457 969 325 726 l 647 966 q 859 486 763 731 q 1034 -15 956 242 l 874 -38 m 537 857 q 408 595 469 727 q 291 330 347 464 l 750 349 q 651 605 704 480 q 537 857 598 731 m 761 1239 l 590 1033 l 504 1082 l 624 1314 l 761 1239 "},"ĥ":{"x_min":96.984375,"x_max":836.25,"ha":913,"o":"m 252 1016 l 248 604 q 328 668 286 644 q 406 704 370 691 q 490 722 448 717 q 628 695 566 722 q 735 617 691 668 q 806 493 780 566 q 836 328 832 420 q 835 230 836 280 q 830 132 834 180 q 820 40 826 84 q 803 -37 813 -2 l 648 -26 q 676 100 668 38 q 688 210 685 162 q 690 319 691 267 q 665 442 687 392 q 612 525 643 493 q 542 572 580 558 q 467 587 504 587 q 389 564 429 583 q 317 514 356 548 q 245 417 278 480 l 241 -31 l 108 -34 l 96 1011 l 252 1016 m 736 861 l 661 775 l 507 910 l 382 768 l 288 828 l 500 1057 l 736 861 "},"Î":{"x_min":-31,"x_max":417.984375,"ha":400,"o":"m 276 23 l 140 23 l 116 966 l 267 961 l 276 23 m 417 1109 l 342 1023 l 188 1158 l 63 1016 l -31 1076 l 181 1305 l 417 1109 "},"e":{"x_min":51.546875,"x_max":786.0625,"ha":823,"o":"m 423 62 q 495 73 459 62 q 560 106 530 84 q 612 159 590 127 q 644 233 634 191 l 775 206 q 721 94 756 145 q 640 8 687 44 q 539 -46 594 -27 q 423 -66 484 -66 q 265 -39 334 -66 q 148 37 196 -12 q 76 156 101 86 q 51 312 51 226 q 80 471 51 397 q 159 598 109 544 q 277 684 209 653 q 423 715 345 715 q 556 688 494 715 q 667 612 619 660 q 746 497 715 563 q 786 355 777 432 l 198 267 q 222 181 203 219 q 270 116 241 143 q 339 76 300 90 q 423 62 378 62 m 611 442 l 607 455 q 536 560 581 522 q 423 598 491 598 q 361 589 395 598 q 295 555 327 579 q 238 492 263 531 q 202 393 212 452 l 611 442 "},"»":{"x_min":51.546875,"x_max":844.390625,"ha":889,"o":"m 844 348 l 476 42 l 384 149 l 653 355 l 419 552 l 505 653 l 844 348 m 511 348 l 143 42 l 51 149 l 319 355 l 86 552 l 172 653 l 511 348 "},"ļ":{"x_min":94.265625,"x_max":384.546875,"ha":390,"o":"m 366 -33 q 281 -16 318 -32 q 216 23 244 -1 q 168 80 188 48 q 134 144 148 111 q 94 319 102 221 l 112 1179 l 254 1179 q 247 957 250 1058 q 242 774 244 857 q 239 627 240 692 q 236 512 237 562 q 231 328 233 396 q 250 216 233 265 q 268 174 257 195 q 295 138 279 154 q 333 112 311 122 q 384 101 355 102 l 366 -33 m 265 -168 q 255 -229 264 -198 q 231 -288 247 -256 q 185 -348 215 -320 l 123 -326 q 139 -301 132 -316 q 153 -271 146 -289 q 164 -229 159 -252 q 137 -203 147 -219 q 127 -168 127 -187 q 132 -140 127 -153 q 147 -118 137 -128 q 169 -103 156 -109 q 196 -98 182 -98 q 245 -118 225 -98 q 265 -168 265 -138 "},"Ĕ":{"x_min":119.375,"x_max":855.921875,"ha":916,"o":"m 662 365 l 259 345 l 262 133 l 848 166 l 851 33 l 134 -5 l 119 961 l 855 972 l 851 843 l 252 833 l 257 479 l 659 495 l 662 365 m 685 1295 q 676 1212 686 1248 q 651 1149 667 1176 q 615 1103 635 1122 q 574 1072 595 1084 q 461 1038 524 1043 q 345 1065 397 1039 q 302 1094 323 1076 q 265 1138 281 1112 q 238 1200 248 1164 q 227 1283 227 1236 l 347 1291 q 352 1241 347 1262 q 365 1205 357 1220 q 383 1180 373 1190 q 403 1164 393 1170 q 457 1150 427 1149 q 509 1172 487 1154 q 528 1190 519 1179 q 543 1217 536 1201 q 551 1254 549 1233 q 551 1301 554 1274 l 685 1295 "},"ò":{"x_min":52.90625,"x_max":779.28125,"ha":831,"o":"m 779 328 q 750 170 779 243 q 672 44 722 98 q 556 -38 623 -8 q 415 -69 490 -69 q 274 -40 339 -69 q 159 40 208 -12 q 81 166 109 92 q 52 328 52 239 q 81 492 52 419 q 159 618 109 566 q 274 699 208 670 q 415 727 339 727 q 556 697 490 727 q 672 614 623 667 q 750 487 722 560 q 779 328 779 415 m 636 330 q 623 428 636 379 q 585 518 611 478 q 516 583 558 558 q 415 608 474 608 q 316 583 357 608 q 248 518 274 558 q 209 428 221 478 q 197 330 197 379 q 210 231 197 281 q 250 142 223 182 q 319 78 278 103 q 415 52 360 52 q 514 78 472 52 q 583 142 556 103 q 623 231 610 182 q 636 330 636 281 m 444 830 l 358 781 l 175 963 l 302 1074 l 444 830 "},"ţ":{"x_min":15.59375,"x_max":651.765625,"ha":659,"o":"m 393 976 l 388 673 l 651 682 l 641 555 l 387 548 l 381 -42 l 238 -46 l 250 544 l 15 539 l 18 663 l 252 670 l 258 967 l 393 976 m 369 -168 q 359 -229 368 -198 q 335 -288 351 -256 q 289 -348 319 -320 l 227 -326 q 243 -301 236 -316 q 257 -271 250 -289 q 268 -229 263 -252 q 241 -203 251 -219 q 231 -168 231 -187 q 236 -140 231 -153 q 251 -118 241 -128 q 273 -103 260 -109 q 300 -98 286 -98 q 349 -118 329 -98 q 369 -168 369 -138 "},"^":{"x_min":69.171875,"x_max":572.421875,"ha":648,"o":"m 572 316 l 454 288 l 343 683 l 183 304 l 69 339 l 276 784 l 440 777 l 572 316 "},"«":{"x_min":44.765625,"x_max":837.609375,"ha":891,"o":"m 837 149 l 746 42 l 377 348 l 716 653 l 804 552 l 569 355 l 837 149 m 503 149 l 412 42 l 44 348 l 383 653 l 470 552 l 236 355 l 503 149 "},"í":{"x_min":99.703125,"x_max":403.046875,"ha":349,"o":"m 251 665 q 247 487 249 568 q 244 339 246 406 q 242 220 243 273 q 240 128 241 168 q 238 -18 238 35 l 99 -18 q 103 155 101 54 q 106 368 104 242 q 111 659 109 493 l 251 665 m 403 938 l 232 732 l 146 781 l 266 1013 l 403 938 "},"ˆ":{"x_min":0,"x_max":448.984375,"ha":449,"o":"m 448 849 l 373 763 l 219 898 l 94 756 l 0 816 l 212 1045 l 448 849 "},"ū":{"x_min":86.140625,"x_max":775.203125,"ha":868,"o":"m 620 -48 l 617 145 q 567 70 595 105 q 505 7 538 34 q 434 -34 472 -18 q 355 -48 396 -50 q 250 -25 294 -46 q 177 30 206 -4 q 129 110 147 65 q 101 207 111 156 q 89 311 92 258 q 86 415 86 364 q 92 557 86 485 q 109 705 98 630 l 248 701 q 234 550 238 617 q 230 432 230 482 q 231 373 230 408 q 236 298 231 338 q 250 220 240 259 q 277 151 259 181 q 320 105 294 121 q 385 94 347 88 q 494 166 438 101 q 613 364 551 230 q 610 536 611 472 q 607 634 608 600 q 605 690 606 674 l 751 706 q 758 496 755 590 q 764 327 761 402 q 768 195 767 252 q 771 97 770 139 q 775 -46 774 0 l 620 -48 m 702 934 l 698 792 l 165 789 l 165 926 l 702 934 "},"Ẅ":{"x_min":42.734375,"x_max":1230.96875,"ha":1276,"o":"m 1230 988 l 1047 -19 l 887 -15 l 644 758 l 370 -23 l 230 -23 l 42 965 l 185 984 l 308 206 l 562 922 l 730 902 l 954 165 l 1090 1016 l 1230 988 m 885 1072 q 878 1040 885 1055 q 862 1015 872 1025 q 836 997 851 1004 q 805 991 822 991 q 774 997 789 991 q 749 1015 760 1004 q 732 1040 738 1025 q 725 1072 725 1055 q 732 1103 725 1088 q 749 1128 738 1117 q 774 1145 760 1139 q 805 1151 789 1151 q 836 1145 822 1151 q 862 1128 851 1139 q 878 1103 872 1117 q 885 1072 885 1088 m 552 1072 q 545 1040 552 1055 q 528 1015 539 1025 q 502 997 517 1004 q 471 991 487 991 q 440 997 455 991 q 415 1015 425 1004 q 398 1040 404 1025 q 392 1072 392 1055 q 398 1103 392 1088 q 415 1128 404 1117 q 440 1145 425 1139 q 471 1151 455 1151 q 502 1145 487 1151 q 528 1128 517 1139 q 545 1103 539 1117 q 552 1072 552 1088 "},"ȷ":{"x_min":-118.015625,"x_max":247.546875,"ha":349,"o":"m 247 662 q 245 473 246 558 q 243 319 244 387 q 242 197 243 250 q 242 105 242 144 q 241 -35 241 12 q 235 -112 240 -71 q 216 -194 230 -153 q 177 -271 202 -234 q 112 -337 152 -309 q 15 -382 72 -366 q -118 -398 -40 -399 l -109 -245 q -41 -242 -71 -249 q 9 -221 -12 -235 q 47 -187 31 -206 q 73 -147 63 -168 q 101 -33 96 -98 q 104 141 103 39 q 106 360 105 229 q 107 668 107 491 l 247 662 "},"ņ":{"x_min":92.921875,"x_max":763.671875,"ha":859,"o":"m 118 -50 q 110 161 113 66 q 104 330 107 255 q 100 461 101 404 q 96 560 98 518 q 92 704 94 657 l 247 706 l 250 511 q 301 584 272 550 q 362 644 329 618 q 433 687 396 671 q 512 706 471 704 q 602 697 564 710 q 668 663 640 685 q 712 612 695 642 q 740 551 730 583 q 755 489 750 520 q 760 432 759 457 q 763 197 765 315 q 758 -47 760 79 l 619 -42 q 629 175 624 66 q 628 396 633 284 q 626 427 628 408 q 618 468 624 446 q 602 511 613 490 q 576 549 592 533 q 536 573 560 564 q 482 576 513 581 q 373 498 428 568 q 254 293 318 427 q 258 119 257 183 q 261 21 260 54 q 263 -31 263 -18 l 118 -50 m 499 -128 q 489 -189 498 -158 q 465 -248 481 -216 q 419 -308 449 -280 l 357 -286 q 373 -261 366 -276 q 387 -231 380 -249 q 398 -189 393 -212 q 371 -163 381 -179 q 361 -128 361 -147 q 366 -100 361 -113 q 381 -78 371 -88 q 403 -63 390 -69 q 430 -58 416 -58 q 479 -78 459 -58 q 499 -128 499 -98 "},"µ":{"x_min":99.703125,"x_max":788.765625,"ha":850,"o":"m 634 -48 l 632 145 q 581 70 609 105 q 519 7 552 34 q 448 -34 486 -18 q 369 -48 411 -50 q 306 -40 335 -47 q 255 -21 278 -33 q 262 -220 259 -142 q 266 -344 265 -299 q 269 -425 268 -397 l 115 -427 q 110 -170 112 -282 q 106 26 107 -58 q 103 170 104 110 q 101 271 102 230 q 100 338 101 312 q 100 378 100 363 q 99 401 99 393 q 99 415 99 408 q 105 557 99 485 q 123 705 111 630 l 262 701 q 248 550 252 617 q 244 432 244 482 q 244 373 244 408 q 250 298 245 338 q 264 220 255 259 q 290 151 273 181 q 335 105 308 121 q 400 94 361 88 q 508 166 451 101 q 628 364 565 230 q 623 536 626 472 q 621 634 621 600 q 619 690 619 674 l 765 706 q 772 496 769 590 q 777 327 775 402 q 782 195 780 252 q 785 97 784 139 q 788 -46 788 0 l 634 -48 "},"ỳ":{"x_min":-5.421875,"x_max":726.375,"ha":762,"o":"m 726 686 q 660 493 690 580 q 607 335 631 405 q 564 209 583 264 q 531 113 545 154 q 479 -35 498 16 q 447 -121 465 -75 q 403 -210 430 -166 q 342 -297 377 -255 q 261 -372 307 -339 q 155 -425 215 -404 q 21 -450 95 -446 l -5 -318 q 73 -315 36 -323 q 142 -291 110 -307 q 200 -250 173 -274 q 249 -200 227 -227 q 288 -146 271 -174 q 318 -95 305 -119 l 31 663 l 187 685 l 387 87 q 425 205 403 137 q 472 352 447 274 q 523 517 497 431 q 575 687 550 602 l 726 686 m 449 756 l 363 707 l 180 889 l 307 1000 l 449 756 "},"č":{"x_min":50.1875,"x_max":803.015625,"ha":842,"o":"m 803 508 l 690 440 l 689 444 q 646 506 671 478 q 590 553 621 533 q 523 582 558 572 q 448 592 487 592 q 344 571 393 592 q 260 514 296 550 q 202 428 223 477 q 181 323 181 379 q 202 219 181 268 q 260 134 223 170 q 344 76 296 97 q 448 55 393 55 q 518 65 484 55 q 582 91 552 74 q 638 133 613 109 q 680 189 663 158 l 683 193 l 801 126 l 800 122 q 735 42 773 78 q 652 -17 697 7 q 554 -56 606 -43 q 448 -70 502 -70 q 300 -40 372 -70 q 173 42 229 -10 q 83 166 117 94 q 50 323 50 238 q 64 423 50 374 q 103 516 78 472 q 165 598 128 560 q 245 662 201 635 q 341 704 289 689 q 448 719 392 719 q 561 705 507 719 q 659 664 614 691 q 741 598 705 637 q 801 511 777 560 l 803 508 m 663 971 l 430 773 l 221 1000 l 315 1076 l 444 925 l 581 1048 l 663 971 "},"’":{"x_min":79.359375,"x_max":257.046875,"ha":321,"o":"m 257 886 q 244 809 255 848 q 213 735 234 775 q 155 661 193 696 l 79 687 q 99 718 89 700 q 115 756 107 733 q 128 809 123 779 q 95 840 108 819 q 83 886 83 860 q 90 920 83 904 q 108 948 96 936 q 135 967 120 960 q 169 973 151 973 q 203 967 187 973 q 231 948 219 960 q 250 920 243 936 q 257 886 257 904 "},"-":{"x_min":88.84375,"x_max":629.390625,"ha":717,"o":"m 629 406 l 92 392 l 88 533 l 629 548 l 629 406 "},"Q":{"x_min":55.609375,"x_max":1081.765625,"ha":1137,"o":"m 969 -174 l 805 0 q 692 -44 752 -28 q 568 -59 632 -59 q 431 -41 497 -59 q 309 11 366 -22 q 205 94 252 46 q 125 200 158 142 q 73 326 92 259 q 55 465 55 393 q 73 604 55 537 q 125 730 92 672 q 205 836 158 788 q 309 918 252 884 q 432 971 366 952 q 568 990 497 990 q 704 971 638 990 q 827 918 769 952 q 931 836 884 884 q 1011 730 978 788 q 1063 604 1045 672 q 1081 465 1081 537 q 1069 353 1081 407 q 1035 248 1058 298 q 982 154 1013 198 q 910 75 950 111 l 1066 -88 l 969 -174 m 947 465 q 933 569 947 518 q 895 662 920 619 q 836 741 870 706 q 759 802 801 777 q 669 842 717 828 q 568 855 620 855 q 421 825 489 855 q 301 741 352 794 q 220 617 249 688 q 190 465 190 545 q 220 313 190 384 q 301 189 249 242 q 421 106 352 137 q 568 75 489 75 q 708 103 642 75 l 580 240 l 672 328 l 819 172 q 912 301 878 226 q 947 465 947 377 "},"M":{"x_min":42.734375,"x_max":1230.96875,"ha":1275,"o":"m 1230 -29 l 1090 -56 l 954 794 l 730 56 l 562 37 l 308 752 l 185 -25 l 42 -5 l 230 983 l 370 983 l 644 201 l 887 975 l 1047 979 l 1230 -29 "},"̦":{"x_min":99.703125,"x_max":241.453125,"ha":346,"o":"m 241 -168 q 231 -229 240 -198 q 207 -288 223 -256 q 161 -348 191 -320 l 99 -326 q 115 -301 108 -316 q 129 -271 122 -289 q 140 -229 135 -252 q 113 -203 123 -219 q 103 -168 103 -187 q 108 -140 103 -153 q 123 -118 113 -128 q 145 -103 132 -109 q 172 -98 158 -98 q 221 -118 201 -98 q 241 -168 241 -138 "},"œ":{"x_min":52.90625,"x_max":1384.9375,"ha":1422,"o":"m 415 727 q 507 715 463 727 q 591 680 552 703 q 663 624 630 657 q 719 551 695 592 q 777 619 744 588 q 849 671 810 649 q 931 704 887 692 q 1022 715 975 715 q 1155 688 1093 715 q 1266 612 1218 660 q 1345 497 1314 563 q 1384 355 1376 432 l 797 267 q 821 177 802 219 q 869 102 840 134 q 937 52 899 71 q 1022 34 976 34 q 1093 45 1058 34 q 1158 78 1128 56 q 1210 131 1188 99 q 1243 205 1233 163 l 1373 179 q 1320 67 1355 118 q 1239 -18 1285 16 q 1138 -74 1193 -54 q 1022 -94 1082 -94 q 879 -64 946 -94 q 759 23 812 -33 q 708 90 730 55 q 651 24 683 53 q 582 -25 619 -4 q 502 -57 545 -46 q 415 -69 460 -69 q 274 -40 339 -69 q 159 40 208 -12 q 81 166 109 92 q 52 328 52 239 q 81 492 52 419 q 159 618 109 566 q 274 699 208 670 q 415 727 339 727 m 641 328 q 629 429 641 379 q 590 519 617 479 q 519 583 562 558 q 415 608 476 608 q 312 583 355 608 q 242 519 269 558 q 203 429 215 479 q 190 328 190 379 q 204 229 190 278 q 246 140 218 179 q 316 76 274 101 q 415 51 358 51 q 516 76 474 51 q 587 140 559 101 q 628 229 615 179 q 641 328 641 278 m 1022 598 q 960 589 994 598 q 894 555 925 579 q 837 492 862 531 q 801 393 811 452 l 1209 442 l 1205 455 q 1134 560 1179 522 q 1022 598 1089 598 "},"ě":{"x_min":51.546875,"x_max":786.0625,"ha":823,"o":"m 423 62 q 495 73 459 62 q 560 106 530 84 q 612 159 590 127 q 644 233 634 191 l 775 206 q 721 94 756 145 q 640 8 687 44 q 539 -46 594 -27 q 423 -66 484 -66 q 265 -39 334 -66 q 148 37 196 -12 q 76 156 101 86 q 51 312 51 226 q 80 471 51 397 q 159 598 109 544 q 277 684 209 653 q 423 715 345 715 q 556 688 494 715 q 667 612 619 660 q 746 497 715 563 q 786 355 777 432 l 198 267 q 222 181 203 219 q 270 116 241 143 q 339 76 300 90 q 423 62 378 62 m 611 442 l 607 455 q 536 560 581 522 q 423 598 491 598 q 361 589 395 598 q 295 555 327 579 q 238 492 263 531 q 202 393 212 452 l 611 442 m 633 971 l 400 773 l 191 1000 l 285 1076 l 414 925 l 551 1048 l 633 971 "},"ũ":{"x_min":86.140625,"x_max":775.203125,"ha":868,"o":"m 620 -48 l 617 145 q 567 70 595 105 q 505 7 538 34 q 434 -34 472 -18 q 355 -48 396 -50 q 250 -25 294 -46 q 177 30 206 -4 q 129 110 147 65 q 101 207 111 156 q 89 311 92 258 q 86 415 86 364 q 92 557 86 485 q 109 705 98 630 l 248 701 q 234 550 238 617 q 230 432 230 482 q 231 373 230 408 q 236 298 231 338 q 250 220 240 259 q 277 151 259 181 q 320 105 294 121 q 385 94 347 88 q 494 166 438 101 q 613 364 551 230 q 610 536 611 472 q 607 634 608 600 q 605 690 606 674 l 751 706 q 758 496 755 590 q 764 327 761 402 q 768 195 767 252 q 771 97 770 139 q 775 -46 774 0 l 620 -48 m 706 1030 q 710 1000 708 1014 q 712 972 712 985 q 699 898 712 934 q 664 835 687 862 q 608 790 641 807 q 533 773 575 773 q 481 781 503 773 q 442 803 459 790 q 411 831 425 816 q 384 859 397 846 q 358 880 371 872 q 330 888 345 889 q 300 874 313 886 q 279 842 288 864 q 267 780 269 820 l 154 799 q 165 862 157 834 q 183 911 172 890 q 206 948 194 932 q 230 976 218 964 q 293 1013 259 1002 q 359 1015 331 1022 q 410 994 387 1009 q 449 961 432 980 q 480 926 465 942 q 510 899 495 909 q 541 892 524 889 q 568 907 556 896 q 587 933 578 916 q 595 978 595 949 q 594 1002 595 989 q 590 1027 593 1014 l 706 1030 "},"ŭ":{"x_min":86.140625,"x_max":775.203125,"ha":868,"o":"m 620 -48 l 617 145 q 567 70 595 105 q 505 7 538 34 q 434 -34 472 -18 q 355 -48 396 -50 q 250 -25 294 -46 q 177 30 206 -4 q 129 110 147 65 q 101 207 111 156 q 89 311 92 258 q 86 415 86 364 q 92 557 86 485 q 109 705 98 630 l 248 701 q 234 550 238 617 q 230 432 230 482 q 231 373 230 408 q 236 298 231 338 q 250 220 240 259 q 277 151 259 181 q 320 105 294 121 q 385 94 347 88 q 494 166 438 101 q 613 364 551 230 q 610 536 611 472 q 607 634 608 600 q 605 690 606 674 l 751 706 q 758 496 755 590 q 764 327 761 402 q 768 195 767 252 q 771 97 770 139 q 775 -46 774 0 l 620 -48 m 661 1025 q 652 942 662 978 q 627 879 643 906 q 591 833 611 852 q 550 802 571 814 q 437 768 500 773 q 321 795 373 769 q 278 824 299 806 q 241 868 257 842 q 214 930 224 894 q 203 1013 203 966 l 323 1021 q 328 971 323 992 q 341 935 333 950 q 359 910 349 920 q 379 894 369 900 q 433 880 403 879 q 485 902 463 884 q 504 920 495 909 q 519 947 512 931 q 527 984 525 963 q 527 1031 530 1004 l 661 1025 "},"{":{"x_min":37.296875,"x_max":512.734375,"ha":538,"o":"m 512 -185 q 426 -220 467 -210 q 349 -230 385 -230 q 244 -205 290 -230 q 168 -143 198 -181 q 123 -62 137 -106 q 113 21 109 -18 q 128 94 118 61 q 149 154 138 126 q 172 206 161 182 q 192 252 184 229 q 202 297 200 274 q 197 344 204 319 q 168 383 189 366 q 120 411 151 398 q 37 423 88 423 l 37 547 q 120 559 88 547 q 168 586 151 571 q 197 626 189 604 q 202 674 204 651 q 192 718 200 696 q 172 765 184 741 q 149 816 161 788 q 128 876 138 843 q 113 950 118 909 q 123 1033 109 988 q 168 1115 137 1077 q 244 1177 198 1152 q 349 1201 290 1201 q 426 1191 385 1201 q 512 1157 467 1180 l 465 1030 q 412 1059 436 1051 q 368 1066 387 1066 q 326 1059 345 1066 q 292 1037 306 1051 q 269 1003 278 1022 q 261 959 261 983 q 272 886 261 921 q 297 815 283 851 q 322 744 311 780 q 333 669 333 708 q 327 619 333 645 q 305 568 322 593 q 260 521 289 543 q 185 484 231 499 q 260 448 231 470 q 305 401 289 426 q 327 349 322 376 q 333 299 333 323 q 322 227 333 262 q 297 157 311 191 q 272 86 283 122 q 261 10 261 50 q 268 -30 261 -11 q 290 -64 276 -50 q 324 -87 305 -79 q 368 -95 344 -95 q 412 -88 387 -95 q 465 -59 436 -80 l 512 -185 "},"¼":{"x_min":54.265625,"x_max":817.9375,"ha":879,"o":"m 741 946 l 201 -12 l 103 9 l 623 966 l 741 946 m 556 234 l 680 240 l 686 459 l 784 461 l 779 244 l 817 245 l 817 147 l 777 144 l 773 -30 l 673 -30 l 677 140 l 455 130 l 432 198 l 545 454 l 647 437 l 556 234 m 282 931 l 276 446 l 170 445 l 181 825 l 113 771 l 54 844 l 190 944 l 282 931 "},"#":{"x_min":80.703125,"x_max":726.375,"ha":807,"o":"m 319 544 l 490 544 l 493 788 l 620 796 l 616 545 l 722 545 l 719 436 l 613 436 l 612 304 l 726 307 l 722 201 l 609 198 l 607 -19 l 486 -19 l 487 196 l 322 191 l 324 -27 l 197 -30 l 197 189 l 80 185 l 84 293 l 197 295 l 197 433 l 80 433 l 87 543 l 197 543 l 197 792 l 316 800 l 319 544 m 322 298 l 489 301 l 490 434 l 320 434 l 322 298 "},"Ĳ":{"x_min":116.65625,"x_max":1208.4375,"ha":1320,"o":"m 276 23 l 140 23 l 116 966 l 267 961 l 276 23 m 1208 349 q 1179 196 1208 265 q 1098 76 1150 126 q 975 -4 1046 25 q 822 -38 905 -33 q 654 -13 726 -44 q 533 75 582 17 q 458 214 484 134 q 430 389 432 295 l 573 405 q 580 297 571 343 q 606 218 589 251 q 645 163 623 185 q 691 128 667 141 q 819 96 747 96 q 911 117 872 101 q 979 157 951 132 q 1026 213 1007 181 q 1054 280 1044 244 q 1069 354 1065 316 q 1073 430 1073 392 q 1071 525 1073 470 q 1067 640 1070 580 q 1062 760 1065 701 q 1056 867 1059 820 q 1050 943 1053 914 q 1045 972 1047 972 l 1192 975 q 1195 942 1194 974 q 1199 858 1197 910 q 1202 740 1200 806 q 1205 604 1204 674 q 1207 468 1207 535 q 1208 349 1208 402 "},"Ê":{"x_min":119.375,"x_max":855.921875,"ha":916,"o":"m 662 365 l 259 345 l 262 133 l 848 166 l 851 33 l 134 -5 l 119 961 l 855 972 l 851 843 l 252 833 l 257 479 l 659 495 l 662 365 m 710 1109 l 635 1023 l 481 1158 l 356 1016 l 262 1076 l 474 1305 l 710 1109 "},")":{"x_min":2.71875,"x_max":478.140625,"ha":522,"o":"m 478 489 q 432 212 472 345 q 389 95 415 155 q 324 -22 362 35 q 235 -133 286 -80 q 115 -226 183 -185 l 38 -127 q 136 -41 94 -88 q 210 55 179 5 q 263 158 242 106 q 299 258 284 210 q 336 489 331 370 q 294 728 330 613 q 254 828 278 777 q 195 928 230 880 q 112 1020 160 977 q 2 1094 65 1062 l 71 1207 q 205 1112 147 1165 q 306 1001 263 1060 q 378 882 349 943 q 427 765 408 822 q 478 489 472 631 "},"Å":{"x_min":-2.71875,"x_max":1034.96875,"ha":1068,"o":"m 720 1058 q 706 986 720 1020 q 665 929 691 952 q 1034 -15 884 476 l 874 -38 q 834 98 855 30 q 790 236 813 166 l 244 212 q 196 82 219 147 q 151 -47 172 18 l -2 -26 q 196 450 87 215 q 427 916 304 686 q 377 979 396 942 q 359 1058 359 1015 q 373 1129 359 1096 q 412 1187 387 1162 q 469 1226 436 1211 q 540 1240 502 1240 q 610 1226 577 1240 q 668 1187 643 1211 q 706 1129 692 1162 q 720 1058 720 1096 m 537 857 q 408 595 469 727 q 291 330 347 464 l 750 349 q 651 605 704 480 q 537 857 598 731 m 619 1053 q 613 1085 619 1070 q 596 1110 607 1099 q 571 1127 585 1121 q 540 1133 556 1133 q 509 1127 523 1133 q 483 1110 494 1121 q 466 1085 472 1099 q 459 1053 459 1070 q 466 1023 459 1037 q 483 997 472 1008 q 509 980 494 986 q 540 973 523 973 q 571 980 556 973 q 596 997 585 986 q 613 1023 607 1008 q 619 1053 619 1037 "},"¸":{"x_min":0,"x_max":325.75,"ha":326,"o":"m 324 -278 q 302 -336 319 -312 q 263 -373 286 -359 q 213 -394 240 -387 q 160 -400 186 -400 q 77 -384 114 -400 q 0 -343 40 -368 l 38 -255 q 83 -285 61 -275 q 123 -301 105 -296 q 162 -308 143 -307 q 205 -290 189 -308 q 221 -250 221 -273 q 202 -205 221 -222 q 157 -179 183 -187 q 101 -168 130 -170 q 50 -169 71 -166 l 143 34 l 205 19 l 161 -104 q 222 -114 196 -106 q 266 -135 248 -123 q 296 -164 284 -148 q 314 -195 307 -179 q 324 -278 328 -232 "},"a":{"x_min":42.734375,"x_max":790.125,"ha":867,"o":"m 626 -42 l 636 52 q 473 -23 553 0 q 324 -47 394 -47 q 230 -34 276 -47 q 149 3 184 -22 q 93 70 114 29 q 71 165 71 110 q 88 263 71 220 q 132 340 104 307 q 200 397 161 373 q 283 436 238 421 q 376 458 327 451 q 473 465 425 465 q 556 461 518 465 q 625 453 595 458 q 603 519 616 486 q 570 578 590 552 q 521 621 550 604 q 451 637 492 637 q 391 629 425 637 q 316 601 357 621 q 227 545 276 581 q 124 454 179 510 l 42 554 q 167 653 107 615 q 279 714 227 692 q 377 744 332 736 q 458 752 422 752 q 569 731 520 752 q 655 673 618 710 q 717 586 692 636 q 759 479 743 536 q 783 360 775 421 q 790 237 790 298 q 782 97 790 172 q 759 -65 775 23 l 626 -42 m 645 204 q 647 271 647 238 q 644 340 648 304 q 574 356 611 350 q 501 362 537 362 q 382 348 440 362 q 284 307 325 334 q 222 240 242 280 q 213 151 201 201 q 250 94 223 110 q 316 78 278 78 q 401 91 356 78 q 492 123 447 104 q 577 164 537 143 q 645 204 617 186 "},"Ę":{"x_min":119.375,"x_max":887.796875,"ha":916,"o":"m 887 -219 q 844 -263 866 -245 q 802 -291 822 -280 q 762 -306 781 -302 q 725 -311 742 -311 q 666 -301 694 -311 q 616 -271 638 -290 q 581 -225 594 -252 q 568 -165 568 -198 q 572 -127 568 -148 q 584 -83 575 -107 q 610 -33 594 -59 q 649 22 626 -6 l 134 -5 l 119 961 l 855 972 l 851 843 l 252 833 l 257 479 l 659 495 l 662 365 l 259 345 l 262 133 l 848 166 l 851 33 q 786 6 813 21 q 740 -26 758 -8 q 710 -61 721 -43 q 693 -96 699 -80 q 687 -181 680 -137 q 698 -192 691 -187 q 712 -199 704 -196 q 731 -202 720 -202 q 773 -190 749 -202 q 829 -143 797 -177 l 887 -219 "},"=":{"x_min":91.5625,"x_max":632.109375,"ha":726,"o":"m 632 545 l 95 530 l 91 658 l 632 673 l 632 545 m 632 387 l 629 255 l 98 248 l 98 389 l 632 387 "},"˚":{"x_min":0,"x_max":360.8125,"ha":361,"o":"m 360 904 q 346 834 360 867 q 307 776 332 801 q 250 737 283 752 q 180 723 217 723 q 110 737 143 723 q 52 776 77 752 q 14 834 28 801 q 0 904 0 867 q 14 974 0 941 q 52 1032 28 1007 q 110 1072 77 1058 q 180 1086 143 1086 q 250 1072 217 1086 q 307 1032 283 1058 q 346 974 332 1007 q 360 904 360 941 m 259 900 q 253 931 259 916 q 236 956 247 945 q 211 973 225 967 q 180 979 197 979 q 149 973 164 979 q 123 956 134 967 q 106 931 112 945 q 99 900 99 916 q 106 868 99 883 q 123 843 112 853 q 149 825 134 832 q 180 819 164 819 q 211 825 197 819 q 236 843 225 832 q 253 868 247 853 q 259 900 259 883 "},"ú":{"x_min":86.140625,"x_max":775.203125,"ha":868,"o":"m 620 -48 l 617 145 q 567 70 595 105 q 505 7 538 34 q 434 -34 472 -18 q 355 -48 396 -50 q 250 -25 294 -46 q 177 30 206 -4 q 129 110 147 65 q 101 207 111 156 q 89 311 92 258 q 86 415 86 364 q 92 557 86 485 q 109 705 98 630 l 248 701 q 234 550 238 617 q 230 432 230 482 q 231 373 230 408 q 236 298 231 338 q 250 220 240 259 q 277 151 259 181 q 320 105 294 121 q 385 94 347 88 q 494 166 438 101 q 613 364 551 230 q 610 536 611 472 q 607 634 608 600 q 605 690 606 674 l 751 706 q 758 496 755 590 q 764 327 761 402 q 768 195 767 252 q 771 97 770 139 q 775 -46 774 0 l 620 -48 m 632 935 l 461 729 l 375 778 l 495 1010 l 632 935 "},"¯":{"x_min":0,"x_max":537.828125,"ha":538,"o":"m 537 975 l 533 833 l 0 830 l 0 967 l 537 975 "},"Z":{"x_min":50.1875,"x_max":797.59375,"ha":848,"o":"m 797 975 l 794 858 l 225 122 l 786 127 l 780 -15 l 55 -18 l 50 109 l 613 848 l 73 819 l 65 965 l 797 975 "},"u":{"x_min":86.140625,"x_max":775.203125,"ha":868,"o":"m 620 -48 l 617 145 q 567 70 595 105 q 505 7 538 34 q 434 -34 472 -18 q 355 -48 396 -50 q 250 -25 294 -46 q 177 30 206 -4 q 129 110 147 65 q 101 207 111 156 q 89 311 92 258 q 86 415 86 364 q 92 557 86 485 q 109 705 98 630 l 248 701 q 234 550 238 617 q 230 432 230 482 q 231 373 230 408 q 236 298 231 338 q 250 220 240 259 q 277 151 259 181 q 320 105 294 121 q 385 94 347 88 q 494 166 438 101 q 613 364 551 230 q 610 536 611 472 q 607 634 608 600 q 605 690 606 674 l 751 706 q 758 496 755 590 q 764 327 761 402 q 768 195 767 252 q 771 97 770 139 q 775 -46 774 0 l 620 -48 "},"k":{"x_min":92.921875,"x_max":750.109375,"ha":770,"o":"m 278 1028 l 252 384 l 607 740 l 711 657 l 458 406 l 750 27 l 630 -59 l 358 307 l 245 197 l 238 -6 l 92 -15 l 127 1030 l 278 1028 "},"Ù":{"x_min":98,"x_max":874.953125,"ha":968,"o":"m 874 465 q 865 340 875 402 q 834 224 855 279 q 778 122 812 168 q 699 41 745 75 q 595 -11 653 7 q 465 -30 536 -30 q 339 -7 393 -30 q 244 53 284 14 q 176 143 204 92 q 132 250 149 194 q 107 365 115 307 q 98 476 99 423 q 101 623 96 543 q 113 782 104 691 q 141 976 122 873 l 288 955 q 263 826 273 888 q 248 708 254 763 q 241 608 243 653 q 240 530 240 562 q 243 445 240 492 q 255 350 246 398 q 281 256 264 301 q 324 174 297 210 q 391 117 352 139 q 484 95 430 95 q 586 121 541 95 q 663 195 632 147 q 712 311 695 243 q 727 465 729 380 q 719 611 726 533 q 702 767 714 679 q 670 952 691 854 l 815 972 q 848 768 836 860 q 866 607 859 675 q 874 465 872 529 m 537 1015 l 451 966 l 268 1148 l 395 1259 l 537 1015 "},"Ů":{"x_min":98,"x_max":874.953125,"ha":968,"o":"m 874 465 q 865 340 875 402 q 834 224 855 279 q 778 122 812 168 q 699 41 745 75 q 595 -11 653 7 q 465 -30 536 -30 q 339 -7 393 -30 q 244 53 284 14 q 176 143 204 92 q 132 250 149 194 q 107 365 115 307 q 98 476 99 423 q 101 623 96 543 q 113 782 104 691 q 141 976 122 873 l 288 955 q 263 826 273 888 q 248 708 254 763 q 241 608 243 653 q 240 530 240 562 q 243 445 240 492 q 255 350 246 398 q 281 256 264 301 q 324 174 297 210 q 391 117 352 139 q 484 95 430 95 q 586 121 541 95 q 663 195 632 147 q 712 311 695 243 q 727 465 729 380 q 719 611 726 533 q 702 767 714 679 q 670 952 691 854 l 815 972 q 848 768 836 860 q 866 607 859 675 q 874 465 872 529 m 662 1156 q 648 1086 662 1119 q 609 1028 634 1053 q 552 989 585 1004 q 482 975 519 975 q 412 989 445 975 q 354 1028 379 1004 q 316 1086 330 1053 q 302 1156 302 1119 q 316 1226 302 1193 q 354 1284 330 1259 q 412 1324 379 1310 q 482 1338 445 1338 q 552 1324 519 1338 q 609 1284 585 1310 q 648 1226 634 1259 q 662 1156 662 1193 m 561 1152 q 555 1183 561 1168 q 538 1208 549 1197 q 513 1225 527 1219 q 482 1231 499 1231 q 451 1225 466 1231 q 425 1208 436 1219 q 408 1183 414 1197 q 401 1152 401 1168 q 408 1120 401 1135 q 425 1095 414 1105 q 451 1077 436 1084 q 482 1071 466 1071 q 513 1077 499 1071 q 538 1095 527 1084 q 555 1120 549 1105 q 561 1152 561 1135 "},"¢":{"x_min":54.265625,"x_max":559.53125,"ha":617,"o":"m 406 1070 l 384 715 q 483 678 438 706 q 559 608 528 650 l 470 523 q 445 553 460 538 q 413 579 430 567 q 375 598 395 591 q 336 605 356 605 q 277 594 305 605 q 229 561 250 583 q 197 509 209 540 q 185 437 185 478 q 197 367 185 398 q 229 315 209 337 q 277 282 250 293 q 336 270 305 270 q 376 277 356 270 q 415 295 396 284 q 450 321 434 306 q 476 351 465 335 l 559 265 q 483 197 526 224 q 388 160 440 170 l 409 -198 l 279 -202 l 295 158 q 200 189 244 165 q 124 251 156 214 q 72 336 91 288 q 54 437 54 383 q 71 536 54 489 q 120 619 89 582 q 194 681 151 656 q 286 715 236 706 l 262 1066 l 406 1070 "},"Ş":{"x_min":54.40625,"x_max":848.625,"ha":896,"o":"m 597 -286 q 574 -344 591 -320 q 535 -381 558 -367 q 485 -402 512 -396 q 432 -408 458 -408 q 349 -392 387 -408 q 271 -351 311 -376 l 311 -263 q 356 -294 334 -283 q 396 -309 378 -304 q 434 -316 416 -316 q 477 -299 461 -316 q 493 -258 493 -281 q 474 -213 493 -230 q 429 -187 455 -196 q 373 -176 402 -178 q 322 -177 343 -174 l 368 -76 q 215 -23 289 -61 q 69 65 141 14 l 168 181 q 272 108 221 134 q 366 67 324 81 q 458 46 414 51 q 549 53 507 43 q 622 83 591 63 q 673 129 654 102 q 695 185 692 155 q 687 231 697 210 q 655 269 676 252 q 605 300 634 286 q 544 323 577 313 q 478 342 512 334 q 412 355 444 349 q 330 373 373 362 q 246 402 288 384 q 168 448 205 421 q 105 513 132 475 q 64 602 78 552 q 55 719 50 653 q 78 817 59 773 q 126 895 96 861 q 194 955 155 930 q 276 996 232 980 q 365 1019 319 1012 q 458 1026 412 1026 q 586 1006 522 1022 q 643 989 613 999 q 704 964 674 978 q 765 929 735 949 q 822 883 794 909 l 746 763 q 699 806 724 788 q 650 838 675 824 q 601 861 626 851 q 555 876 577 870 q 453 893 503 891 q 343 874 391 893 q 262 826 295 855 q 211 760 229 796 q 194 689 194 724 q 215 621 194 654 q 272 562 236 589 q 358 517 309 536 q 465 491 408 499 q 563 474 514 486 q 657 442 613 461 q 740 397 702 423 q 803 335 777 370 q 841 256 829 300 q 845 160 853 212 q 818 75 838 112 q 769 11 798 38 q 702 -34 739 -15 q 624 -64 665 -52 q 543 -81 584 -75 q 463 -86 501 -86 q 453 -85 458 -86 q 442 -84 448 -84 l 433 -112 q 494 -123 468 -114 q 538 -144 520 -131 q 568 -172 556 -156 q 586 -203 579 -187 q 597 -286 602 -240 "},"é":{"x_min":51.546875,"x_max":786.0625,"ha":823,"o":"m 423 62 q 495 73 459 62 q 560 106 530 84 q 612 159 590 127 q 644 233 634 191 l 775 206 q 721 94 756 145 q 640 8 687 44 q 539 -46 594 -27 q 423 -66 484 -66 q 265 -39 334 -66 q 148 37 196 -12 q 76 156 101 86 q 51 312 51 226 q 80 471 51 397 q 159 598 109 544 q 277 684 209 653 q 423 715 345 715 q 556 688 494 715 q 667 612 619 660 q 746 497 715 563 q 786 355 777 432 l 198 267 q 222 181 203 219 q 270 116 241 143 q 339 76 300 90 q 423 62 378 62 m 611 442 l 607 455 q 536 560 581 522 q 423 598 491 598 q 361 589 395 598 q 295 555 327 579 q 238 492 263 531 q 202 393 212 452 l 611 442 m 572 952 l 401 746 l 315 795 l 435 1027 l 572 952 "},"B":{"x_min":112.578125,"x_max":975.4375,"ha":1028,"o":"m 975 265 q 952 141 977 193 q 884 55 927 90 q 783 -1 841 20 q 663 -33 726 -22 q 537 -48 600 -44 q 417 -51 473 -51 q 292 -48 361 -51 q 141 -38 223 -45 l 112 948 q 249 968 183 961 q 368 977 316 974 q 483 979 429 980 q 587 973 535 978 q 687 957 639 968 q 776 926 735 946 q 848 876 817 906 q 896 802 878 845 q 914 701 914 759 q 886 571 914 625 q 813 482 858 517 q 864 458 842 472 q 903 427 887 444 q 932 392 920 411 q 952 355 944 373 q 975 265 970 313 m 486 855 q 417 853 454 855 q 344 848 385 852 q 257 837 303 844 l 267 491 q 374 495 326 493 q 456 499 421 497 q 529 505 497 502 q 624 521 579 507 q 704 560 670 535 q 757 619 738 584 q 771 701 775 655 q 752 760 767 735 q 715 804 737 786 q 665 833 693 822 q 607 850 637 844 q 545 856 577 855 q 486 855 514 857 m 615 396 q 585 393 598 394 q 563 392 573 392 q 547 390 554 391 q 534 389 540 389 q 454 383 497 386 q 370 378 417 381 q 271 372 322 375 l 282 71 q 319 70 301 70 q 355 70 337 70 q 435 70 387 70 q 537 75 484 71 q 643 91 590 80 q 739 123 697 102 q 807 179 781 145 q 830 263 832 212 q 799 329 824 300 q 772 354 788 341 q 734 375 756 366 q 682 390 712 384 q 615 396 653 396 "},"…":{"x_min":86.140625,"x_max":951.546875,"ha":1038,"o":"m 259 38 q 252 5 259 21 q 234 -22 246 -10 q 206 -40 222 -33 q 173 -47 191 -47 q 139 -40 155 -47 q 111 -22 123 -33 q 92 5 99 -10 q 86 38 86 21 q 92 72 86 56 q 111 100 99 88 q 139 119 123 112 q 173 126 155 126 q 206 119 191 126 q 234 100 222 112 q 252 72 246 88 q 259 38 259 56 m 605 38 q 598 5 605 21 q 580 -22 592 -10 q 552 -40 568 -33 q 519 -47 537 -47 q 485 -40 501 -47 q 457 -22 469 -33 q 438 5 445 -10 q 432 38 432 21 q 438 72 432 56 q 457 100 445 88 q 485 119 469 112 q 519 126 501 126 q 552 119 537 126 q 580 100 568 112 q 598 72 592 88 q 605 38 605 56 m 951 38 q 944 5 951 21 q 926 -22 937 -10 q 898 -40 914 -33 q 865 -47 883 -47 q 831 -40 847 -47 q 803 -22 815 -33 q 784 5 791 -10 q 777 38 777 21 q 784 72 777 56 q 803 100 791 88 q 831 119 815 112 q 865 126 847 126 q 898 119 883 126 q 926 100 914 112 q 944 72 937 88 q 951 38 951 56 "},"ē":{"x_min":51.546875,"x_max":786.0625,"ha":823,"o":"m 423 62 q 495 73 459 62 q 560 106 530 84 q 612 159 590 127 q 644 233 634 191 l 775 206 q 721 94 756 145 q 640 8 687 44 q 539 -46 594 -27 q 423 -66 484 -66 q 265 -39 334 -66 q 148 37 196 -12 q 76 156 101 86 q 51 312 51 226 q 80 471 51 397 q 159 598 109 544 q 277 684 209 653 q 423 715 345 715 q 556 688 494 715 q 667 612 619 660 q 746 497 715 563 q 786 355 777 432 l 198 267 q 222 181 203 219 q 270 116 241 143 q 339 76 300 90 q 423 62 378 62 m 611 442 l 607 455 q 536 560 581 522 q 423 598 491 598 q 361 589 395 598 q 295 555 327 579 q 238 492 263 531 q 202 393 212 452 l 611 442 m 680 930 l 676 788 l 143 785 l 143 922 l 680 930 "},"H":{"x_min":122.078125,"x_max":1020.71875,"ha":1143,"o":"m 270 433 l 868 462 l 861 966 l 1012 955 l 1020 23 l 874 12 l 870 336 l 271 309 l 276 5 l 134 0 l 122 969 l 265 976 l 270 433 "},"î":{"x_min":-48,"x_max":400.984375,"ha":349,"o":"m 251 665 q 247 487 249 568 q 244 339 246 406 q 242 220 243 273 q 240 128 241 168 q 238 -18 238 35 l 99 -18 q 103 155 101 54 q 106 368 104 242 q 111 659 109 493 l 251 665 m 400 814 l 325 728 l 171 863 l 46 721 l -48 781 l 164 1010 l 400 814 "},"−":{"x_min":91.5625,"x_max":632.109375,"ha":724,"o":"m 632 406 l 95 392 l 91 533 l 632 548 l 632 406 "},"≠":{"x_min":90.203125,"x_max":630.75,"ha":724,"o":"m 629 823 l 547 670 l 630 673 l 630 545 l 478 541 l 397 388 l 630 387 l 628 255 l 323 251 l 229 73 l 116 95 l 194 250 l 96 248 l 96 389 l 265 388 l 340 537 l 94 530 l 90 658 l 406 666 l 497 844 l 629 823 "},"¥":{"x_min":51.546875,"x_max":898.640625,"ha":945,"o":"m 427 237 l 430 301 l 201 295 l 197 437 l 349 441 l 51 951 l 210 969 l 498 448 l 744 969 l 898 965 l 634 448 l 765 453 l 765 311 l 560 305 l 559 302 l 559 236 l 765 236 l 762 104 l 559 101 l 559 -22 l 419 -30 l 423 99 l 204 96 l 204 238 l 427 237 "},"Ĥ":{"x_min":122.078125,"x_max":1020.71875,"ha":1143,"o":"m 270 433 l 868 462 l 861 966 l 1012 955 l 1020 23 l 874 12 l 870 336 l 271 309 l 276 5 l 134 0 l 122 969 l 265 976 l 270 433 m 795 1046 l 720 960 l 566 1095 l 441 953 l 347 1013 l 559 1242 l 795 1046 "},"U":{"x_min":98,"x_max":874.953125,"ha":968,"o":"m 874 465 q 865 340 875 402 q 834 224 855 279 q 778 122 812 168 q 699 41 745 75 q 595 -11 653 7 q 465 -30 536 -30 q 339 -7 393 -30 q 244 53 284 14 q 176 143 204 92 q 132 250 149 194 q 107 365 115 307 q 98 476 99 423 q 101 623 96 543 q 113 782 104 691 q 141 976 122 873 l 288 955 q 263 826 273 888 q 248 708 254 763 q 241 608 243 653 q 240 530 240 562 q 243 445 240 492 q 255 350 246 398 q 281 256 264 301 q 324 174 297 210 q 391 117 352 139 q 484 95 430 95 q 586 121 541 95 q 663 195 632 147 q 712 311 695 243 q 727 465 729 380 q 719 611 726 533 q 702 767 714 679 q 670 952 691 854 l 815 972 q 848 768 836 860 q 866 607 859 675 q 874 465 872 529 "},"Ñ":{"x_min":122.078125,"x_max":1020.71875,"ha":1143,"o":"m 872 225 l 861 966 l 1012 955 l 1020 23 l 874 12 l 267 737 l 276 5 l 134 0 l 122 969 l 265 976 l 872 225 m 819 1256 q 823 1226 821 1240 q 825 1198 825 1211 q 812 1124 825 1160 q 777 1061 800 1088 q 721 1016 754 1033 q 646 999 688 999 q 594 1007 616 999 q 555 1029 572 1016 q 524 1057 538 1042 q 497 1085 510 1072 q 471 1106 484 1098 q 443 1114 458 1115 q 413 1100 426 1112 q 392 1068 401 1090 q 380 1006 382 1046 l 267 1025 q 278 1088 270 1060 q 296 1137 285 1116 q 319 1174 307 1158 q 343 1202 331 1190 q 406 1239 372 1228 q 472 1241 444 1248 q 523 1220 500 1235 q 562 1187 545 1206 q 593 1152 578 1168 q 623 1125 608 1135 q 654 1118 637 1115 q 681 1133 669 1122 q 700 1159 691 1142 q 708 1204 708 1175 q 707 1228 708 1215 q 703 1253 706 1240 l 819 1256 "},"F":{"x_min":119.375,"x_max":855.921875,"ha":875,"o":"m 662 365 l 259 345 l 265 0 l 134 -5 l 119 961 l 855 972 l 851 843 l 252 833 l 258 479 l 659 495 l 662 365 "},"̒":{"x_min":90.203125,"x_max":231.953125,"ha":324,"o":"m 90 858 q 92 883 90 865 q 103 926 94 902 q 127 979 111 951 q 170 1032 143 1007 l 231 1011 q 215 986 223 1000 q 202 955 208 973 q 191 914 196 937 q 218 888 208 904 q 229 852 229 871 q 223 825 229 838 q 208 802 218 812 q 186 787 199 792 q 160 781 174 781 q 132 787 145 781 q 110 802 120 792 q 95 825 101 812 q 90 852 90 838 l 90 858 "},"ĵ":{"x_min":-118.015625,"x_max":398.984375,"ha":349,"o":"m 247 662 q 245 473 246 558 q 243 319 244 387 q 242 197 243 250 q 242 105 242 144 q 241 -35 241 12 q 235 -112 240 -71 q 216 -194 230 -153 q 177 -271 202 -234 q 112 -337 152 -309 q 15 -382 72 -366 q -118 -398 -40 -399 l -109 -245 q -41 -242 -71 -249 q 9 -221 -12 -235 q 47 -187 31 -206 q 73 -147 63 -168 q 101 -33 96 -98 q 104 141 103 39 q 106 360 105 229 q 107 668 107 491 l 247 662 m 398 849 l 323 763 l 169 898 l 44 756 l -50 816 l 162 1045 l 398 849 "},"ā":{"x_min":42.734375,"x_max":790.125,"ha":867,"o":"m 626 -42 l 636 52 q 473 -23 553 0 q 324 -47 394 -47 q 230 -34 276 -47 q 149 3 184 -22 q 93 70 114 29 q 71 165 71 110 q 88 263 71 220 q 132 340 104 307 q 200 397 161 373 q 283 436 238 421 q 376 458 327 451 q 473 465 425 465 q 556 461 518 465 q 625 453 595 458 q 603 519 616 486 q 570 578 590 552 q 521 621 550 604 q 451 637 492 637 q 391 629 425 637 q 316 601 357 621 q 227 545 276 581 q 124 454 179 510 l 42 554 q 167 653 107 615 q 279 714 227 692 q 377 744 332 736 q 458 752 422 752 q 569 731 520 752 q 655 673 618 710 q 717 586 692 636 q 759 479 743 536 q 783 360 775 421 q 790 237 790 298 q 782 97 790 172 q 759 -65 775 23 l 626 -42 m 645 204 q 647 271 647 238 q 644 340 648 304 q 574 356 611 350 q 501 362 537 362 q 382 348 440 362 q 284 307 325 334 q 222 240 242 280 q 213 151 201 201 q 250 94 223 110 q 316 78 278 78 q 401 91 356 78 q 492 123 447 104 q 577 164 537 143 q 645 204 617 186 m 701 975 l 697 833 l 164 830 l 164 967 l 701 975 "},"Ĩ":{"x_min":-79,"x_max":479.171875,"ha":400,"o":"m 276 23 l 140 23 l 116 966 l 267 961 l 276 23 m 473 1338 q 477 1308 475 1322 q 479 1280 479 1293 q 466 1206 479 1242 q 431 1143 454 1170 q 375 1098 408 1115 q 300 1081 342 1081 q 248 1089 270 1081 q 209 1111 226 1098 q 178 1139 192 1124 q 151 1167 164 1154 q 125 1188 138 1180 q 97 1196 112 1197 q 67 1182 80 1194 q 46 1150 55 1172 q 34 1088 36 1128 l -79 1107 q -67 1170 -75 1142 q -49 1219 -60 1198 q -26 1256 -38 1240 q -2 1284 -14 1272 q 60 1321 26 1310 q 126 1323 98 1330 q 177 1302 154 1317 q 216 1269 199 1288 q 247 1234 232 1250 q 277 1207 262 1217 q 308 1200 291 1197 q 335 1215 323 1204 q 354 1241 345 1224 q 362 1286 362 1257 q 361 1310 362 1297 q 357 1335 360 1322 l 473 1338 "},"ă":{"x_min":42.734375,"x_max":790.125,"ha":867,"o":"m 626 -42 l 636 52 q 473 -23 553 0 q 324 -47 394 -47 q 230 -34 276 -47 q 149 3 184 -22 q 93 70 114 29 q 71 165 71 110 q 88 263 71 220 q 132 340 104 307 q 200 397 161 373 q 283 436 238 421 q 376 458 327 451 q 473 465 425 465 q 556 461 518 465 q 625 453 595 458 q 603 519 616 486 q 570 578 590 552 q 521 621 550 604 q 451 637 492 637 q 391 629 425 637 q 316 601 357 621 q 227 545 276 581 q 124 454 179 510 l 42 554 q 167 653 107 615 q 279 714 227 692 q 377 744 332 736 q 458 752 422 752 q 569 731 520 752 q 655 673 618 710 q 717 586 692 636 q 759 479 743 536 q 783 360 775 421 q 790 237 790 298 q 782 97 790 172 q 759 -65 775 23 l 626 -42 m 645 204 q 647 271 647 238 q 644 340 648 304 q 574 356 611 350 q 501 362 537 362 q 382 348 440 362 q 284 307 325 334 q 222 240 242 280 q 213 151 201 201 q 250 94 223 110 q 316 78 278 78 q 401 91 356 78 q 492 123 447 104 q 577 164 537 143 q 645 204 617 186 m 661 1064 q 652 981 662 1017 q 627 918 643 945 q 591 872 611 891 q 550 841 571 853 q 437 807 500 812 q 321 834 373 808 q 278 863 299 845 q 241 907 257 881 q 214 969 224 933 q 203 1052 203 1005 l 323 1060 q 328 1010 323 1031 q 341 974 333 989 q 359 949 349 959 q 379 933 369 939 q 433 919 403 918 q 485 941 463 923 q 504 959 495 948 q 519 986 512 970 q 527 1023 525 1002 q 527 1070 530 1043 l 661 1064 "},"*":{"x_min":58.328125,"x_max":657.203125,"ha":725,"o":"m 657 674 l 446 625 l 634 470 l 522 379 l 359 576 l 258 369 l 123 427 l 259 628 l 58 674 l 109 801 l 288 720 l 247 947 l 406 956 l 394 712 l 616 816 l 657 674 "},"†":{"x_min":56.96875,"x_max":560.890625,"ha":617,"o":"m 387 1174 l 381 922 l 560 923 l 558 792 l 379 791 l 360 -172 l 227 -179 l 234 790 l 56 788 l 56 919 l 236 921 l 238 1174 l 387 1174 "},"°":{"x_min":63.75,"x_max":425.25,"ha":489,"o":"m 425 792 q 411 723 425 756 q 372 665 396 690 q 314 626 347 640 q 244 612 281 612 q 173 626 206 612 q 116 665 141 640 q 77 723 92 690 q 63 792 63 756 q 77 863 63 830 q 116 921 92 896 q 173 961 141 946 q 244 975 206 975 q 314 961 281 975 q 372 921 347 946 q 411 863 396 896 q 425 792 425 830 m 323 788 q 317 819 323 805 q 300 845 311 834 q 275 862 289 855 q 244 868 261 868 q 213 862 227 868 q 187 845 198 855 q 170 819 177 834 q 164 788 164 805 q 170 757 164 772 q 187 731 177 742 q 213 714 198 720 q 244 708 227 708 q 275 714 261 708 q 300 731 289 720 q 317 757 311 742 q 323 788 323 772 "},"å":{"x_min":42.734375,"x_max":790.125,"ha":867,"o":"m 626 -42 l 636 52 q 473 -23 553 0 q 324 -47 394 -47 q 230 -34 276 -47 q 149 3 184 -22 q 93 70 114 29 q 71 165 71 110 q 88 263 71 220 q 132 340 104 307 q 200 397 161 373 q 283 436 238 421 q 376 458 327 451 q 473 465 425 465 q 556 461 518 465 q 625 453 595 458 q 603 519 616 486 q 570 578 590 552 q 521 621 550 604 q 451 637 492 637 q 391 629 425 637 q 316 601 357 621 q 227 545 276 581 q 124 454 179 510 l 42 554 q 167 653 107 615 q 279 714 227 692 q 377 744 332 736 q 458 752 422 752 q 569 731 520 752 q 655 673 618 710 q 717 586 692 636 q 759 479 743 536 q 783 360 775 421 q 790 237 790 298 q 782 97 790 172 q 759 -65 775 23 l 626 -42 m 645 204 q 647 271 647 238 q 644 340 648 304 q 574 356 611 350 q 501 362 537 362 q 382 348 440 362 q 284 307 325 334 q 222 240 242 280 q 213 151 201 201 q 250 94 223 110 q 316 78 278 78 q 401 91 356 78 q 492 123 447 104 q 577 164 537 143 q 645 204 617 186 m 596 969 q 582 899 596 932 q 543 841 568 866 q 486 802 519 817 q 416 788 453 788 q 346 802 379 788 q 288 841 313 817 q 250 899 264 866 q 236 969 236 932 q 250 1039 236 1006 q 288 1097 264 1072 q 346 1137 313 1123 q 416 1151 379 1151 q 486 1137 453 1151 q 543 1097 519 1123 q 582 1039 568 1072 q 596 969 596 1006 m 495 965 q 489 996 495 981 q 472 1021 483 1010 q 447 1038 461 1032 q 416 1044 433 1044 q 385 1038 400 1044 q 359 1021 370 1032 q 342 996 348 1010 q 335 965 335 981 q 342 933 335 948 q 359 908 348 918 q 385 890 370 897 q 416 884 400 884 q 447 890 433 884 q 472 908 461 897 q 489 933 483 918 q 495 965 495 948 "},"0":{"x_min":65.109375,"x_max":914.25,"ha":979,"o":"m 914 480 q 899 341 914 408 q 856 215 884 274 q 790 109 829 157 q 704 26 752 61 q 602 -26 657 -7 q 489 -44 548 -44 q 373 -26 427 -44 q 270 26 318 -7 q 185 109 223 61 q 121 215 147 157 q 79 341 94 274 q 65 480 65 408 q 79 620 65 553 q 120 746 93 687 q 184 852 146 804 q 268 934 221 900 q 371 987 316 968 q 489 1005 427 1005 q 609 987 553 1005 q 713 934 666 968 q 798 852 760 900 q 861 746 835 804 q 900 620 887 687 q 914 480 914 553 m 779 480 q 759 632 779 561 q 702 756 739 703 q 610 839 664 809 q 489 870 556 870 q 369 839 422 870 q 278 756 316 809 q 220 632 240 703 q 200 480 200 561 q 220 328 200 400 q 279 204 241 257 q 370 121 317 151 q 489 90 423 90 q 608 121 554 90 q 699 204 661 151 q 758 328 737 257 q 779 480 779 400 "},"ō":{"x_min":52.90625,"x_max":779.28125,"ha":831,"o":"m 779 328 q 750 170 779 243 q 672 44 722 98 q 556 -38 623 -8 q 415 -69 490 -69 q 274 -40 339 -69 q 159 40 208 -12 q 81 166 109 92 q 52 328 52 239 q 81 492 52 419 q 159 618 109 566 q 274 699 208 670 q 415 727 339 727 q 556 697 490 727 q 672 614 623 667 q 750 487 722 560 q 779 328 779 415 m 636 330 q 623 428 636 379 q 585 518 611 478 q 516 583 558 558 q 415 608 474 608 q 316 583 357 608 q 248 518 274 558 q 209 428 221 478 q 197 330 197 379 q 210 231 197 281 q 250 142 223 182 q 319 78 278 103 q 415 52 360 52 q 514 78 472 52 q 583 142 556 103 q 623 231 610 182 q 636 330 636 281 m 683 942 l 679 800 l 146 797 l 146 934 l 683 942 "},"”":{"x_min":79.359375,"x_max":479.5,"ha":543,"o":"m 257 886 q 244 809 255 848 q 213 735 234 775 q 155 661 193 696 l 79 687 q 99 718 89 700 q 115 756 107 733 q 128 809 123 779 q 95 840 108 819 q 83 886 83 860 q 90 920 83 904 q 108 948 96 936 q 135 967 120 960 q 169 973 151 973 q 203 967 187 973 q 231 948 219 960 q 250 920 243 936 q 257 886 257 904 m 301 687 q 320 718 311 700 q 337 756 328 733 q 351 809 345 779 q 318 840 330 819 q 305 886 305 860 q 312 920 305 904 q 330 948 319 936 q 358 967 342 960 q 392 973 374 973 q 426 967 410 973 q 454 948 442 960 q 472 920 465 936 q 479 886 479 904 q 466 809 478 848 q 436 735 457 775 q 377 661 415 696 l 301 687 "},"ŵ":{"x_min":46.125,"x_max":1000.375,"ha":1043,"o":"m 1000 685 l 865 -23 l 663 -29 l 544 469 l 380 -5 l 177 -21 l 46 682 l 185 693 l 288 123 l 490 693 l 620 685 l 758 108 l 849 690 l 1000 685 m 772 814 l 697 728 l 543 863 l 418 721 l 324 781 l 536 1010 l 772 814 "},"Ķ":{"x_min":119.375,"x_max":955.609375,"ha":977,"o":"m 276 388 l 790 972 l 942 952 l 623 590 l 955 5 l 796 -18 l 534 489 l 280 198 l 286 -2 l 134 -5 l 119 955 l 262 966 l 276 388 m 558 -106 q 548 -167 557 -136 q 524 -226 540 -194 q 478 -286 508 -258 l 416 -264 q 432 -239 425 -254 q 446 -209 439 -227 q 457 -167 452 -190 q 430 -141 440 -157 q 420 -106 420 -125 q 425 -78 420 -91 q 440 -56 430 -66 q 462 -41 449 -47 q 489 -36 475 -36 q 538 -56 518 -36 q 558 -106 558 -76 "},"ö":{"x_min":52.90625,"x_max":779.28125,"ha":831,"o":"m 779 328 q 750 170 779 243 q 672 44 722 98 q 556 -38 623 -8 q 415 -69 490 -69 q 274 -40 339 -69 q 159 40 208 -12 q 81 166 109 92 q 52 328 52 239 q 81 492 52 419 q 159 618 109 566 q 274 699 208 670 q 415 727 339 727 q 556 697 490 727 q 672 614 623 667 q 750 487 722 560 q 779 328 779 415 m 636 330 q 623 428 636 379 q 585 518 611 478 q 516 583 558 558 q 415 608 474 608 q 316 583 357 608 q 248 518 274 558 q 209 428 221 478 q 197 330 197 379 q 210 231 197 281 q 250 142 223 182 q 319 78 278 103 q 415 52 360 52 q 514 78 472 52 q 583 142 556 103 q 623 231 610 182 q 636 330 636 281 m 667 845 q 660 813 667 828 q 644 788 654 798 q 618 770 633 777 q 587 764 604 764 q 556 770 571 764 q 531 788 542 777 q 514 813 520 798 q 507 845 507 828 q 514 876 507 861 q 531 901 520 890 q 556 918 542 912 q 587 924 571 924 q 618 918 604 924 q 644 901 633 912 q 660 876 654 890 q 667 845 667 861 m 334 845 q 327 813 334 828 q 310 788 321 798 q 284 770 299 777 q 253 764 269 764 q 222 770 237 764 q 197 788 207 777 q 180 813 186 798 q 174 845 174 828 q 180 876 174 861 q 197 901 186 890 q 222 918 207 912 q 253 924 237 924 q 284 918 269 924 q 310 901 299 912 q 327 876 321 890 q 334 845 334 861 "},"ǽ":{"x_min":42.734375,"x_max":1399.859375,"ha":1438,"o":"m 626 -42 l 640 55 q 475 -23 556 0 q 324 -47 394 -47 q 230 -34 276 -47 q 149 3 184 -22 q 93 70 114 29 q 71 165 71 110 q 88 263 71 220 q 132 340 104 307 q 200 397 161 373 q 283 436 238 421 q 376 458 327 451 q 473 465 425 465 q 564 461 522 465 q 634 451 605 457 q 612 520 625 486 q 579 579 599 554 q 529 621 558 605 q 457 637 499 637 q 394 629 429 637 q 318 601 360 621 q 228 545 276 581 q 124 454 179 510 l 42 554 q 171 650 109 613 q 288 708 233 687 q 392 736 344 729 q 476 743 439 743 q 563 731 525 743 q 632 695 601 719 q 687 636 662 672 q 734 551 711 600 q 793 619 760 588 q 864 671 826 649 q 947 704 903 692 q 1037 715 990 715 q 1170 688 1108 715 q 1281 612 1233 660 q 1360 497 1329 563 q 1399 355 1391 432 l 812 267 q 836 177 817 219 q 885 102 855 134 q 953 52 914 71 q 1037 34 992 34 q 1108 45 1073 34 q 1174 78 1144 56 q 1226 131 1203 99 q 1258 205 1248 163 l 1389 179 q 1335 67 1370 118 q 1254 -18 1300 16 q 1153 -74 1208 -54 q 1037 -94 1098 -94 q 894 -64 961 -94 q 775 23 827 -33 l 773 23 l 759 -65 l 626 -42 m 655 209 q 658 271 657 240 q 654 337 658 303 q 579 356 618 349 q 501 362 539 362 q 382 348 440 362 q 284 307 325 334 q 222 240 242 280 q 213 151 201 201 q 250 94 223 110 q 316 78 278 78 q 374 84 343 78 q 437 102 405 91 q 500 127 468 113 q 560 155 531 141 q 613 184 588 170 q 655 209 638 198 m 1037 598 q 975 589 1009 598 q 909 555 941 579 q 852 492 877 531 q 816 393 826 452 l 1224 442 l 1220 455 q 1149 560 1195 522 q 1037 598 1104 598 m 665 216 q 664 217 665 217 q 663 215 663 217 l 665 216 m 962 961 l 791 755 l 705 804 l 825 1036 l 962 961 "},"Ļ":{"x_min":124.796875,"x_max":868.125,"ha":897,"o":"m 868 -15 l 128 -66 l 124 965 l 265 972 l 261 82 l 861 128 l 868 -15 m 519 -168 q 509 -229 518 -198 q 485 -288 501 -256 q 439 -348 469 -320 l 377 -326 q 393 -301 386 -316 q 407 -271 400 -289 q 418 -229 413 -252 q 391 -203 401 -219 q 381 -168 381 -187 q 386 -140 381 -153 q 401 -118 391 -128 q 423 -103 410 -109 q 450 -98 436 -98 q 499 -118 479 -98 q 519 -168 519 -138 "},"Õ":{"x_min":55.609375,"x_max":1081.765625,"ha":1137,"o":"m 1081 479 q 1063 340 1081 406 q 1011 215 1045 273 q 931 108 978 156 q 827 26 884 60 q 704 -27 769 -8 q 568 -46 638 -46 q 431 -27 497 -46 q 309 26 366 -8 q 205 108 252 60 q 125 215 158 156 q 73 340 92 273 q 55 479 55 406 q 73 619 55 552 q 125 744 92 686 q 205 850 158 803 q 309 932 252 898 q 432 985 366 967 q 568 1004 497 1004 q 704 985 638 1004 q 827 932 769 967 q 931 850 884 898 q 1011 744 978 803 q 1063 619 1045 686 q 1081 479 1081 552 m 947 479 q 933 582 947 533 q 895 676 920 632 q 836 755 870 719 q 759 816 801 790 q 669 855 717 841 q 568 869 620 869 q 421 838 489 869 q 301 754 352 807 q 220 631 249 701 q 190 479 190 560 q 220 327 190 398 q 301 203 249 256 q 421 119 352 150 q 568 88 489 88 q 669 102 620 88 q 759 142 717 116 q 836 203 801 167 q 895 282 870 238 q 933 375 920 325 q 947 479 947 425 m 834 1306 q 838 1276 836 1290 q 840 1248 840 1261 q 827 1174 840 1210 q 792 1111 815 1138 q 736 1066 769 1083 q 661 1049 703 1049 q 609 1057 631 1049 q 570 1079 587 1066 q 539 1107 553 1092 q 512 1135 525 1122 q 486 1156 499 1148 q 458 1164 473 1165 q 428 1150 441 1162 q 407 1118 416 1140 q 395 1056 397 1096 l 282 1075 q 293 1138 285 1110 q 311 1187 300 1166 q 334 1224 322 1208 q 358 1252 346 1240 q 421 1289 387 1278 q 487 1291 459 1298 q 538 1270 515 1285 q 577 1237 560 1256 q 608 1202 593 1218 q 638 1175 623 1185 q 669 1168 652 1165 q 696 1183 684 1172 q 715 1209 706 1192 q 723 1254 723 1225 q 722 1278 723 1265 q 718 1303 721 1290 l 834 1306 "},"ć":{"x_min":50.1875,"x_max":803.015625,"ha":842,"o":"m 803 508 l 690 440 l 689 444 q 646 506 671 478 q 590 553 621 533 q 523 582 558 572 q 448 592 487 592 q 344 571 393 592 q 260 514 296 550 q 202 428 223 477 q 181 323 181 379 q 202 219 181 268 q 260 134 223 170 q 344 76 296 97 q 448 55 393 55 q 518 65 484 55 q 582 91 552 74 q 638 133 613 109 q 680 189 663 158 l 683 193 l 801 126 l 800 122 q 735 42 773 78 q 652 -17 697 7 q 554 -56 606 -43 q 448 -70 502 -70 q 300 -40 372 -70 q 173 42 229 -10 q 83 166 117 94 q 50 323 50 238 q 64 423 50 374 q 103 516 78 472 q 165 598 128 560 q 245 662 201 635 q 341 704 289 689 q 448 719 392 719 q 561 705 507 719 q 659 664 614 691 q 741 598 705 637 q 801 511 777 560 l 803 508 m 673 992 l 502 786 l 416 835 l 536 1067 l 673 992 "},"þ":{"x_min":98.34375,"x_max":845.875,"ha":897,"o":"m 254 978 l 251 623 q 331 678 290 659 q 406 706 372 697 q 484 718 446 716 q 576 705 531 718 q 662 667 621 691 q 737 609 703 643 q 796 534 771 575 q 834 444 821 492 q 845 343 847 396 q 828 233 843 284 q 787 138 812 181 q 727 61 761 95 q 655 2 693 26 q 575 -33 617 -21 q 494 -46 534 -46 q 413 -34 455 -45 q 332 -6 376 -25 q 245 48 288 12 l 242 -406 l 109 -409 l 98 972 l 254 978 m 693 330 q 680 425 695 379 q 635 505 665 471 q 562 560 604 540 q 470 580 520 581 q 395 566 430 579 q 331 532 360 554 q 282 482 303 510 q 248 421 261 453 l 247 255 q 281 185 259 215 q 331 134 303 155 q 393 104 360 114 q 459 92 425 93 q 549 109 507 91 q 621 160 590 128 q 671 236 653 193 q 693 330 690 280 "},"]":{"x_min":40.015625,"x_max":387.265625,"ha":501,"o":"m 387 -181 l 40 -181 l 40 -55 l 245 -55 l 245 1044 l 40 1044 l 40 1175 l 387 1175 l 387 -181 "},"ẁ":{"x_min":46.125,"x_max":1000.375,"ha":1043,"o":"m 1000 685 l 865 -23 l 663 -29 l 544 469 l 380 -5 l 177 -21 l 46 682 l 185 693 l 288 123 l 490 693 l 620 685 l 758 108 l 849 690 l 1000 685 m 599 799 l 513 750 l 330 932 l 457 1043 l 599 799 "},"ĭ":{"x_min":-55,"x_max":403.53125,"ha":349,"o":"m 251 665 q 247 487 249 568 q 244 339 246 406 q 242 220 243 273 q 240 128 241 168 q 238 -18 238 35 l 99 -18 q 103 155 101 54 q 106 368 104 242 q 111 659 109 493 l 251 665 m 403 1009 q 394 926 404 962 q 369 863 385 890 q 333 817 353 836 q 292 786 313 798 q 179 752 242 757 q 63 779 115 753 q 20 808 41 790 q -16 852 0 826 q -43 914 -33 878 q -55 997 -54 950 l 65 1005 q 70 955 65 976 q 83 919 75 934 q 101 894 91 904 q 121 878 111 884 q 175 864 145 863 q 227 886 205 868 q 246 904 237 893 q 261 931 254 915 q 269 968 267 947 q 269 1015 272 988 l 403 1009 "},"8":{"x_min":65.109375,"x_max":705.359375,"ha":777,"o":"m 705 261 q 680 145 705 199 q 611 51 655 91 q 510 -11 568 11 q 385 -34 451 -34 q 260 -11 319 -34 q 158 51 202 11 q 90 145 115 91 q 65 261 65 199 q 75 338 65 301 q 106 407 86 375 q 153 467 126 440 q 216 514 181 494 q 142 602 169 550 q 115 716 115 655 q 137 819 115 771 q 198 903 160 867 q 289 960 237 939 q 400 980 341 980 q 511 960 459 980 q 601 903 562 939 q 662 819 640 867 q 685 716 685 771 q 676 653 685 684 q 653 595 668 622 q 616 544 638 568 q 569 503 595 521 q 625 457 600 483 q 668 399 650 430 q 695 333 686 368 q 705 261 705 298 m 569 269 q 555 338 569 306 q 516 395 541 370 q 458 433 491 419 q 387 446 425 446 q 315 433 348 446 q 256 395 281 419 q 217 338 231 370 q 202 269 202 306 q 217 200 202 232 q 256 143 231 167 q 315 104 281 118 q 387 90 348 90 q 458 104 425 90 q 516 143 491 118 q 555 200 541 167 q 569 269 569 232 m 554 711 q 541 771 554 743 q 505 820 528 799 q 453 854 483 842 q 389 866 423 866 q 329 854 356 866 q 284 820 303 842 q 255 771 265 799 q 245 711 245 743 q 254 654 245 680 q 280 607 263 628 q 324 574 298 587 q 385 558 351 561 q 446 568 416 558 q 500 598 476 578 q 539 646 524 617 q 554 711 554 674 "},"R":{"x_min":126.15625,"x_max":934.890625,"ha":992,"o":"m 934 609 q 913 514 932 557 q 863 435 894 470 q 790 373 832 400 q 702 326 749 345 l 900 15 l 759 -30 l 569 286 q 502 276 537 280 q 425 271 467 271 q 350 275 391 271 q 266 286 310 278 l 269 -1 l 126 -6 l 126 952 q 242 979 184 970 q 349 992 301 988 q 457 999 404 997 q 554 992 501 999 q 662 971 608 986 q 766 927 716 955 q 855 856 817 900 q 915 752 893 813 q 934 609 937 691 m 457 862 q 392 859 425 862 q 329 854 364 857 q 262 843 295 850 l 265 411 q 329 402 297 404 q 392 400 361 400 q 546 418 473 400 q 674 470 619 437 q 761 546 729 502 q 794 642 794 591 q 769 735 794 695 q 699 804 744 776 q 593 847 655 832 q 457 862 531 862 "},"ť":{"x_min":15.59375,"x_max":819.0625,"ha":836,"o":"m 393 976 l 388 673 l 651 682 l 641 555 l 387 548 l 381 -42 l 238 -46 l 250 544 l 15 539 l 18 663 l 252 670 l 258 967 l 393 976 m 819 959 q 808 897 817 929 q 785 839 801 871 q 738 779 768 807 l 677 801 q 692 826 685 811 q 706 856 699 838 q 717 898 713 874 q 690 923 700 906 q 680 959 680 940 q 685 987 680 974 q 700 1009 690 999 q 722 1024 709 1018 q 749 1029 734 1029 q 776 1024 763 1029 q 798 1009 789 1018 q 813 987 808 999 q 819 959 819 974 "},"Ľ":{"x_min":124.796875,"x_max":868.125,"ha":897,"o":"m 868 -15 l 128 -66 l 124 965 l 265 972 l 261 82 l 861 128 l 868 -15 m 519 1025 q 508 963 517 995 q 485 905 501 937 q 438 845 468 873 l 377 867 q 392 892 385 877 q 406 922 399 904 q 417 964 413 940 q 390 989 400 972 q 380 1025 380 1006 q 385 1053 380 1040 q 400 1075 390 1065 q 422 1090 409 1084 q 449 1095 434 1095 q 476 1090 463 1095 q 498 1075 489 1084 q 513 1053 508 1065 q 519 1025 519 1040 "},"Ż":{"x_min":50.1875,"x_max":797.59375,"ha":848,"o":"m 797 975 l 794 858 l 225 122 l 786 127 l 780 -15 l 55 -18 l 50 109 l 613 848 l 73 819 l 65 965 l 797 975 m 505 1128 q 498 1096 505 1111 q 481 1071 492 1081 q 455 1053 470 1060 q 424 1047 440 1047 q 393 1053 408 1047 q 368 1071 378 1060 q 351 1096 357 1081 q 345 1128 345 1111 q 351 1159 345 1144 q 368 1184 357 1173 q 393 1201 378 1195 q 424 1207 408 1207 q 455 1201 440 1207 q 481 1184 470 1195 q 498 1159 492 1173 q 505 1128 505 1144 "},"o":{"x_min":52.90625,"x_max":779.28125,"ha":831,"o":"m 779 328 q 750 170 779 243 q 672 44 722 98 q 556 -38 623 -8 q 415 -69 490 -69 q 274 -40 339 -69 q 159 40 208 -12 q 81 166 109 92 q 52 328 52 239 q 81 492 52 419 q 159 618 109 566 q 274 699 208 670 q 415 727 339 727 q 556 697 490 727 q 672 614 623 667 q 750 487 722 560 q 779 328 779 415 m 636 330 q 623 428 636 379 q 585 518 611 478 q 516 583 558 558 q 415 608 474 608 q 316 583 357 608 q 248 518 274 558 q 209 428 221 478 q 197 330 197 379 q 210 231 197 281 q 250 142 223 182 q 319 78 278 103 q 415 52 360 52 q 514 78 472 52 q 583 142 556 103 q 623 231 610 182 q 636 330 636 281 "},"5":{"x_min":50.1875,"x_max":761.109375,"ha":818,"o":"m 760 312 q 729 171 758 233 q 651 66 701 109 q 532 0 601 23 q 379 -23 463 -23 q 253 0 314 -21 q 200 22 227 8 q 145 56 172 36 q 93 104 118 76 q 50 168 69 131 l 149 236 q 227 157 186 185 q 303 116 268 129 q 384 98 344 101 q 488 115 442 96 q 566 165 534 134 q 617 237 599 197 q 634 319 634 277 q 618 399 634 360 q 572 467 601 437 q 502 515 542 497 q 413 536 461 534 q 349 529 383 536 q 281 508 319 522 q 200 466 242 493 l 91 543 l 204 965 l 706 961 l 699 825 l 283 829 l 221 609 q 300 634 260 627 q 371 644 339 642 q 442 645 408 647 q 562 617 504 640 q 665 554 620 595 q 736 454 710 514 q 760 312 763 394 "},"ħ":{"x_min":-22.375,"x_max":836.25,"ha":913,"o":"m 252 1016 l 251 910 l 493 919 l 493 796 l 250 787 l 248 604 q 328 668 286 644 q 406 704 370 691 q 490 722 448 717 q 628 695 566 722 q 735 617 691 668 q 806 493 780 566 q 836 328 832 420 q 835 230 836 280 q 830 132 834 180 q 820 40 826 84 q 803 -37 813 -2 l 648 -26 q 676 100 668 38 q 688 210 685 162 q 690 319 691 267 q 665 442 687 392 q 612 525 643 493 q 542 572 580 558 q 467 587 504 587 q 389 564 429 583 q 317 514 356 548 q 245 417 278 480 l 241 -31 l 108 -34 l 99 783 l -22 779 l -22 902 l 98 906 l 96 1011 l 252 1016 "},"õ":{"x_min":52.90625,"x_max":779.28125,"ha":831,"o":"m 779 328 q 750 170 779 243 q 672 44 722 98 q 556 -38 623 -8 q 415 -69 490 -69 q 274 -40 339 -69 q 159 40 208 -12 q 81 166 109 92 q 52 328 52 239 q 81 492 52 419 q 159 618 109 566 q 274 699 208 670 q 415 727 339 727 q 556 697 490 727 q 672 614 623 667 q 750 487 722 560 q 779 328 779 415 m 636 330 q 623 428 636 379 q 585 518 611 478 q 516 583 558 558 q 415 608 474 608 q 316 583 357 608 q 248 518 274 558 q 209 428 221 478 q 197 330 197 379 q 210 231 197 281 q 250 142 223 182 q 319 78 278 103 q 415 52 360 52 q 514 78 472 52 q 583 142 556 103 q 623 231 610 182 q 636 330 636 281 m 674 1043 q 678 1013 676 1027 q 680 985 680 998 q 667 911 680 947 q 632 848 655 875 q 576 803 609 820 q 501 786 543 786 q 449 794 471 786 q 410 816 427 803 q 379 844 393 829 q 352 872 365 859 q 326 893 339 885 q 298 901 313 902 q 268 887 281 899 q 247 855 256 877 q 235 793 237 833 l 122 812 q 133 875 125 847 q 151 924 140 903 q 174 961 162 945 q 198 989 186 977 q 261 1026 227 1015 q 327 1028 299 1035 q 378 1007 355 1022 q 417 974 400 993 q 448 939 433 955 q 478 912 463 922 q 509 905 492 902 q 536 920 524 909 q 555 946 546 929 q 563 991 563 962 q 562 1015 563 1002 q 558 1040 561 1027 l 674 1043 "},",":{"x_min":82.0625,"x_max":259.765625,"ha":346,"o":"m 259 38 q 246 -37 258 0 q 216 -110 237 -71 q 158 -185 196 -150 l 82 -160 q 101 -128 92 -146 q 118 -90 109 -112 q 132 -37 126 -67 q 98 -6 111 -25 q 86 38 86 13 q 92 72 86 56 q 111 100 99 88 q 138 119 122 112 q 172 126 154 126 q 206 119 190 126 q 234 100 222 112 q 252 72 246 88 q 259 38 259 56 "},"d":{"x_min":52.90625,"x_max":815.21875,"ha":918,"o":"m 815 972 l 812 -27 l 673 -27 l 674 58 q 633 25 654 39 q 590 0 611 10 q 548 -17 569 -10 q 510 -29 528 -24 q 425 -41 467 -40 q 278 -13 346 -41 q 160 64 210 13 q 81 189 110 115 q 52 354 52 262 q 84 518 52 446 q 168 640 116 590 q 285 715 220 689 q 417 741 351 741 q 510 729 463 741 q 596 698 550 720 q 682 634 642 676 l 687 982 l 815 972 m 425 83 q 507 96 467 83 q 580 135 547 110 q 639 194 614 160 q 677 270 664 229 l 678 415 q 640 494 666 458 q 580 556 615 531 q 504 596 545 582 q 421 611 463 611 q 328 590 370 611 q 256 533 286 569 q 208 448 225 497 q 191 343 191 400 q 209 238 191 286 q 257 156 226 191 q 331 102 288 122 q 425 83 374 83 "},"\"":{"x_min":71.890625,"x_max":467.96875,"ha":536,"o":"m 467 959 l 421 644 l 330 644 l 294 959 l 467 959 m 245 973 l 198 658 l 108 658 l 71 973 l 245 973 "},"˙":{"x_min":0,"x_max":160.0625,"ha":160,"o":"m 160 900 q 153 868 160 883 q 136 843 147 853 q 110 825 125 832 q 79 819 95 819 q 48 825 63 819 q 23 843 33 832 q 6 868 12 853 q 0 900 0 883 q 6 931 0 916 q 23 956 12 945 q 48 973 33 967 q 79 979 63 979 q 110 973 95 979 q 136 956 125 967 q 153 931 147 945 q 160 900 160 916 "},"ê":{"x_min":51.546875,"x_max":786.0625,"ha":823,"o":"m 423 62 q 495 73 459 62 q 560 106 530 84 q 612 159 590 127 q 644 233 634 191 l 775 206 q 721 94 756 145 q 640 8 687 44 q 539 -46 594 -27 q 423 -66 484 -66 q 265 -39 334 -66 q 148 37 196 -12 q 76 156 101 86 q 51 312 51 226 q 80 471 51 397 q 159 598 109 544 q 277 684 209 653 q 423 715 345 715 q 556 688 494 715 q 667 612 619 660 q 746 497 715 563 q 786 355 777 432 l 198 267 q 222 181 203 219 q 270 116 241 143 q 339 76 300 90 q 423 62 378 62 m 611 442 l 607 455 q 536 560 581 522 q 423 598 491 598 q 361 589 395 598 q 295 555 327 579 q 238 492 263 531 q 202 393 212 452 l 611 442 m 609 846 l 534 760 l 380 895 l 255 753 l 161 813 l 373 1042 l 609 846 "},"„":{"x_min":82.0625,"x_max":482.21875,"ha":568,"o":"m 259 38 q 246 -37 258 0 q 216 -110 237 -71 q 158 -185 196 -150 l 82 -160 q 101 -128 92 -146 q 118 -90 109 -112 q 132 -37 126 -67 q 98 -6 111 -25 q 86 38 86 13 q 92 72 86 56 q 111 100 99 88 q 138 119 122 112 q 172 126 154 126 q 206 119 190 126 q 234 100 222 112 q 252 72 246 88 q 259 38 259 56 m 304 -160 q 324 -128 314 -146 q 340 -90 332 -112 q 354 -37 348 -67 q 320 -6 333 -25 q 308 38 308 13 q 315 72 308 56 q 333 100 322 88 q 361 119 345 112 q 394 126 377 126 q 428 119 413 126 q 456 100 444 112 q 475 72 468 88 q 482 38 482 56 q 469 -37 480 0 q 439 -110 459 -71 q 380 -185 418 -150 l 304 -160 "},"ľ":{"x_min":94.265625,"x_max":505.0625,"ha":568,"o":"m 366 -33 q 281 -16 318 -32 q 216 23 244 -1 q 168 80 188 48 q 134 144 148 111 q 94 319 102 221 l 112 1179 l 254 1179 q 247 957 250 1058 q 242 774 244 857 q 239 627 240 692 q 236 512 237 562 q 231 328 233 396 q 250 216 233 265 q 268 174 257 195 q 295 138 279 154 q 333 112 311 122 q 384 101 355 102 l 366 -33 m 505 959 q 494 897 503 929 q 471 839 487 871 q 424 779 454 807 l 363 801 q 378 826 371 811 q 392 856 385 838 q 403 898 399 874 q 376 923 386 906 q 366 959 366 940 q 371 987 366 974 q 386 1009 376 999 q 408 1024 395 1018 q 435 1029 420 1029 q 462 1024 449 1029 q 484 1009 475 1018 q 499 987 494 999 q 505 959 505 974 "},"Â":{"x_min":-2.71875,"x_max":1034.96875,"ha":1068,"o":"m 874 -38 q 834 98 855 30 q 790 236 813 166 l 244 212 q 196 82 219 147 q 151 -47 172 18 l -2 -26 q 209 478 92 229 q 457 969 325 726 l 647 966 q 859 486 763 731 q 1034 -15 956 242 l 874 -38 m 537 857 q 408 595 469 727 q 291 330 347 464 l 750 349 q 651 605 704 480 q 537 857 598 731 m 765 1106 l 690 1020 l 536 1155 l 411 1013 l 317 1073 l 529 1302 l 765 1106 "},"Į":{"x_min":67.828125,"x_max":387.265625,"ha":400,"o":"m 387 -209 q 301 -281 343 -261 q 225 -301 260 -301 q 166 -290 194 -301 q 116 -261 138 -280 q 81 -215 94 -242 q 67 -155 67 -188 q 71 -119 67 -139 q 83 -76 74 -99 q 106 -29 92 -54 q 143 23 121 -4 l 140 23 l 116 966 l 267 961 l 276 23 q 235 -15 252 3 q 207 -52 218 -35 q 190 -86 196 -70 q 183 -115 185 -102 q 187 -172 177 -146 q 198 -183 191 -178 q 212 -190 204 -187 q 231 -193 220 -193 q 273 -180 249 -193 q 328 -133 297 -168 l 387 -209 "},"ė":{"x_min":51.546875,"x_max":786.0625,"ha":823,"o":"m 423 62 q 495 73 459 62 q 560 106 530 84 q 612 159 590 127 q 644 233 634 191 l 775 206 q 721 94 756 145 q 640 8 687 44 q 539 -46 594 -27 q 423 -66 484 -66 q 265 -39 334 -66 q 148 37 196 -12 q 76 156 101 86 q 51 312 51 226 q 80 471 51 397 q 159 598 109 544 q 277 684 209 653 q 423 715 345 715 q 556 688 494 715 q 667 612 619 660 q 746 497 715 563 q 786 355 777 432 l 198 267 q 222 181 203 219 q 270 116 241 143 q 339 76 300 90 q 423 62 378 62 m 611 442 l 607 455 q 536 560 581 522 q 423 598 491 598 q 361 589 395 598 q 295 555 327 579 q 238 492 263 531 q 202 393 212 452 l 611 442 m 485 858 q 478 826 485 841 q 461 801 472 811 q 435 783 450 790 q 404 777 420 777 q 373 783 388 777 q 348 801 358 790 q 331 826 337 811 q 325 858 325 841 q 331 889 325 874 q 348 914 337 903 q 373 931 358 925 q 404 937 388 937 q 435 931 420 937 q 461 914 450 925 q 478 889 472 903 q 485 858 485 874 "},"Ţ":{"x_min":27.8125,"x_max":811.15625,"ha":836,"o":"m 811 979 l 808 849 l 491 837 l 501 -18 l 351 -21 l 351 832 l 30 819 l 27 962 l 811 979 m 489 -168 q 479 -229 488 -198 q 455 -288 471 -256 q 409 -348 439 -320 l 347 -326 q 363 -301 356 -316 q 377 -271 370 -289 q 388 -229 383 -252 q 361 -203 371 -219 q 351 -168 351 -187 q 356 -140 351 -153 q 371 -118 361 -128 q 393 -103 380 -109 q 420 -98 406 -98 q 469 -118 449 -98 q 489 -168 489 -138 "},"Í":{"x_min":116.65625,"x_max":417.046875,"ha":400,"o":"m 276 23 l 140 23 l 116 966 l 267 961 l 276 23 m 417 1227 l 246 1021 l 160 1070 l 280 1302 l 417 1227 "},"´":{"x_min":0,"x_max":257.046875,"ha":257,"o":"m 257 1011 l 86 805 l 0 854 l 120 1086 l 257 1011 "},"Ú":{"x_min":98,"x_max":874.953125,"ha":968,"o":"m 874 465 q 865 340 875 402 q 834 224 855 279 q 778 122 812 168 q 699 41 745 75 q 595 -11 653 7 q 465 -30 536 -30 q 339 -7 393 -30 q 244 53 284 14 q 176 143 204 92 q 132 250 149 194 q 107 365 115 307 q 98 476 99 423 q 101 623 96 543 q 113 782 104 691 q 141 976 122 873 l 288 955 q 263 826 273 888 q 248 708 254 763 q 241 608 243 653 q 240 530 240 562 q 243 445 240 492 q 255 350 246 398 q 281 256 264 301 q 324 174 297 210 q 391 117 352 139 q 484 95 430 95 q 586 121 541 95 q 663 195 632 147 q 712 311 695 243 q 727 465 729 380 q 719 611 726 533 q 702 767 714 679 q 670 952 691 854 l 815 972 q 848 768 836 860 q 866 607 859 675 q 874 465 872 529 m 682 1168 l 511 962 l 425 1011 l 545 1243 l 682 1168 "},"Ŷ":{"x_min":4.0625,"x_max":851.171875,"ha":880,"o":"m 851 965 l 512 302 l 512 -22 l 372 -30 l 383 305 l 4 951 l 164 969 l 451 448 l 697 969 l 851 965 m 663 1080 l 588 994 l 434 1129 l 309 987 l 215 1047 l 427 1276 l 663 1080 "},"ŝ":{"x_min":41.375,"x_max":722.3125,"ha":770,"o":"m 722 148 q 696 40 722 84 q 626 -30 670 -3 q 525 -71 582 -58 q 408 -87 469 -84 q 282 -74 345 -86 q 224 -61 255 -69 q 163 -40 194 -52 q 101 -11 132 -28 q 41 27 69 5 l 107 130 q 183 92 144 111 q 263 60 222 74 q 346 38 303 46 q 434 30 389 30 q 497 37 472 30 q 540 55 523 44 q 565 79 556 65 q 579 104 575 92 q 581 128 582 115 q 574 155 581 141 q 555 182 568 168 q 520 205 541 195 q 467 223 498 216 q 393 231 436 229 q 275 244 332 234 q 174 275 219 254 q 101 330 130 296 q 66 416 72 364 q 72 505 61 465 q 106 577 84 545 q 162 633 129 609 q 235 673 196 657 q 318 697 274 689 q 406 705 362 705 q 469 702 433 705 q 544 691 505 699 q 623 668 583 683 q 698 628 663 653 l 651 503 q 566 540 607 527 q 495 561 526 554 q 426 572 458 569 q 260 550 320 578 q 201 463 201 521 q 223 404 201 423 q 284 377 246 385 q 375 366 323 369 q 484 355 426 364 q 596 324 551 345 q 670 277 642 304 q 710 217 697 250 q 722 148 722 184 m 608 830 l 533 744 l 379 879 l 254 737 l 160 797 l 372 1026 l 608 830 "},"Ý":{"x_min":4.0625,"x_max":851.171875,"ha":880,"o":"m 851 965 l 512 302 l 512 -22 l 372 -30 l 383 305 l 4 951 l 164 969 l 451 448 l 697 969 l 851 965 m 635 1114 l 464 908 l 378 957 l 498 1189 l 635 1114 "},"Ĉ":{"x_min":55.609375,"x_max":984.78125,"ha":1019,"o":"m 984 177 q 904 87 950 127 q 806 18 859 46 q 692 -25 752 -10 q 568 -41 632 -41 q 431 -22 497 -41 q 309 30 366 -4 q 205 112 252 64 q 125 218 158 160 q 73 343 92 276 q 55 483 55 411 q 73 623 55 556 q 125 748 92 690 q 205 854 158 807 q 309 936 252 902 q 432 989 366 971 q 568 1008 497 1008 q 685 994 628 1008 q 792 956 741 981 q 887 895 843 931 q 966 815 931 859 l 862 730 q 734 834 809 796 q 568 873 658 873 q 421 842 489 873 q 301 758 352 811 q 220 635 249 706 q 190 483 190 564 q 220 331 190 402 q 301 207 249 260 q 421 123 352 154 q 568 92 489 92 q 659 104 615 92 q 742 137 704 115 q 815 187 781 158 q 874 254 849 217 l 984 177 m 776 1122 l 701 1036 l 547 1171 l 422 1029 l 328 1089 l 540 1318 l 776 1122 "},"̕":{"x_min":18.3125,"x_max":160.0625,"ha":178,"o":"m 160 959 q 149 897 158 929 q 126 839 142 871 q 79 779 109 807 l 18 801 q 33 826 26 811 q 47 856 40 838 q 58 898 54 874 q 31 923 41 906 q 21 959 21 940 q 26 987 21 974 q 41 1009 31 999 q 63 1024 50 1018 q 90 1029 75 1029 q 117 1024 104 1029 q 139 1009 130 1018 q 154 987 149 999 q 160 959 160 974 "},"ą":{"x_min":42.734375,"x_max":858.625,"ha":867,"o":"m 858 -291 q 815 -335 836 -317 q 773 -363 793 -352 q 733 -378 752 -374 q 695 -383 713 -383 q 637 -373 665 -383 q 587 -343 609 -362 q 552 -297 565 -324 q 539 -237 539 -270 q 542 -198 539 -219 q 556 -152 546 -177 q 583 -100 566 -128 q 626 -42 600 -73 l 636 52 q 473 -23 553 0 q 324 -47 394 -47 q 230 -34 276 -47 q 149 3 184 -22 q 93 70 114 29 q 71 165 71 110 q 88 263 71 220 q 132 340 104 307 q 200 397 161 373 q 283 436 238 421 q 376 458 327 451 q 473 465 425 465 q 556 461 518 465 q 625 453 595 458 q 603 519 616 486 q 570 578 590 552 q 521 621 550 604 q 451 637 492 637 q 391 629 425 637 q 316 601 357 621 q 227 545 276 581 q 124 454 179 510 l 42 554 q 167 653 107 615 q 279 714 227 692 q 377 744 332 736 q 458 752 422 752 q 569 731 520 752 q 655 673 618 710 q 717 586 692 636 q 759 479 743 536 q 783 360 775 421 q 790 237 790 298 q 782 97 790 172 q 759 -65 775 23 q 716 -99 734 -82 q 687 -132 699 -115 q 669 -164 676 -149 q 659 -193 662 -179 q 658 -254 651 -225 q 669 -265 662 -260 q 682 -272 674 -269 q 702 -275 691 -275 q 744 -262 720 -275 q 800 -215 768 -249 l 858 -291 m 645 204 q 647 271 647 238 q 644 340 648 304 q 574 356 611 350 q 501 362 537 362 q 382 348 440 362 q 284 307 325 334 q 222 240 242 280 q 213 151 201 201 q 250 94 223 110 q 316 78 278 78 q 401 91 356 78 q 492 123 447 104 q 577 164 537 143 q 645 204 617 186 "},"Ö":{"x_min":55.609375,"x_max":1081.765625,"ha":1137,"o":"m 1081 479 q 1063 340 1081 406 q 1011 215 1045 273 q 931 108 978 156 q 827 26 884 60 q 704 -27 769 -8 q 568 -46 638 -46 q 431 -27 497 -46 q 309 26 366 -8 q 205 108 252 60 q 125 215 158 156 q 73 340 92 273 q 55 479 55 406 q 73 619 55 552 q 125 744 92 686 q 205 850 158 803 q 309 932 252 898 q 432 985 366 967 q 568 1004 497 1004 q 704 985 638 1004 q 827 932 769 967 q 931 850 884 898 q 1011 744 978 803 q 1063 619 1045 686 q 1081 479 1081 552 m 947 479 q 933 582 947 533 q 895 676 920 632 q 836 755 870 719 q 759 816 801 790 q 669 855 717 841 q 568 869 620 869 q 421 838 489 869 q 301 754 352 807 q 220 631 249 701 q 190 479 190 560 q 220 327 190 398 q 301 203 249 256 q 421 119 352 150 q 568 88 489 88 q 669 102 620 88 q 759 142 717 116 q 836 203 801 167 q 895 282 870 238 q 933 375 920 325 q 947 479 947 425 m 815 1141 q 808 1109 815 1124 q 792 1084 802 1094 q 766 1066 781 1073 q 735 1060 752 1060 q 704 1066 719 1060 q 679 1084 690 1073 q 662 1109 668 1094 q 655 1141 655 1124 q 662 1172 655 1157 q 679 1197 668 1186 q 704 1214 690 1208 q 735 1220 719 1220 q 766 1214 752 1220 q 792 1197 781 1208 q 808 1172 802 1186 q 815 1141 815 1157 m 482 1141 q 475 1109 482 1124 q 458 1084 469 1094 q 432 1066 447 1073 q 401 1060 417 1060 q 370 1066 385 1060 q 345 1084 355 1073 q 328 1109 334 1094 q 322 1141 322 1124 q 328 1172 322 1157 q 345 1197 334 1186 q 370 1214 355 1208 q 401 1220 385 1220 q 432 1214 417 1220 q 458 1197 447 1208 q 475 1172 469 1186 q 482 1141 482 1157 "},"z":{"x_min":42.734375,"x_max":715.53125,"ha":773,"o":"m 715 -23 l 61 -51 l 42 88 l 529 554 l 82 537 l 80 673 l 693 690 l 704 543 l 216 84 l 710 111 l 715 -23 "},"™":{"x_min":95.625,"x_max":908.140625,"ha":993,"o":"m 908 523 l 826 507 l 780 784 q 744 668 763 725 q 710 554 726 611 l 626 547 l 543 777 q 522 647 533 714 q 502 519 512 580 l 417 533 l 494 937 l 571 937 l 665 669 l 748 934 l 833 935 l 908 523 m 423 935 l 423 855 l 301 851 l 305 524 l 219 523 l 219 848 l 95 844 l 95 929 l 423 935 "},"Ř":{"x_min":126.15625,"x_max":934.890625,"ha":992,"o":"m 934 609 q 913 514 932 557 q 863 435 894 470 q 790 373 832 400 q 702 326 749 345 l 900 15 l 759 -30 l 569 286 q 502 276 537 280 q 425 271 467 271 q 350 275 391 271 q 266 286 310 278 l 269 -1 l 126 -6 l 126 952 q 242 979 184 970 q 349 992 301 988 q 457 999 404 997 q 554 992 501 999 q 662 971 608 986 q 766 927 716 955 q 855 856 817 900 q 915 752 893 813 q 934 609 937 691 m 457 862 q 392 859 425 862 q 329 854 364 857 q 262 843 295 850 l 265 411 q 329 402 297 404 q 392 400 361 400 q 546 418 473 400 q 674 470 619 437 q 761 546 729 502 q 794 642 794 591 q 769 735 794 695 q 699 804 744 776 q 593 847 655 832 q 457 862 531 862 m 715 1244 l 482 1046 l 273 1273 l 367 1349 l 496 1198 l 633 1321 l 715 1244 "},"ã":{"x_min":42.734375,"x_max":790.125,"ha":867,"o":"m 626 -42 l 636 52 q 473 -23 553 0 q 324 -47 394 -47 q 230 -34 276 -47 q 149 3 184 -22 q 93 70 114 29 q 71 165 71 110 q 88 263 71 220 q 132 340 104 307 q 200 397 161 373 q 283 436 238 421 q 376 458 327 451 q 473 465 425 465 q 556 461 518 465 q 625 453 595 458 q 603 519 616 486 q 570 578 590 552 q 521 621 550 604 q 451 637 492 637 q 391 629 425 637 q 316 601 357 621 q 227 545 276 581 q 124 454 179 510 l 42 554 q 167 653 107 615 q 279 714 227 692 q 377 744 332 736 q 458 752 422 752 q 569 731 520 752 q 655 673 618 710 q 717 586 692 636 q 759 479 743 536 q 783 360 775 421 q 790 237 790 298 q 782 97 790 172 q 759 -65 775 23 l 626 -42 m 645 204 q 647 271 647 238 q 644 340 648 304 q 574 356 611 350 q 501 362 537 362 q 382 348 440 362 q 284 307 325 334 q 222 240 242 280 q 213 151 201 201 q 250 94 223 110 q 316 78 278 78 q 401 91 356 78 q 492 123 447 104 q 577 164 537 143 q 645 204 617 186 m 674 1065 q 678 1035 676 1049 q 680 1007 680 1020 q 667 933 680 969 q 632 870 655 897 q 576 825 609 842 q 501 808 543 808 q 449 816 471 808 q 410 838 427 825 q 379 866 393 851 q 352 894 365 881 q 326 915 339 907 q 298 923 313 924 q 268 909 281 921 q 247 877 256 899 q 235 815 237 855 l 122 834 q 133 897 125 869 q 151 946 140 925 q 174 983 162 967 q 198 1011 186 999 q 261 1048 227 1037 q 327 1050 299 1057 q 378 1029 355 1044 q 417 996 400 1015 q 448 961 433 977 q 478 934 463 944 q 509 927 492 924 q 536 942 524 931 q 555 968 546 951 q 563 1013 563 984 q 562 1037 563 1024 q 558 1062 561 1049 l 674 1065 "},"Ň":{"x_min":122.078125,"x_max":1020.71875,"ha":1143,"o":"m 872 225 l 861 966 l 1012 955 l 1020 23 l 874 12 l 267 737 l 276 5 l 134 0 l 122 969 l 265 976 l 872 225 m 792 1170 l 559 972 l 350 1199 l 444 1275 l 573 1124 l 710 1247 l 792 1170 "},"æ":{"x_min":42.734375,"x_max":1399.859375,"ha":1438,"o":"m 626 -42 l 640 55 q 475 -23 556 0 q 324 -47 394 -47 q 230 -34 276 -47 q 149 3 184 -22 q 93 70 114 29 q 71 165 71 110 q 88 263 71 220 q 132 340 104 307 q 200 397 161 373 q 283 436 238 421 q 376 458 327 451 q 473 465 425 465 q 564 461 522 465 q 634 451 605 457 q 612 520 625 486 q 579 579 599 554 q 529 621 558 605 q 457 637 499 637 q 394 629 429 637 q 318 601 360 621 q 228 545 276 581 q 124 454 179 510 l 42 554 q 171 650 109 613 q 288 708 233 687 q 392 736 344 729 q 476 743 439 743 q 563 731 525 743 q 632 695 601 719 q 687 636 662 672 q 734 551 711 600 q 793 619 760 588 q 864 671 826 649 q 947 704 903 692 q 1037 715 990 715 q 1170 688 1108 715 q 1281 612 1233 660 q 1360 497 1329 563 q 1399 355 1391 432 l 812 267 q 836 177 817 219 q 885 102 855 134 q 953 52 914 71 q 1037 34 992 34 q 1108 45 1073 34 q 1174 78 1144 56 q 1226 131 1203 99 q 1258 205 1248 163 l 1389 179 q 1335 67 1370 118 q 1254 -18 1300 16 q 1153 -74 1208 -54 q 1037 -94 1098 -94 q 894 -64 961 -94 q 775 23 827 -33 l 773 23 l 759 -65 l 626 -42 m 655 209 q 658 271 657 240 q 654 337 658 303 q 579 356 618 349 q 501 362 539 362 q 382 348 440 362 q 284 307 325 334 q 222 240 242 280 q 213 151 201 201 q 250 94 223 110 q 316 78 278 78 q 374 84 343 78 q 437 102 405 91 q 500 127 468 113 q 560 155 531 141 q 613 184 588 170 q 655 209 638 198 m 1037 598 q 975 589 1009 598 q 909 555 941 579 q 852 492 877 531 q 816 393 826 452 l 1224 442 l 1220 455 q 1149 560 1195 522 q 1037 598 1104 598 m 665 216 q 664 217 665 217 q 663 215 663 217 l 665 216 "},"ĩ":{"x_min":-104,"x_max":454.171875,"ha":349,"o":"m 251 665 q 247 487 249 568 q 244 339 246 406 q 242 220 243 273 q 240 128 241 168 q 238 -18 238 35 l 99 -18 q 103 155 101 54 q 106 368 104 242 q 111 659 109 493 l 251 665 m 448 1065 q 452 1035 450 1049 q 454 1007 454 1020 q 441 933 454 969 q 406 870 429 897 q 350 825 383 842 q 275 808 317 808 q 223 816 245 808 q 184 838 201 825 q 153 866 167 851 q 126 894 139 881 q 100 915 113 907 q 72 923 87 924 q 42 909 55 921 q 21 877 30 899 q 9 815 11 855 l -104 834 q -92 897 -100 869 q -74 946 -85 925 q -51 983 -63 967 q -27 1011 -39 999 q 35 1048 1 1037 q 101 1050 73 1057 q 152 1029 129 1044 q 191 996 174 1015 q 222 961 207 977 q 252 934 237 944 q 283 927 266 924 q 310 942 298 931 q 329 968 320 951 q 337 1013 337 984 q 336 1037 337 1024 q 332 1062 335 1049 l 448 1065 "},"É":{"x_min":119.375,"x_max":855.921875,"ha":916,"o":"m 662 365 l 259 345 l 262 133 l 848 166 l 851 33 l 134 -5 l 119 961 l 855 972 l 851 843 l 252 833 l 257 479 l 659 495 l 662 365 m 681 1217 l 510 1011 l 424 1060 l 544 1292 l 681 1217 "},"ŀ":{"x_min":94.265625,"x_max":519.109375,"ha":631,"o":"m 366 -33 q 281 -16 318 -32 q 216 23 244 -1 q 168 80 188 48 q 134 144 148 111 q 94 319 102 221 l 112 1179 l 254 1179 q 247 957 250 1058 q 242 774 244 857 q 239 627 240 692 q 236 512 237 562 q 231 328 233 396 q 250 216 233 265 q 268 174 257 195 q 295 138 279 154 q 333 112 311 122 q 384 101 355 102 l 366 -33 m 519 497 q 512 463 519 479 q 493 436 505 448 q 466 417 481 424 q 432 411 450 411 q 398 417 414 411 q 370 436 382 424 q 352 463 359 448 q 345 497 345 479 q 352 531 345 515 q 370 559 359 547 q 398 577 382 571 q 432 584 414 584 q 466 577 450 584 q 493 559 481 571 q 512 531 505 547 q 519 497 519 515 "},"~":{"x_min":90.203125,"x_max":729.140625,"ha":803,"o":"m 729 644 q 721 563 729 599 q 701 500 714 528 q 671 453 688 473 q 637 418 654 432 q 544 372 596 385 q 478 374 507 365 q 428 400 450 383 q 388 437 406 417 q 355 476 370 458 q 323 503 339 493 q 290 510 308 514 q 255 483 269 502 q 242 463 248 475 q 232 436 236 452 q 227 400 228 420 q 227 354 225 379 l 90 368 q 98 451 90 415 q 119 517 106 488 q 147 566 131 545 q 179 602 163 588 q 267 651 218 638 q 332 650 305 659 q 380 623 359 640 q 419 583 402 605 q 455 543 437 561 q 493 514 473 524 q 540 510 514 504 q 567 528 555 514 q 586 562 577 539 q 594 626 594 585 q 593 649 594 636 q 591 673 592 661 l 729 644 "},"Ċ":{"x_min":55.609375,"x_max":984.78125,"ha":1019,"o":"m 984 177 q 904 87 950 127 q 806 18 859 46 q 692 -25 752 -10 q 568 -41 632 -41 q 431 -22 497 -41 q 309 30 366 -4 q 205 112 252 64 q 125 218 158 160 q 73 343 92 276 q 55 483 55 411 q 73 623 55 556 q 125 748 92 690 q 205 854 158 807 q 309 936 252 902 q 432 989 366 971 q 568 1008 497 1008 q 685 994 628 1008 q 792 956 741 981 q 887 895 843 931 q 966 815 931 859 l 862 730 q 734 834 809 796 q 568 873 658 873 q 421 842 489 873 q 301 758 352 811 q 220 635 249 706 q 190 483 190 564 q 220 331 190 402 q 301 207 249 260 q 421 123 352 154 q 568 92 489 92 q 659 104 615 92 q 742 137 704 115 q 815 187 781 158 q 874 254 849 217 l 984 177 m 631 1158 q 624 1126 631 1141 q 607 1101 618 1111 q 581 1083 596 1090 q 550 1077 566 1077 q 519 1083 534 1077 q 494 1101 504 1090 q 477 1126 483 1111 q 471 1158 471 1141 q 477 1189 471 1174 q 494 1214 483 1203 q 519 1231 504 1225 q 550 1237 534 1237 q 581 1231 566 1237 q 607 1214 596 1225 q 624 1189 618 1203 q 631 1158 631 1174 "},"³":{"x_min":58.328125,"x_max":426.609375,"ha":504,"o":"m 426 592 q 418 542 426 569 q 389 495 410 516 q 332 459 368 473 q 240 445 296 444 q 166 466 201 448 q 135 485 151 474 q 105 513 120 497 q 79 551 91 529 q 58 602 66 573 l 160 630 q 173 594 164 611 q 195 566 183 578 q 220 548 207 554 q 244 540 233 541 q 270 541 257 539 q 296 549 284 543 q 316 564 308 554 q 324 591 324 575 q 317 625 325 612 q 297 644 309 638 q 273 653 286 651 q 254 654 261 655 q 232 653 244 654 q 174 649 209 652 l 174 746 q 206 744 192 744 q 229 742 219 743 q 247 741 240 741 q 283 748 268 741 q 308 764 299 754 q 321 785 317 774 q 326 803 326 795 q 323 819 326 810 q 313 836 320 828 q 291 850 305 845 q 257 855 278 855 q 220 845 236 854 q 194 820 206 838 q 180 772 182 803 l 80 781 q 113 866 93 834 q 157 915 133 897 q 205 938 180 932 q 252 946 229 944 q 308 941 278 946 q 364 920 339 935 q 407 877 390 905 q 425 805 425 849 q 416 766 423 786 q 398 730 410 749 q 365 697 387 712 q 411 649 396 677 q 426 592 426 621 "},"¡":{"x_min":98.34375,"x_max":263.828125,"ha":368,"o":"m 98 -276 l 133 559 l 238 562 l 263 -270 l 98 -276 m 109 741 q 115 771 109 757 q 132 794 122 784 q 156 810 142 805 q 185 816 170 816 q 215 810 201 816 q 239 794 229 805 q 255 771 249 784 q 261 741 261 757 q 255 712 261 726 q 239 688 249 698 q 215 671 229 677 q 185 665 201 665 q 156 671 170 665 q 132 688 142 677 q 115 712 122 698 q 109 741 109 726 "},"ẅ":{"x_min":46.125,"x_max":1000.375,"ha":1043,"o":"m 1000 685 l 865 -23 l 663 -29 l 544 469 l 380 -5 l 177 -21 l 46 682 l 185 693 l 288 123 l 490 693 l 620 685 l 758 108 l 849 690 l 1000 685 m 807 829 q 800 797 807 812 q 784 772 794 782 q 758 754 773 761 q 727 748 744 748 q 696 754 711 748 q 671 772 682 761 q 654 797 660 782 q 647 829 647 812 q 654 860 647 845 q 671 885 660 874 q 696 902 682 896 q 727 908 711 908 q 758 902 744 908 q 784 885 773 896 q 800 860 794 874 q 807 829 807 845 m 474 829 q 467 797 474 812 q 450 772 461 782 q 424 754 439 761 q 393 748 409 748 q 362 754 377 748 q 337 772 347 761 q 320 797 326 782 q 314 829 314 812 q 320 860 314 845 q 337 885 326 874 q 362 902 347 896 q 393 908 377 908 q 424 902 409 908 q 450 885 439 896 q 467 860 461 874 q 474 829 474 845 "},"[":{"x_min":113.9375,"x_max":461.1875,"ha":501,"o":"m 461 -181 l 113 -181 l 113 1175 l 461 1175 l 461 1044 l 255 1044 l 255 -55 l 461 -55 l 461 -181 "},"%":{"x_min":54.265625,"x_max":990.203125,"ha":1044,"o":"m 474 702 q 458 602 474 649 q 413 521 442 556 q 346 466 385 486 q 263 446 307 446 q 180 466 218 446 q 113 521 141 486 q 69 602 85 556 q 54 702 54 649 q 69 802 54 755 q 113 883 85 849 q 179 938 141 918 q 263 958 217 958 q 349 938 311 958 q 416 883 388 918 q 459 802 444 849 q 474 702 474 755 m 375 702 q 367 762 375 734 q 345 812 360 790 q 310 846 331 833 q 263 858 290 858 q 218 846 238 858 q 183 812 198 833 q 161 762 169 790 q 153 702 153 734 q 161 641 153 670 q 183 591 169 613 q 218 558 198 570 q 263 545 238 545 q 309 558 288 545 q 344 591 330 570 q 367 641 359 613 q 375 702 375 670 m 851 946 l 311 -12 l 212 9 l 733 966 l 851 946 m 990 237 q 973 137 990 184 q 929 56 957 90 q 862 1 900 21 q 779 -18 823 -18 q 695 1 733 -18 q 629 56 657 21 q 585 137 600 90 q 569 237 569 184 q 585 337 569 290 q 628 418 600 383 q 694 473 656 453 q 779 493 733 493 q 865 473 826 493 q 931 418 904 453 q 974 337 959 383 q 990 237 990 290 m 890 237 q 882 297 890 269 q 860 346 874 325 q 825 380 846 368 q 779 393 805 393 q 733 380 754 393 q 699 346 713 368 q 677 297 685 325 q 669 237 669 269 q 677 176 669 204 q 699 126 685 147 q 733 92 713 105 q 779 80 754 80 q 825 92 804 80 q 860 126 845 105 q 882 176 874 147 q 890 237 890 204 "},"P":{"x_min":126.15625,"x_max":970.3125,"ha":1003,"o":"m 969 609 q 943 494 967 545 q 882 403 920 442 q 793 336 843 364 q 686 290 743 308 q 569 264 630 272 q 451 255 509 255 q 366 258 413 255 q 266 270 320 261 l 269 -1 l 126 -6 l 126 952 q 264 988 198 976 q 381 1007 330 1001 q 493 1015 440 1013 q 590 1008 537 1015 q 697 983 643 1001 q 802 935 752 965 q 891 861 853 906 q 951 753 929 815 q 969 609 973 691 m 493 865 q 415 862 454 865 q 340 852 380 859 q 262 832 300 845 l 265 409 q 348 398 307 401 q 425 396 389 396 q 507 399 463 396 q 595 413 552 403 q 678 440 638 423 q 749 485 718 458 q 798 552 779 513 q 816 642 816 590 q 793 735 816 695 q 728 804 771 776 q 626 848 686 832 q 493 865 567 864 "},"∏":{"x_min":51.546875,"x_max":946.125,"ha":999,"o":"m 946 979 l 943 843 l 765 836 l 775 9 l 625 6 l 625 832 l 417 825 l 427 -18 l 278 -21 l 278 819 l 54 812 l 51 962 l 946 979 "},"_":{"x_min":87.484375,"x_max":628.03125,"ha":718,"o":"m 628 -200 l 91 -215 l 87 -73 l 628 -58 l 628 -200 "},"Ŕ":{"x_min":126.15625,"x_max":934.890625,"ha":992,"o":"m 934 609 q 913 514 932 557 q 863 435 894 470 q 790 373 832 400 q 702 326 749 345 l 900 15 l 759 -30 l 569 286 q 502 276 537 280 q 425 271 467 271 q 350 275 391 271 q 266 286 310 278 l 269 -1 l 126 -6 l 126 952 q 242 979 184 970 q 349 992 301 988 q 457 999 404 997 q 554 992 501 999 q 662 971 608 986 q 766 927 716 955 q 855 856 817 900 q 915 752 893 813 q 934 609 937 691 m 457 862 q 392 859 425 862 q 329 854 364 857 q 262 843 295 850 l 265 411 q 329 402 297 404 q 392 400 361 400 q 546 418 473 400 q 674 470 619 437 q 761 546 729 502 q 794 642 794 591 q 769 735 794 695 q 699 804 744 776 q 593 847 655 832 q 457 862 531 862 m 713 1243 l 542 1037 l 456 1086 l 576 1318 l 713 1243 "},"ñ":{"x_min":92.921875,"x_max":763.671875,"ha":859,"o":"m 118 -50 q 110 161 113 66 q 104 330 107 255 q 100 461 101 404 q 96 560 98 518 q 92 704 94 657 l 247 706 l 250 511 q 301 584 272 550 q 362 644 329 618 q 433 687 396 671 q 512 706 471 704 q 602 697 564 710 q 668 663 640 685 q 712 612 695 642 q 740 551 730 583 q 755 489 750 520 q 760 432 759 457 q 763 197 765 315 q 758 -47 760 79 l 619 -42 q 629 175 624 66 q 628 396 633 284 q 626 427 628 408 q 618 468 624 446 q 602 511 613 490 q 576 549 592 533 q 536 573 560 564 q 482 576 513 581 q 373 498 428 568 q 254 293 318 427 q 258 119 257 183 q 261 21 260 54 q 263 -31 263 -18 l 118 -50 m 686 1032 q 690 1002 688 1016 q 692 974 692 987 q 679 900 692 936 q 644 837 667 864 q 588 792 621 809 q 513 775 555 775 q 461 783 483 775 q 422 805 439 792 q 391 833 405 818 q 364 861 377 848 q 338 882 351 874 q 310 890 325 891 q 280 876 293 888 q 259 844 268 866 q 247 782 249 822 l 134 801 q 145 864 137 836 q 163 913 152 892 q 186 950 174 934 q 210 978 198 966 q 273 1015 239 1004 q 339 1017 311 1024 q 390 996 367 1011 q 429 963 412 982 q 460 928 445 944 q 490 901 475 911 q 521 894 504 891 q 548 909 536 898 q 567 935 558 918 q 575 980 575 951 q 574 1004 575 991 q 570 1029 573 1016 l 686 1032 "},"‚":{"x_min":82.0625,"x_max":259.765625,"ha":346,"o":"m 259 38 q 246 -37 258 0 q 216 -110 237 -71 q 158 -185 196 -150 l 82 -160 q 101 -128 92 -146 q 118 -90 109 -112 q 132 -37 126 -67 q 98 -6 111 -25 q 86 38 86 13 q 92 72 86 56 q 111 100 99 88 q 138 119 122 112 q 172 126 154 126 q 206 119 190 126 q 234 100 222 112 q 252 72 246 88 q 259 38 259 56 "},"Æ":{"x_min":0,"x_max":1394.421875,"ha":1454,"o":"m 1201 365 l 798 345 l 801 133 l 1387 166 l 1390 33 l 673 -5 l 669 230 l 275 212 q 205 79 238 144 q 143 -47 171 13 l 0 -26 q 67 113 29 37 q 150 268 106 188 q 240 428 193 347 q 331 583 286 508 q 417 724 376 658 q 489 841 457 790 q 541 924 520 892 q 567 963 562 956 l 1394 972 l 1390 843 l 791 833 l 796 479 l 1198 495 l 1201 365 m 659 858 q 500 607 583 742 q 340 331 418 472 l 668 344 l 659 858 "},"ğ":{"x_min":52.90625,"x_max":816.578125,"ha":917,"o":"m 816 751 l 812 -27 q 800 -115 811 -71 q 768 -200 790 -159 q 715 -277 747 -241 q 643 -342 684 -314 q 551 -388 602 -370 q 440 -411 500 -406 q 285 -394 358 -413 q 222 -371 254 -385 q 160 -335 189 -357 q 105 -282 130 -313 q 63 -209 80 -251 l 194 -152 q 225 -202 207 -181 q 265 -238 244 -223 q 308 -261 286 -252 q 351 -274 330 -269 q 455 -278 400 -284 q 538 -248 503 -268 q 597 -205 573 -229 q 637 -154 621 -181 q 661 -103 652 -127 q 673 -58 670 -78 q 676 -27 676 -38 l 676 61 q 591 1 635 22 q 510 -28 548 -18 q 425 -41 467 -40 q 278 -13 346 -41 q 160 64 210 13 q 81 189 110 115 q 52 354 52 262 q 84 518 52 446 q 168 640 116 590 q 285 715 220 689 q 417 741 351 741 q 510 721 463 736 q 596 685 550 708 q 682 620 642 661 l 683 755 l 816 751 m 425 88 q 512 104 470 88 q 588 148 554 120 q 646 215 622 176 q 678 301 670 254 l 678 389 q 647 477 671 438 q 587 545 622 517 q 509 590 552 574 q 421 605 465 605 q 330 585 372 605 q 260 530 289 565 q 213 446 230 495 q 197 343 197 398 q 214 240 197 287 q 261 160 231 193 q 333 107 291 126 q 425 88 375 88 m 637 1055 q 628 972 638 1008 q 603 909 619 936 q 567 863 587 882 q 526 832 547 844 q 413 798 476 803 q 297 825 349 799 q 254 854 275 836 q 217 898 233 872 q 190 960 200 924 q 179 1043 179 996 l 299 1051 q 304 1001 299 1022 q 317 965 309 980 q 335 940 325 950 q 355 924 345 930 q 409 910 379 909 q 461 932 439 914 q 480 950 471 939 q 495 977 488 961 q 503 1014 501 993 q 503 1061 506 1034 l 637 1055 "},"Ū":{"x_min":98,"x_max":874.953125,"ha":968,"o":"m 874 465 q 865 340 875 402 q 834 224 855 279 q 778 122 812 168 q 699 41 745 75 q 595 -11 653 7 q 465 -30 536 -30 q 339 -7 393 -30 q 244 53 284 14 q 176 143 204 92 q 132 250 149 194 q 107 365 115 307 q 98 476 99 423 q 101 623 96 543 q 113 782 104 691 q 141 976 122 873 l 288 955 q 263 826 273 888 q 248 708 254 763 q 241 608 243 653 q 240 530 240 562 q 243 445 240 492 q 255 350 246 398 q 281 256 264 301 q 324 174 297 210 q 391 117 352 139 q 484 95 430 95 q 586 121 541 95 q 663 195 632 147 q 712 311 695 243 q 727 465 729 380 q 719 611 726 533 q 702 767 714 679 q 670 952 691 854 l 815 972 q 848 768 836 860 q 866 607 859 675 q 874 465 872 529 m 752 1193 l 748 1051 l 215 1048 l 215 1185 l 752 1193 "},"ª":{"x_min":80.703125,"x_max":562.25,"ha":660,"o":"m 433 451 l 440 495 q 350 458 394 470 q 269 446 307 446 q 207 455 237 446 q 154 481 177 464 q 118 525 132 499 q 104 587 104 552 q 126 674 104 638 q 183 735 147 711 q 264 770 219 758 q 356 781 309 781 q 400 780 379 781 q 437 776 420 778 q 424 807 432 792 q 406 833 417 822 q 381 850 395 844 q 348 857 366 857 q 313 852 333 857 q 267 834 293 847 q 212 798 242 821 q 148 740 183 775 l 80 820 q 165 885 124 859 q 242 924 206 910 q 307 943 278 938 q 360 948 337 948 q 455 919 416 948 q 517 844 493 890 q 551 742 541 798 q 562 632 562 686 q 541 433 562 554 l 433 451 m 554 295 l 87 280 l 83 380 l 554 396 l 554 295 m 455 657 q 455 668 455 662 q 454 680 455 674 q 413 689 433 687 q 376 691 393 691 q 310 684 342 691 q 256 662 279 676 q 221 628 233 649 q 216 581 210 608 q 233 556 221 564 q 263 548 246 548 q 313 556 286 548 q 367 575 340 564 q 417 597 394 586 q 454 615 440 609 q 455 637 455 626 q 455 657 455 647 "},"Œ":{"x_min":55.609375,"x_max":1683.34375,"ha":1743,"o":"m 1490 365 l 1087 345 l 1090 133 l 1676 166 l 1679 33 l 962 -5 l 959 140 q 880 63 924 97 q 787 4 836 28 q 682 -32 737 -19 q 568 -46 627 -46 q 431 -27 497 -46 q 309 26 366 -8 q 205 108 252 60 q 125 215 158 156 q 73 340 92 273 q 55 479 55 406 q 73 619 55 552 q 125 744 92 686 q 205 850 158 803 q 309 932 252 898 q 432 985 366 967 q 568 1004 497 1004 q 677 992 624 1004 q 779 957 731 980 q 870 903 828 935 q 948 830 913 870 l 947 961 l 1683 972 l 1679 843 l 1080 833 l 1084 479 l 1487 495 l 1490 365 m 947 479 q 933 582 947 533 q 895 676 920 632 q 836 755 870 719 q 759 816 801 790 q 669 855 717 841 q 568 869 620 869 q 421 838 489 869 q 301 754 352 807 q 220 631 249 701 q 190 479 190 560 q 220 327 190 398 q 301 203 249 256 q 421 119 352 150 q 568 88 489 88 q 669 102 620 88 q 759 142 717 116 q 836 203 801 167 q 895 282 870 238 q 933 375 920 325 q 947 479 947 425 "},"Ą":{"x_min":-2.71875,"x_max":1080.40625,"ha":1068,"o":"m 1080 -255 q 1037 -299 1058 -281 q 994 -327 1015 -316 q 955 -342 974 -338 q 918 -347 935 -347 q 859 -337 887 -347 q 809 -307 831 -326 q 774 -261 787 -288 q 760 -201 760 -234 q 765 -159 760 -182 q 781 -110 769 -136 q 812 -54 792 -84 q 861 6 831 -25 q 826 121 844 64 q 790 236 809 178 l 244 212 q 196 82 219 147 q 151 -47 172 18 l -2 -26 q 209 478 92 229 q 457 969 325 726 l 647 966 q 859 486 763 731 q 1034 -15 956 242 q 969 -48 996 -31 q 923 -82 942 -65 q 895 -116 905 -99 q 880 -147 885 -132 q 880 -218 868 -183 q 891 -228 885 -224 q 905 -235 897 -232 q 925 -238 913 -238 q 966 -226 942 -238 q 1022 -179 990 -213 l 1080 -255 m 537 857 q 408 595 469 727 q 291 330 347 464 l 750 349 q 651 605 704 480 q 537 857 598 731 "},"T":{"x_min":27.8125,"x_max":811.15625,"ha":836,"o":"m 811 979 l 808 849 l 491 837 l 501 -18 l 351 -21 l 351 832 l 30 819 l 27 962 l 811 979 "},"š":{"x_min":41.375,"x_max":722.3125,"ha":770,"o":"m 722 148 q 696 40 722 84 q 626 -30 670 -3 q 525 -71 582 -58 q 408 -87 469 -84 q 282 -74 345 -86 q 224 -61 255 -69 q 163 -40 194 -52 q 101 -11 132 -28 q 41 27 69 5 l 107 130 q 183 92 144 111 q 263 60 222 74 q 346 38 303 46 q 434 30 389 30 q 497 37 472 30 q 540 55 523 44 q 565 79 556 65 q 579 104 575 92 q 581 128 582 115 q 574 155 581 141 q 555 182 568 168 q 520 205 541 195 q 467 223 498 216 q 393 231 436 229 q 275 244 332 234 q 174 275 219 254 q 101 330 130 296 q 66 416 72 364 q 72 505 61 465 q 106 577 84 545 q 162 633 129 609 q 235 673 196 657 q 318 697 274 689 q 406 705 362 705 q 469 702 433 705 q 544 691 505 699 q 623 668 583 683 q 698 628 663 653 l 651 503 q 566 540 607 527 q 495 561 526 554 q 426 572 458 569 q 260 550 320 578 q 201 463 201 521 q 223 404 201 423 q 284 377 246 385 q 375 366 323 369 q 484 355 426 364 q 596 324 551 345 q 670 277 642 304 q 710 217 697 250 q 722 148 722 184 m 606 945 l 373 747 l 164 974 l 258 1050 l 387 899 l 524 1022 l 606 945 "},"Þ":{"x_min":116.65625,"x_max":959.6875,"ha":993,"o":"m 269 840 q 349 853 311 849 q 417 860 387 858 q 483 862 452 863 q 580 856 527 862 q 685 835 632 851 q 787 794 738 820 q 875 727 836 768 q 936 630 913 687 q 959 498 959 574 q 936 384 959 434 q 874 297 913 335 q 784 232 835 259 q 674 189 732 206 q 557 165 617 172 q 441 158 497 158 q 365 160 408 158 q 275 170 322 163 l 276 -31 l 140 -31 l 116 1008 l 267 1003 l 269 840 m 483 712 q 440 712 464 712 q 387 709 415 711 q 330 703 360 707 q 270 693 300 699 l 273 309 q 346 300 309 303 q 413 298 382 298 q 486 301 445 298 q 572 311 528 303 q 657 334 615 320 q 733 370 699 347 q 786 426 766 394 q 807 503 807 459 q 784 594 807 556 q 719 658 761 632 q 617 697 676 684 q 483 712 557 710 "},"j":{"x_min":-118.015625,"x_max":284.859375,"ha":349,"o":"m 284 904 q 277 866 284 884 q 256 836 269 849 q 226 815 243 823 q 189 808 208 808 q 151 815 169 808 q 120 836 133 823 q 99 866 107 849 q 91 904 91 884 q 99 942 91 924 q 120 972 107 959 q 151 993 133 986 q 189 1001 169 1001 q 226 993 208 1001 q 256 972 243 986 q 277 942 269 959 q 284 904 284 924 m 247 662 q 245 473 246 558 q 243 319 244 387 q 242 197 243 250 q 242 105 242 144 q 241 -35 241 12 q 235 -112 240 -71 q 216 -194 230 -153 q 177 -271 202 -234 q 112 -337 152 -309 q 15 -382 72 -366 q -118 -398 -40 -399 l -109 -245 q -41 -242 -71 -249 q 9 -221 -12 -235 q 47 -187 31 -206 q 73 -147 63 -168 q 101 -33 96 -98 q 104 141 103 39 q 106 360 105 229 q 107 668 107 491 l 247 662 "},"1":{"x_min":21.03125,"x_max":422.53125,"ha":545,"o":"m 422 980 l 411 -13 l 261 -19 l 287 872 l 96 720 l 21 819 l 269 999 l 422 980 "},"›":{"x_min":51.546875,"x_max":511.375,"ha":555,"o":"m 511 348 l 143 42 l 51 149 l 319 355 l 86 552 l 172 653 l 511 348 "},"<":{"x_min":47.46875,"x_max":661.265625,"ha":729,"o":"m 661 130 l 576 6 l 47 445 l 544 891 l 632 783 l 238 453 l 661 130 "},"t":{"x_min":15.59375,"x_max":651.765625,"ha":659,"o":"m 393 976 l 388 673 l 651 682 l 641 555 l 387 548 l 381 -42 l 238 -46 l 250 544 l 15 539 l 18 663 l 252 670 l 258 967 l 393 976 "},"¬":{"x_min":91.5625,"x_max":641.59375,"ha":739,"o":"m 641 280 l 512 278 l 518 472 l 91 467 l 96 592 l 633 588 l 641 280 "},"ù":{"x_min":86.140625,"x_max":775.203125,"ha":868,"o":"m 620 -48 l 617 145 q 567 70 595 105 q 505 7 538 34 q 434 -34 472 -18 q 355 -48 396 -50 q 250 -25 294 -46 q 177 30 206 -4 q 129 110 147 65 q 101 207 111 156 q 89 311 92 258 q 86 415 86 364 q 92 557 86 485 q 109 705 98 630 l 248 701 q 234 550 238 617 q 230 432 230 482 q 231 373 230 408 q 236 298 231 338 q 250 220 240 259 q 277 151 259 181 q 320 105 294 121 q 385 94 347 88 q 494 166 438 101 q 613 364 551 230 q 610 536 611 472 q 607 634 608 600 q 605 690 606 674 l 751 706 q 758 496 755 590 q 764 327 761 402 q 768 195 767 252 q 771 97 770 139 q 775 -46 774 0 l 620 -48 m 476 774 l 390 725 l 207 907 l 334 1018 l 476 774 "},"ĉ":{"x_min":50.1875,"x_max":803.015625,"ha":842,"o":"m 803 508 l 690 440 l 689 444 q 646 506 671 478 q 590 553 621 533 q 523 582 558 572 q 448 592 487 592 q 344 571 393 592 q 260 514 296 550 q 202 428 223 477 q 181 323 181 379 q 202 219 181 268 q 260 134 223 170 q 344 76 296 97 q 448 55 393 55 q 518 65 484 55 q 582 91 552 74 q 638 133 613 109 q 680 189 663 158 l 683 193 l 801 126 l 800 122 q 735 42 773 78 q 652 -17 697 7 q 554 -56 606 -43 q 448 -70 502 -70 q 300 -40 372 -70 q 173 42 229 -10 q 83 166 117 94 q 50 323 50 238 q 64 423 50 374 q 103 516 78 472 q 165 598 128 560 q 245 662 201 635 q 341 704 289 689 q 448 719 392 719 q 561 705 507 719 q 659 664 614 691 q 741 598 705 637 q 801 511 777 560 l 803 508 m 644 849 l 569 763 l 415 898 l 290 756 l 196 816 l 408 1045 l 644 849 "},"ï":{"x_min":-12.203125,"x_max":369.625,"ha":349,"o":"m 369 804 q 363 772 369 787 q 346 747 357 758 q 321 730 335 736 q 290 723 307 723 q 258 730 273 723 q 233 747 244 736 q 216 772 222 758 q 209 804 209 787 q 216 835 209 820 q 233 860 222 849 q 258 877 244 871 q 290 883 273 883 q 321 877 307 883 q 346 860 335 871 q 363 835 357 849 q 369 804 369 820 m 147 804 q 140 772 147 787 q 123 747 134 758 q 98 730 112 736 q 66 723 83 723 q 35 730 50 723 q 11 747 21 736 q -5 772 0 758 q -12 804 -12 787 q -5 835 -12 820 q 11 860 0 849 q 35 877 21 871 q 66 883 50 883 q 98 877 83 883 q 123 860 112 871 q 140 835 134 849 q 147 804 147 820 m 251 665 q 247 487 249 568 q 244 339 246 406 q 242 220 243 273 q 240 128 241 168 q 238 -18 238 35 l 99 -18 q 103 155 101 54 q 106 368 104 242 q 111 659 109 493 l 251 665 "},"ī":{"x_min":-94,"x_max":443.828125,"ha":349,"o":"m 251 665 q 247 487 249 568 q 244 339 246 406 q 242 220 243 273 q 240 128 241 168 q 238 -18 238 35 l 99 -18 q 103 155 101 54 q 106 368 104 242 q 111 659 109 493 l 251 665 m 443 881 l 439 739 l -94 736 l -94 873 l 443 881 "},"Ò":{"x_min":55.609375,"x_max":1081.765625,"ha":1137,"o":"m 1081 479 q 1063 340 1081 406 q 1011 215 1045 273 q 931 108 978 156 q 827 26 884 60 q 704 -27 769 -8 q 568 -46 638 -46 q 431 -27 497 -46 q 309 26 366 -8 q 205 108 252 60 q 125 215 158 156 q 73 340 92 273 q 55 479 55 406 q 73 619 55 552 q 125 744 92 686 q 205 850 158 803 q 309 932 252 898 q 432 985 366 967 q 568 1004 497 1004 q 704 985 638 1004 q 827 932 769 967 q 931 850 884 898 q 1011 744 978 803 q 1063 619 1045 686 q 1081 479 1081 552 m 947 479 q 933 582 947 533 q 895 676 920 632 q 836 755 870 719 q 759 816 801 790 q 669 855 717 841 q 568 869 620 869 q 421 838 489 869 q 301 754 352 807 q 220 631 249 701 q 190 479 190 560 q 220 327 190 398 q 301 203 249 256 q 421 119 352 150 q 568 88 489 88 q 669 102 620 88 q 759 142 717 116 q 836 203 801 167 q 895 282 870 238 q 933 375 920 325 q 947 479 947 425 m 537 1091 l 451 1042 l 268 1224 l 395 1335 l 537 1091 "},"Ď":{"x_min":115.296875,"x_max":990.203125,"ha":1049,"o":"m 990 498 q 957 327 990 403 q 868 191 924 250 q 737 90 812 132 q 580 21 663 48 q 411 -18 497 -6 q 245 -31 325 -31 q 191 -30 218 -31 q 141 -25 165 -29 l 115 982 q 217 988 168 986 q 308 990 265 990 q 463 984 383 990 q 619 960 543 978 q 762 909 695 942 q 880 821 830 876 q 960 687 931 767 q 990 498 990 608 m 862 505 q 840 624 860 571 q 785 718 819 677 q 703 788 750 758 q 602 836 656 817 q 488 864 548 855 q 368 873 428 873 q 313 871 342 873 q 254 866 284 870 l 275 99 q 298 98 286 98 q 322 98 310 98 q 457 110 389 98 q 584 146 524 122 q 697 205 645 170 q 786 285 748 240 q 844 385 823 330 q 862 505 864 440 m 744 1244 l 511 1046 l 302 1273 l 396 1349 l 525 1198 l 662 1321 l 744 1244 "},"&":{"x_min":71.890625,"x_max":848.453125,"ha":871,"o":"m 848 359 q 776 230 813 286 q 699 130 738 174 q 733 89 716 109 q 763 49 749 68 q 789 16 777 31 q 809 -8 801 1 l 711 -75 l 616 48 q 528 -11 569 10 q 456 -45 487 -33 q 388 -63 419 -59 q 259 -53 317 -71 q 159 0 200 -35 q 94 83 117 34 q 71 187 71 132 q 90 283 71 238 q 140 369 109 328 q 207 444 170 409 q 282 512 244 480 q 223 629 240 578 q 206 718 206 679 q 222 792 206 758 q 264 851 237 826 q 326 889 290 875 q 404 902 362 902 q 463 895 434 902 q 517 871 493 887 q 560 830 542 855 q 585 769 578 805 q 584 689 594 727 q 553 617 575 651 q 500 551 531 583 q 433 489 468 519 q 528 354 479 419 q 630 221 577 288 q 692 304 661 258 q 756 408 724 350 l 848 359 m 198 174 q 211 120 198 145 q 245 78 224 96 q 294 51 267 61 q 351 41 322 41 q 443 63 394 41 q 551 136 493 84 q 426 305 479 232 q 348 417 374 379 q 300 373 326 400 q 251 313 274 345 q 213 245 229 280 q 198 174 198 209 m 328 718 q 342 657 330 689 q 373 587 354 625 q 415 623 396 606 q 446 658 433 641 q 465 693 459 675 q 469 730 471 710 q 460 759 467 747 q 444 778 454 771 q 423 790 435 786 q 400 794 412 794 q 372 789 385 794 q 349 775 359 784 q 333 751 339 765 q 328 718 327 737 "},"˝":{"x_min":0,"x_max":626.671875,"ha":627,"o":"m 626 1064 l 349 805 l 263 854 l 465 1150 l 626 1064 m 327 1080 l 86 805 l 0 854 l 177 1166 l 327 1080 "},"I":{"x_min":116.65625,"x_max":276.71875,"ha":400,"o":"m 276 23 l 140 23 l 116 966 l 267 961 l 276 23 "},"G":{"x_min":55.609375,"x_max":984.78125,"ha":1050,"o":"m 984 177 q 904 87 950 127 q 806 18 859 46 q 692 -25 752 -10 q 568 -41 632 -41 q 431 -22 497 -41 q 309 30 366 -4 q 205 112 252 64 q 125 218 158 160 q 73 343 92 276 q 55 483 55 411 q 73 623 55 556 q 125 748 92 690 q 205 854 158 807 q 309 936 252 902 q 432 989 366 971 q 568 1008 497 1008 q 685 994 628 1008 q 792 956 741 981 q 887 895 843 931 q 966 815 931 859 l 862 730 q 734 834 809 796 q 568 873 658 873 q 421 842 489 873 q 301 758 352 811 q 220 635 249 706 q 190 483 190 564 q 220 331 190 402 q 301 207 249 260 q 421 123 352 154 q 568 92 489 92 q 721 125 650 92 q 844 216 792 158 l 841 360 l 426 344 l 426 486 l 973 503 l 984 177 "},"`":{"x_min":0,"x_max":269.25,"ha":269,"o":"m 269 854 l 183 805 l 0 987 l 127 1098 l 269 854 "},"·":{"x_min":87.484375,"x_max":261.109375,"ha":349,"o":"m 261 497 q 254 463 261 479 q 235 436 247 448 q 208 417 223 424 q 174 411 192 411 q 140 417 156 411 q 112 436 124 424 q 94 463 101 448 q 87 497 87 479 q 94 531 87 515 q 112 559 101 547 q 140 577 124 571 q 174 584 156 584 q 208 577 192 584 q 235 559 223 571 q 254 531 247 547 q 261 497 261 515 "},"ŏ":{"x_min":52.90625,"x_max":779.28125,"ha":831,"o":"m 779 328 q 750 170 779 243 q 672 44 722 98 q 556 -38 623 -8 q 415 -69 490 -69 q 274 -40 339 -69 q 159 40 208 -12 q 81 166 109 92 q 52 328 52 239 q 81 492 52 419 q 159 618 109 566 q 274 699 208 670 q 415 727 339 727 q 556 697 490 727 q 672 614 623 667 q 750 487 722 560 q 779 328 779 415 m 636 330 q 623 428 636 379 q 585 518 611 478 q 516 583 558 558 q 415 608 474 608 q 316 583 357 608 q 248 518 274 558 q 209 428 221 478 q 197 330 197 379 q 210 231 197 281 q 250 142 223 182 q 319 78 278 103 q 415 52 360 52 q 514 78 472 52 q 583 142 556 103 q 623 231 610 182 q 636 330 636 281 m 642 1052 q 633 969 643 1005 q 608 906 624 933 q 572 860 592 879 q 531 829 552 841 q 418 795 481 800 q 302 822 354 796 q 259 851 280 833 q 222 895 238 869 q 195 957 205 921 q 184 1040 184 993 l 304 1048 q 309 998 304 1019 q 322 962 314 977 q 340 937 330 947 q 360 921 350 927 q 414 907 384 906 q 466 929 444 911 q 485 947 476 936 q 500 974 493 958 q 508 1011 506 990 q 508 1058 511 1031 l 642 1052 "},"¿":{"x_min":56.96875,"x_max":719.59375,"ha":773,"o":"m 388 -254 q 301 -242 343 -254 q 222 -209 259 -231 q 155 -157 185 -187 q 102 -89 124 -126 q 68 -7 80 -51 q 56 86 56 37 q 62 155 56 120 q 82 225 68 190 q 120 292 96 259 q 180 355 143 325 q 225 389 201 373 q 272 424 249 406 q 317 462 296 442 q 351 505 337 482 q 372 558 366 529 q 372 623 378 588 l 494 623 q 499 594 497 609 q 501 568 501 580 q 487 494 501 526 q 452 434 474 461 q 401 383 430 406 q 344 337 373 360 q 286 289 314 314 q 236 236 258 265 q 200 172 214 207 q 187 94 187 138 q 202 8 187 50 q 244 -66 217 -33 q 311 -119 271 -99 q 400 -139 351 -139 q 481 -121 445 -139 q 541 -72 516 -103 q 578 -2 565 -42 q 591 80 591 37 q 590 113 591 96 q 585 149 589 130 l 706 168 q 716 122 714 144 q 719 78 719 99 q 695 -50 719 10 q 627 -155 671 -110 q 522 -227 583 -201 q 388 -254 461 -254 m 345 791 q 351 820 345 807 q 367 845 357 834 q 391 861 377 855 q 421 866 405 866 q 450 861 436 866 q 474 845 464 855 q 491 820 484 834 q 497 791 497 807 q 491 761 497 775 q 474 737 484 748 q 450 721 464 727 q 421 715 436 715 q 391 721 405 715 q 367 737 377 727 q 351 761 357 748 q 345 791 345 775 "},"ý":{"x_min":-5.421875,"x_max":726.375,"ha":762,"o":"m 726 686 q 660 493 690 580 q 607 335 631 405 q 564 209 583 264 q 531 113 545 154 q 479 -35 498 16 q 447 -121 465 -75 q 403 -210 430 -166 q 342 -297 377 -255 q 261 -372 307 -339 q 155 -425 215 -404 q 21 -450 95 -446 l -5 -318 q 73 -315 36 -323 q 142 -291 110 -307 q 200 -250 173 -274 q 249 -200 227 -227 q 288 -146 271 -174 q 318 -95 305 -119 l 31 663 l 187 685 l 387 87 q 425 205 403 137 q 472 352 447 274 q 523 517 497 431 q 575 687 550 602 l 726 686 m 585 877 l 414 671 l 328 720 l 448 952 l 585 877 "},"º":{"x_min":91.5625,"x_max":554.109375,"ha":643,"o":"m 554 676 q 536 575 554 621 q 486 495 518 529 q 413 442 455 461 q 322 423 370 423 q 232 442 274 423 q 159 493 190 460 q 109 572 127 526 q 91 676 91 619 q 109 780 91 733 q 159 859 127 826 q 232 911 190 893 q 322 929 274 929 q 413 910 370 929 q 486 857 455 891 q 536 777 518 823 q 554 676 554 731 m 444 676 q 437 731 444 704 q 416 780 431 758 q 378 816 402 803 q 322 830 355 830 q 266 816 289 830 q 229 780 244 803 q 208 731 215 758 q 201 676 201 704 q 208 621 201 648 q 231 572 216 594 q 269 537 246 550 q 322 523 291 523 q 377 537 354 523 q 415 572 400 550 q 437 621 430 594 q 444 676 444 648 m 541 295 l 98 280 l 94 380 l 541 396 l 541 295 "},"∞":{"x_min":73.921875,"x_max":975.828125,"ha":1049,"o":"m 975 478 q 955 401 971 436 q 910 341 939 366 q 842 301 882 316 q 752 287 803 287 q 688 301 723 288 q 616 334 657 311 q 527 398 575 356 q 441 336 485 358 q 360 303 396 314 q 276 290 317 291 q 182 308 221 290 q 119 356 143 327 q 84 420 95 385 q 73 487 73 455 q 90 575 73 534 q 134 645 106 615 q 202 692 163 675 q 284 710 240 710 q 360 692 320 707 q 438 653 394 679 q 531 577 482 626 q 606 649 567 623 q 680 685 646 674 q 758 701 719 699 q 860 682 817 701 q 929 632 903 663 q 967 561 956 601 q 975 478 978 520 m 461 491 q 401 554 430 532 q 349 586 373 576 q 297 600 322 598 q 256 591 276 600 q 222 568 237 583 q 199 534 208 554 q 190 491 190 514 q 195 452 190 470 q 212 420 200 434 q 244 398 224 406 q 295 389 265 389 q 349 402 322 391 q 403 432 373 412 q 461 491 432 453 m 861 491 q 852 534 861 514 q 828 568 843 554 q 794 591 813 583 q 754 600 775 600 q 701 586 729 598 q 649 554 678 576 q 590 491 619 532 q 648 432 618 453 q 701 402 677 412 q 755 389 729 391 q 806 398 786 389 q 838 420 826 406 q 856 452 851 434 q 861 491 861 470 "},"ź":{"x_min":42.734375,"x_max":715.53125,"ha":773,"o":"m 715 -23 l 61 -51 l 42 88 l 529 554 l 82 537 l 80 673 l 693 690 l 704 543 l 216 84 l 710 111 l 715 -23 m 567 943 l 396 737 l 310 786 l 430 1018 l 567 943 "},"ű":{"x_min":86.140625,"x_max":854.671875,"ha":868,"o":"m 620 -48 l 617 145 q 567 70 595 105 q 505 7 538 34 q 434 -34 472 -18 q 355 -48 396 -50 q 250 -25 294 -46 q 177 30 206 -4 q 129 110 147 65 q 101 207 111 156 q 89 311 92 258 q 86 415 86 364 q 92 557 86 485 q 109 705 98 630 l 248 701 q 234 550 238 617 q 230 432 230 482 q 231 373 230 408 q 236 298 231 338 q 250 220 240 259 q 277 151 259 181 q 320 105 294 121 q 385 94 347 88 q 494 166 438 101 q 613 364 551 230 q 610 536 611 472 q 607 634 608 600 q 605 690 606 674 l 751 706 q 758 496 755 590 q 764 327 761 402 q 768 195 767 252 q 771 97 770 139 q 775 -46 774 0 l 620 -48 m 854 1009 l 577 750 l 491 799 l 693 1095 l 854 1009 m 555 1025 l 314 750 l 228 799 l 405 1111 l 555 1025 "},"Ǽ":{"x_min":0,"x_max":1394.421875,"ha":1454,"o":"m 1201 365 l 798 345 l 801 133 l 1387 166 l 1390 33 l 673 -5 l 669 230 l 275 212 q 205 79 238 144 q 143 -47 171 13 l 0 -26 q 67 113 29 37 q 150 268 106 188 q 240 428 193 347 q 331 583 286 508 q 417 724 376 658 q 489 841 457 790 q 541 924 520 892 q 567 963 562 956 l 1394 972 l 1390 843 l 791 833 l 796 479 l 1198 495 l 1201 365 m 659 858 q 500 607 583 742 q 340 331 418 472 l 668 344 l 659 858 m 924 1244 l 753 1038 l 667 1087 l 787 1319 l 924 1244 "},"ń":{"x_min":92.921875,"x_max":763.671875,"ha":859,"o":"m 118 -50 q 110 161 113 66 q 104 330 107 255 q 100 461 101 404 q 96 560 98 518 q 92 704 94 657 l 247 706 l 250 511 q 301 584 272 550 q 362 644 329 618 q 433 687 396 671 q 512 706 471 704 q 602 697 564 710 q 668 663 640 685 q 712 612 695 642 q 740 551 730 583 q 755 489 750 520 q 760 432 759 457 q 763 197 765 315 q 758 -47 760 79 l 619 -42 q 629 175 624 66 q 628 396 633 284 q 626 427 628 408 q 618 468 624 446 q 602 511 613 490 q 576 549 592 533 q 536 573 560 564 q 482 576 513 581 q 373 498 428 568 q 254 293 318 427 q 258 119 257 183 q 261 21 260 54 q 263 -31 263 -18 l 118 -50 m 665 988 l 494 782 l 408 831 l 528 1063 l 665 988 "},";":{"x_min":87.484375,"x_max":265.1875,"ha":354,"o":"m 265 38 q 252 -37 263 0 q 222 -110 242 -71 q 164 -185 202 -150 l 87 -160 q 107 -128 97 -146 q 123 -90 115 -112 q 137 -37 132 -67 q 104 -6 116 -25 q 91 38 91 13 q 98 72 91 56 q 116 100 105 88 q 144 119 128 112 q 177 126 160 126 q 211 119 196 126 q 239 100 227 112 q 258 72 251 88 q 265 38 265 56 m 261 497 q 254 463 261 479 q 235 436 247 448 q 208 417 223 424 q 174 411 192 411 q 140 417 156 411 q 112 436 124 424 q 94 463 101 448 q 87 497 87 479 q 94 531 87 515 q 112 559 101 547 q 140 577 124 571 q 174 584 156 584 q 208 577 192 584 q 235 559 223 571 q 254 531 247 547 q 261 497 261 515 "},"Ġ":{"x_min":55.609375,"x_max":984.78125,"ha":1050,"o":"m 984 177 q 904 87 950 127 q 806 18 859 46 q 692 -25 752 -10 q 568 -41 632 -41 q 431 -22 497 -41 q 309 30 366 -4 q 205 112 252 64 q 125 218 158 160 q 73 343 92 276 q 55 483 55 411 q 73 623 55 556 q 125 748 92 690 q 205 854 158 807 q 309 936 252 902 q 432 989 366 971 q 568 1008 497 1008 q 685 994 628 1008 q 792 956 741 981 q 887 895 843 931 q 966 815 931 859 l 862 730 q 734 834 809 796 q 568 873 658 873 q 421 842 489 873 q 301 758 352 811 q 220 635 249 706 q 190 483 190 564 q 220 331 190 402 q 301 207 249 260 q 421 123 352 154 q 568 92 489 92 q 721 125 650 92 q 844 216 792 158 l 841 360 l 426 344 l 426 486 l 973 503 l 984 177 m 614 1148 q 607 1116 614 1131 q 590 1091 601 1101 q 564 1073 579 1080 q 533 1067 549 1067 q 502 1073 517 1067 q 477 1091 487 1080 q 460 1116 466 1101 q 454 1148 454 1131 q 460 1179 454 1164 q 477 1204 466 1193 q 502 1221 487 1215 q 533 1227 517 1227 q 564 1221 549 1227 q 590 1204 579 1215 q 607 1179 601 1193 q 614 1148 614 1164 "},"6":{"x_min":67.78125,"x_max":823.953125,"ha":884,"o":"m 822 335 q 821 256 826 297 q 802 175 817 215 q 762 98 788 134 q 698 32 736 61 q 608 -11 659 4 q 489 -29 556 -28 q 359 -11 417 -29 q 253 39 300 6 q 172 116 206 71 q 114 213 137 161 q 79 322 91 265 q 67 437 67 379 q 78 563 67 500 q 112 686 89 627 q 170 795 135 744 q 252 885 206 847 q 358 945 299 923 q 487 967 417 967 q 609 950 551 967 q 660 931 634 942 q 710 904 686 921 q 756 865 735 887 q 792 812 777 842 l 695 744 q 670 783 685 767 q 637 811 655 799 q 602 831 620 823 q 567 843 584 838 q 483 854 526 855 q 363 816 416 850 q 272 727 309 782 q 215 601 235 672 q 196 451 196 530 l 196 430 q 251 505 218 471 q 325 563 284 539 q 413 601 366 588 q 508 615 459 615 q 632 592 577 615 q 728 530 688 569 q 792 440 768 491 q 822 335 816 389 m 478 498 q 383 461 427 491 q 344 428 364 448 q 306 382 324 409 q 272 318 288 354 q 247 234 257 281 q 346 125 286 165 q 484 86 406 86 q 559 96 526 86 q 614 123 591 106 q 652 163 637 141 q 676 210 668 185 q 689 259 685 234 q 691 305 692 284 q 674 385 690 349 q 629 447 657 421 q 562 487 601 474 q 478 498 524 501 "},"n":{"x_min":92.921875,"x_max":763.671875,"ha":859,"o":"m 118 -50 q 110 161 113 66 q 104 330 107 255 q 100 461 101 404 q 96 560 98 518 q 92 704 94 657 l 247 706 l 250 511 q 301 584 272 550 q 362 644 329 618 q 433 687 396 671 q 512 706 471 704 q 602 697 564 710 q 668 663 640 685 q 712 612 695 642 q 740 551 730 583 q 755 489 750 520 q 760 432 759 457 q 763 197 765 315 q 758 -47 760 79 l 619 -42 q 629 175 624 66 q 628 396 633 284 q 626 427 628 408 q 618 468 624 446 q 602 511 613 490 q 576 549 592 533 q 536 573 560 564 q 482 576 513 581 q 373 498 428 568 q 254 293 318 427 q 258 119 257 183 q 261 21 260 54 q 263 -31 263 -18 l 118 -50 "},"ģ":{"x_min":52.90625,"x_max":816.578125,"ha":917,"o":"m 816 751 l 812 -27 q 800 -115 811 -71 q 768 -200 790 -159 q 715 -277 747 -241 q 643 -342 684 -314 q 551 -388 602 -370 q 440 -411 500 -406 q 285 -394 358 -413 q 222 -371 254 -385 q 160 -335 189 -357 q 105 -282 130 -313 q 63 -209 80 -251 l 194 -152 q 225 -202 207 -181 q 265 -238 244 -223 q 308 -261 286 -252 q 351 -274 330 -269 q 455 -278 400 -284 q 538 -248 503 -268 q 597 -205 573 -229 q 637 -154 621 -181 q 661 -103 652 -127 q 673 -58 670 -78 q 676 -27 676 -38 l 676 61 q 591 1 635 22 q 510 -28 548 -18 q 425 -41 467 -40 q 278 -13 346 -41 q 160 64 210 13 q 81 189 110 115 q 52 354 52 262 q 84 518 52 446 q 168 640 116 590 q 285 715 220 689 q 417 741 351 741 q 510 721 463 736 q 596 685 550 708 q 682 620 642 661 l 683 755 l 816 751 m 425 88 q 512 104 470 88 q 588 148 554 120 q 646 215 622 176 q 678 301 670 254 l 678 389 q 647 477 671 438 q 587 545 622 517 q 509 590 552 574 q 421 605 465 605 q 330 585 372 605 q 260 530 289 565 q 213 446 230 495 q 197 343 197 398 q 214 240 197 287 q 261 160 231 193 q 333 107 291 126 q 425 88 375 88 m 318 878 q 320 903 318 885 q 331 946 322 922 q 355 999 339 971 q 398 1052 371 1027 l 459 1031 q 443 1006 451 1020 q 430 975 436 993 q 419 934 424 957 q 446 908 436 924 q 457 872 457 891 q 451 845 457 858 q 436 822 446 832 q 414 807 427 812 q 388 801 402 801 q 360 807 373 801 q 338 822 348 812 q 323 845 329 832 q 318 872 318 858 l 318 878 "},"¤":{"x_min":48.828125,"x_max":524.9375,"ha":574,"o":"m 376 567 q 370 597 376 583 q 353 622 364 612 q 328 639 342 633 q 297 645 314 645 q 265 639 280 645 q 240 622 250 633 q 222 597 229 612 q 216 567 216 583 q 222 535 216 550 q 240 510 229 520 q 265 492 250 499 q 297 486 280 486 q 328 492 314 486 q 353 510 342 499 q 370 535 364 520 q 376 567 376 550 m 522 694 l 463 638 q 474 605 470 623 q 478 571 478 588 q 461 494 478 529 l 524 434 l 438 347 l 373 406 q 337 394 356 398 q 297 389 318 389 q 219 406 255 389 l 133 324 l 48 413 l 133 494 q 116 571 116 527 q 128 638 116 607 l 48 716 l 132 805 l 209 730 q 251 747 229 741 q 297 752 273 752 q 341 747 320 752 q 383 730 363 741 l 441 786 l 522 694 "},"∂":{"x_min":55.609375,"x_max":781.984375,"ha":840,"o":"m 781 328 q 753 170 781 243 q 675 44 725 98 q 559 -38 626 -8 q 417 -69 493 -69 q 277 -40 343 -69 q 161 40 210 -12 q 84 166 112 92 q 55 328 55 239 q 84 492 55 419 q 161 618 112 566 q 277 699 210 670 q 417 727 343 727 q 450 726 433 727 q 482 722 466 725 q 439 780 461 751 q 395 836 417 809 q 352 889 373 864 q 311 935 330 914 q 222 1030 265 986 l 327 1109 q 474 944 411 1024 q 583 794 536 865 q 663 662 630 723 q 722 551 696 600 q 745 498 734 527 q 764 441 756 470 q 777 384 772 412 q 781 335 781 356 l 781 328 m 644 328 q 632 429 644 379 q 592 519 619 479 q 522 583 565 558 q 417 608 479 608 q 315 583 358 608 q 245 519 272 558 q 205 429 218 479 q 193 328 193 379 q 207 229 193 278 q 248 140 221 179 q 318 76 276 101 q 417 51 360 51 q 519 76 476 51 q 590 140 562 101 q 631 229 617 179 q 644 328 644 278 "},"Ĝ":{"x_min":55.609375,"x_max":984.78125,"ha":1050,"o":"m 984 177 q 904 87 950 127 q 806 18 859 46 q 692 -25 752 -10 q 568 -41 632 -41 q 431 -22 497 -41 q 309 30 366 -4 q 205 112 252 64 q 125 218 158 160 q 73 343 92 276 q 55 483 55 411 q 73 623 55 556 q 125 748 92 690 q 205 854 158 807 q 309 936 252 902 q 432 989 366 971 q 568 1008 497 1008 q 685 994 628 1008 q 792 956 741 981 q 887 895 843 931 q 966 815 931 859 l 862 730 q 734 834 809 796 q 568 873 658 873 q 421 842 489 873 q 301 758 352 811 q 220 635 249 706 q 190 483 190 564 q 220 331 190 402 q 301 207 249 260 q 421 123 352 154 q 568 92 489 92 q 721 125 650 92 q 844 216 792 158 l 841 360 l 426 344 l 426 486 l 973 503 l 984 177 m 748 1122 l 673 1036 l 519 1171 l 394 1029 l 300 1089 l 512 1318 l 748 1122 "},"p":{"x_min":99.703125,"x_max":847.375,"ha":899,"o":"m 248 711 l 247 612 q 328 671 286 650 q 405 702 370 691 q 486 718 446 714 q 577 705 532 718 q 663 667 623 691 q 739 609 704 643 q 798 534 773 575 q 835 444 822 492 q 847 343 849 396 q 829 233 845 284 q 788 138 813 181 q 729 61 763 95 q 656 2 695 26 q 577 -33 618 -21 q 495 -46 536 -46 q 411 -33 454 -44 q 329 -4 374 -24 q 241 52 284 15 l 237 -406 l 111 -409 l 99 705 l 248 711 m 694 330 q 681 425 697 379 q 636 505 666 471 q 564 560 606 540 q 472 580 522 581 q 393 565 430 579 q 326 526 356 550 q 276 470 297 502 q 245 404 255 438 l 244 275 q 276 196 254 230 q 327 140 297 162 q 391 105 356 117 q 461 92 425 93 q 550 109 508 91 q 623 160 592 128 q 673 236 654 193 q 694 330 691 280 "},"‡":{"x_min":66.46875,"x_max":571.0625,"ha":636,"o":"m 240 158 l 244 790 l 66 788 l 66 919 l 245 921 l 248 1174 l 397 1174 l 392 922 l 571 923 l 568 792 l 388 791 l 377 160 l 571 161 l 568 30 l 375 29 l 370 -172 l 237 -179 l 238 27 l 66 27 l 66 158 l 240 158 "},"ň":{"x_min":92.921875,"x_max":763.671875,"ha":859,"o":"m 118 -50 q 110 161 113 66 q 104 330 107 255 q 100 461 101 404 q 96 560 98 518 q 92 704 94 657 l 247 706 l 250 511 q 301 584 272 550 q 362 644 329 618 q 433 687 396 671 q 512 706 471 704 q 602 697 564 710 q 668 663 640 685 q 712 612 695 642 q 740 551 730 583 q 755 489 750 520 q 760 432 759 457 q 763 197 765 315 q 758 -47 760 79 l 619 -42 q 629 175 624 66 q 628 396 633 284 q 626 427 628 408 q 618 468 624 446 q 602 511 613 490 q 576 549 592 533 q 536 573 560 564 q 482 576 513 581 q 373 498 428 568 q 254 293 318 427 q 258 119 257 183 q 261 21 260 54 q 263 -31 263 -18 l 118 -50 m 649 971 l 416 773 l 207 1000 l 301 1076 l 430 925 l 567 1048 l 649 971 "},"√":{"x_min":21.03125,"x_max":866.765625,"ha":886,"o":"m 866 986 l 848 862 l 579 880 l 385 0 l 208 -10 l 21 409 l 141 438 l 286 101 l 484 994 l 866 986 "},"ę":{"x_min":51.546875,"x_max":796.234375,"ha":823,"o":"m 796 -241 q 710 -313 752 -293 q 633 -333 668 -333 q 574 -323 602 -333 q 524 -294 546 -313 q 489 -247 502 -274 q 476 -187 476 -221 q 481 -141 476 -166 q 501 -84 486 -115 q 462 -91 482 -88 q 423 -94 443 -94 q 280 -64 347 -94 q 161 23 213 -33 q 79 155 107 81 q 51 312 51 229 q 80 471 51 397 q 159 598 109 544 q 277 684 209 653 q 423 715 345 715 q 556 688 494 715 q 667 612 619 660 q 746 497 715 563 q 786 355 777 432 l 198 267 q 222 177 203 219 q 270 102 241 134 q 339 52 300 71 q 423 34 378 34 q 495 45 459 34 q 560 78 530 56 q 612 131 590 99 q 644 205 634 163 l 775 179 q 727 74 757 121 q 655 -6 696 27 q 603 -96 617 -59 q 588 -158 589 -134 q 596 -204 585 -185 q 607 -215 600 -210 q 620 -222 612 -219 q 640 -225 628 -225 q 681 -212 657 -225 q 737 -165 706 -200 l 796 -241 m 611 442 l 607 455 q 536 560 581 522 q 423 598 491 598 q 361 589 395 598 q 295 555 327 579 q 238 492 263 531 q 202 393 212 452 l 611 442 "},"S":{"x_min":54.40625,"x_max":848.625,"ha":896,"o":"m 845 160 q 818 75 838 112 q 769 11 798 38 q 702 -34 739 -15 q 624 -64 665 -52 q 543 -81 584 -75 q 463 -86 501 -86 q 360 -74 411 -86 q 260 -43 309 -63 q 163 4 211 -23 q 69 65 115 31 l 168 181 q 272 108 221 134 q 366 67 324 81 q 458 46 414 51 q 549 53 507 43 q 622 83 591 63 q 673 129 654 102 q 695 185 692 155 q 687 231 697 210 q 655 269 676 252 q 605 300 634 286 q 544 323 577 313 q 478 342 512 334 q 412 355 444 349 q 330 373 373 362 q 246 402 288 384 q 168 448 205 421 q 105 513 132 475 q 64 602 78 552 q 55 719 50 653 q 78 817 59 773 q 126 895 96 861 q 194 955 155 930 q 276 996 232 980 q 365 1019 319 1012 q 458 1026 412 1026 q 586 1006 522 1022 q 643 989 613 999 q 704 964 674 978 q 765 929 735 949 q 822 883 794 909 l 746 763 q 699 806 724 788 q 650 838 675 824 q 601 861 626 851 q 555 876 577 870 q 453 893 503 891 q 343 874 391 893 q 262 826 295 855 q 211 760 229 796 q 194 689 194 724 q 215 621 194 654 q 272 562 236 589 q 358 517 309 536 q 465 491 408 499 q 563 474 514 486 q 657 442 613 461 q 740 397 702 423 q 803 335 777 370 q 841 256 829 300 q 845 160 853 212 "},"/":{"x_min":47.46875,"x_max":686.359375,"ha":729,"o":"m 686 946 l 173 -12 l 47 9 l 540 966 l 686 946 "},"į":{"x_min":13.5625,"x_max":333.6875,"ha":347,"o":"m 333 -255 q 290 -299 311 -281 q 248 -327 268 -316 q 208 -342 227 -338 q 170 -347 188 -347 q 112 -337 140 -347 q 62 -307 84 -326 q 26 -261 40 -288 q 13 -201 13 -234 q 17 -162 13 -183 q 30 -117 21 -141 q 56 -66 40 -93 q 98 -9 73 -39 q 102 183 98 13 q 109 659 105 352 l 250 665 q 246 487 248 568 q 243 339 244 406 q 241 220 242 273 q 239 128 240 168 q 237 -18 237 35 q 192 -58 210 -38 q 162 -95 174 -78 q 143 -129 150 -113 q 133 -159 137 -145 q 133 -218 126 -191 q 144 -228 137 -224 q 158 -235 149 -232 q 177 -238 166 -238 q 219 -226 195 -238 q 275 -179 243 -213 l 333 -255 m 282 904 q 274 866 282 884 q 253 836 266 849 q 222 815 240 823 q 184 808 204 808 q 147 815 164 808 q 116 836 130 823 q 96 866 103 849 q 88 904 88 884 q 96 942 88 924 q 116 972 103 959 q 147 993 130 986 q 184 1001 164 1001 q 222 993 204 1001 q 253 972 240 986 q 274 942 266 959 q 282 904 282 924 "},"Ŧ":{"x_min":27.8125,"x_max":811.15625,"ha":836,"o":"m 695 419 l 495 419 l 501 -18 l 351 -21 l 351 419 l 139 419 l 139 562 l 351 562 l 351 832 l 30 819 l 27 962 l 811 979 l 808 849 l 491 837 l 494 562 l 695 562 l 695 419 "},"y":{"x_min":-5.421875,"x_max":726.375,"ha":762,"o":"m 726 686 q 660 493 690 580 q 607 335 631 405 q 564 209 583 264 q 531 113 545 154 q 479 -35 498 16 q 447 -121 465 -75 q 403 -210 430 -166 q 342 -297 377 -255 q 261 -372 307 -339 q 155 -425 215 -404 q 21 -450 95 -446 l -5 -318 q 73 -315 36 -323 q 142 -291 110 -307 q 200 -250 173 -274 q 249 -200 227 -227 q 288 -146 271 -174 q 318 -95 305 -119 l 31 663 l 187 685 l 387 87 q 425 205 403 137 q 472 352 447 274 q 523 517 497 431 q 575 687 550 602 l 726 686 "},"≈":{"x_min":101.734375,"x_max":740.671875,"ha":842,"o":"m 740 769 q 733 688 741 724 q 712 625 725 653 q 683 577 699 598 q 649 543 666 557 q 555 497 607 510 q 489 499 518 490 q 439 524 461 507 q 399 562 417 541 q 365 601 381 583 q 334 629 349 619 q 301 634 319 639 q 265 608 280 627 q 243 561 252 592 q 238 479 234 531 l 101 493 q 110 576 102 539 q 130 642 118 613 q 159 692 143 670 q 191 728 174 713 q 279 776 229 763 q 343 774 316 784 q 392 748 370 765 q 431 708 413 730 q 466 668 448 686 q 504 639 484 649 q 551 634 524 629 q 578 653 566 639 q 597 687 588 664 q 605 751 605 710 q 604 773 605 761 q 602 798 604 786 l 740 769 m 740 451 q 733 370 741 406 q 712 307 725 335 q 683 259 699 280 q 649 225 666 239 q 555 179 607 191 q 489 181 518 172 q 439 206 461 189 q 399 244 417 223 q 365 283 381 265 q 334 311 349 301 q 301 316 319 321 q 265 290 280 309 q 243 243 252 274 q 238 161 234 212 l 101 174 q 110 258 102 221 q 130 324 118 295 q 159 374 143 352 q 191 410 174 395 q 279 458 229 445 q 343 456 316 465 q 392 429 370 447 q 431 390 413 412 q 466 349 448 368 q 504 321 484 331 q 551 316 524 311 q 578 335 566 321 q 597 369 588 346 q 605 433 605 392 q 604 455 605 443 q 602 480 604 467 l 740 451 "},"ǿ":{"x_min":52.90625,"x_max":779.28125,"ha":831,"o":"m 726 760 l 654 632 q 745 501 712 578 q 779 328 779 423 q 750 170 779 243 q 672 44 722 98 q 556 -38 623 -8 q 415 -69 490 -69 q 276 -41 341 -69 l 240 -108 l 113 -86 l 173 25 q 84 154 116 77 q 52 328 52 231 q 81 492 52 419 q 159 618 109 566 q 274 699 208 670 q 415 727 339 727 q 539 704 479 727 l 580 781 l 726 760 m 641 328 q 629 428 641 379 q 590 518 617 478 l 337 65 q 373 54 354 57 q 415 51 393 51 q 516 76 474 51 q 587 140 559 101 q 628 229 615 179 q 641 328 641 278 m 190 328 q 202 233 190 280 q 240 148 215 187 l 482 598 q 450 606 467 604 q 415 608 432 608 q 312 583 355 608 q 242 519 269 558 q 203 429 215 479 q 190 328 190 379 m 625 980 l 454 774 l 368 823 l 488 1055 l 625 980 "},"g":{"x_min":52.90625,"x_max":816.578125,"ha":917,"o":"m 816 751 l 812 -27 q 800 -115 811 -71 q 768 -200 790 -159 q 715 -277 747 -241 q 643 -342 684 -314 q 551 -388 602 -370 q 440 -411 500 -406 q 285 -394 358 -413 q 222 -371 254 -385 q 160 -335 189 -357 q 105 -282 130 -313 q 63 -209 80 -251 l 194 -152 q 225 -202 207 -181 q 265 -238 244 -223 q 308 -261 286 -252 q 351 -274 330 -269 q 455 -278 400 -284 q 538 -248 503 -268 q 597 -205 573 -229 q 637 -154 621 -181 q 661 -103 652 -127 q 673 -58 670 -78 q 676 -27 676 -38 l 676 61 q 591 1 635 22 q 510 -28 548 -18 q 425 -41 467 -40 q 278 -13 346 -41 q 160 64 210 13 q 81 189 110 115 q 52 354 52 262 q 84 518 52 446 q 168 640 116 590 q 285 715 220 689 q 417 741 351 741 q 510 721 463 736 q 596 685 550 708 q 682 620 642 661 l 683 755 l 816 751 m 425 88 q 512 104 470 88 q 588 148 554 120 q 646 215 622 176 q 678 301 670 254 l 678 389 q 647 477 671 438 q 587 545 622 517 q 509 590 552 574 q 421 605 465 605 q 330 585 372 605 q 260 530 289 565 q 213 446 230 495 q 197 343 197 398 q 214 240 197 287 q 261 160 231 193 q 333 107 291 126 q 425 88 375 88 "},"ĸ":{"x_min":92.921875,"x_max":750.109375,"ha":770,"o":"m 266 722 l 252 384 l 607 740 l 711 657 l 458 406 l 750 27 l 630 -59 l 358 307 l 245 197 l 238 -6 l 92 -15 l 116 725 l 266 722 "},"²":{"x_min":82.0625,"x_max":439.3125,"ha":521,"o":"m 438 772 q 393 680 431 721 q 279 601 355 639 q 273 597 278 600 q 260 588 268 594 q 243 573 252 582 q 225 552 233 564 l 417 559 l 421 458 l 91 453 q 98 520 90 487 q 123 581 107 552 q 164 633 140 609 q 218 674 188 657 q 276 705 252 691 q 313 733 299 719 q 333 762 327 747 q 336 797 338 777 q 310 846 333 830 q 257 859 288 862 q 206 823 227 856 q 179 739 185 789 l 82 752 q 92 816 84 788 q 114 864 101 844 q 143 899 127 885 q 174 923 158 913 q 258 948 212 945 q 353 930 316 950 q 408 882 389 910 q 434 823 428 853 q 438 772 440 792 "},"–":{"x_min":91.5625,"x_max":648.375,"ha":742,"o":"m 648 392 l 91 392 l 91 534 l 648 534 l 648 392 "},"ë":{"x_min":51.546875,"x_max":786.0625,"ha":823,"o":"m 423 62 q 495 73 459 62 q 560 106 530 84 q 612 159 590 127 q 644 233 634 191 l 775 206 q 721 94 756 145 q 640 8 687 44 q 539 -46 594 -27 q 423 -66 484 -66 q 265 -39 334 -66 q 148 37 196 -12 q 76 156 101 86 q 51 312 51 226 q 80 471 51 397 q 159 598 109 544 q 277 684 209 653 q 423 715 345 715 q 556 688 494 715 q 667 612 619 660 q 746 497 715 563 q 786 355 777 432 l 198 267 q 222 181 203 219 q 270 116 241 143 q 339 76 300 90 q 423 62 378 62 m 611 442 l 607 455 q 536 560 581 522 q 423 598 491 598 q 361 589 395 598 q 295 555 327 579 q 238 492 263 531 q 202 393 212 452 l 611 442 m 621 849 q 614 817 621 832 q 598 792 608 802 q 572 774 587 781 q 541 768 558 768 q 510 774 525 768 q 485 792 496 781 q 468 817 474 802 q 461 849 461 832 q 468 880 461 865 q 485 905 474 894 q 510 922 496 916 q 541 928 525 928 q 572 922 558 928 q 598 905 587 916 q 614 880 608 894 q 621 849 621 865 m 288 849 q 281 817 288 832 q 264 792 275 802 q 238 774 253 781 q 207 768 223 768 q 176 774 191 768 q 151 792 161 781 q 134 817 140 802 q 128 849 128 832 q 134 880 128 865 q 151 905 140 894 q 176 922 161 916 q 207 928 191 928 q 238 922 223 928 q 264 905 253 916 q 281 880 275 894 q 288 849 288 865 "},"ƒ":{"x_min":-95.625,"x_max":830.828125,"ha":851,"o":"m 308 687 q 337 825 316 758 q 397 942 358 891 q 495 1023 436 992 q 637 1053 554 1053 q 732 1038 682 1053 q 830 980 781 1023 l 763 866 q 692 903 727 892 q 630 916 657 913 q 571 914 598 918 q 522 892 543 907 q 486 851 501 878 q 460 785 470 825 q 444 686 450 744 l 731 685 l 716 551 l 436 555 q 436 498 436 533 q 435 413 436 463 q 434 293 435 362 q 433 134 434 225 q 428 14 432 77 q 413 -108 424 -48 q 379 -223 401 -169 q 321 -319 358 -278 q 229 -385 284 -360 q 96 -409 174 -409 q 2 -394 52 -409 q -95 -336 -47 -379 l -29 -222 q 42 -259 7 -248 q 103 -271 76 -269 q 164 -269 135 -274 q 234 -208 207 -250 q 276 -107 261 -166 q 296 25 290 -48 q 302 185 301 100 q 301 365 303 271 q 301 556 300 459 l 147 559 l 147 689 l 308 687 "},"J":{"x_min":30.515625,"x_max":808.4375,"ha":920,"o":"m 808 349 q 779 196 808 265 q 698 76 750 126 q 575 -4 646 25 q 422 -38 505 -33 q 254 -13 326 -44 q 133 75 182 17 q 58 214 84 134 q 30 389 32 295 l 173 405 q 180 297 171 343 q 206 218 189 251 q 245 163 223 185 q 291 128 267 141 q 419 96 347 96 q 511 117 472 101 q 579 157 551 132 q 626 213 607 181 q 654 280 644 244 q 669 354 665 316 q 673 430 673 392 q 671 525 673 470 q 667 640 670 580 q 662 760 665 701 q 656 867 659 820 q 650 943 653 914 q 645 972 647 972 l 792 975 q 795 942 794 974 q 799 858 797 910 q 802 740 800 806 q 805 604 804 674 q 807 468 807 535 q 808 349 808 402 "},"Ã":{"x_min":-2.71875,"x_max":1034.96875,"ha":1068,"o":"m 874 -38 q 834 98 855 30 q 790 236 813 166 l 244 212 q 196 82 219 147 q 151 -47 172 18 l -2 -26 q 209 478 92 229 q 457 969 325 726 l 647 966 q 859 486 763 731 q 1034 -15 956 242 l 874 -38 m 537 857 q 408 595 469 727 q 291 330 347 464 l 750 349 q 651 605 704 480 q 537 857 598 731 m 814 1281 q 818 1251 816 1265 q 820 1223 820 1236 q 807 1149 820 1185 q 772 1086 795 1113 q 716 1041 749 1058 q 641 1024 683 1024 q 589 1032 611 1024 q 550 1054 567 1041 q 519 1082 533 1067 q 492 1110 505 1097 q 466 1131 479 1123 q 438 1139 453 1140 q 408 1125 421 1137 q 387 1093 396 1115 q 375 1031 377 1071 l 262 1050 q 273 1113 265 1085 q 291 1162 280 1141 q 314 1199 302 1183 q 338 1227 326 1215 q 401 1264 367 1253 q 467 1266 439 1273 q 518 1245 495 1260 q 557 1212 540 1231 q 588 1177 573 1193 q 618 1150 603 1160 q 649 1143 632 1140 q 676 1158 664 1147 q 695 1184 686 1167 q 703 1229 703 1200 q 702 1253 703 1240 q 698 1278 701 1265 l 814 1281 "},"ŷ":{"x_min":-5.421875,"x_max":726.375,"ha":762,"o":"m 726 686 q 660 493 690 580 q 607 335 631 405 q 564 209 583 264 q 531 113 545 154 q 479 -35 498 16 q 447 -121 465 -75 q 403 -210 430 -166 q 342 -297 377 -255 q 261 -372 307 -339 q 155 -425 215 -404 q 21 -450 95 -446 l -5 -318 q 73 -315 36 -323 q 142 -291 110 -307 q 200 -250 173 -274 q 249 -200 227 -227 q 288 -146 271 -174 q 318 -95 305 -119 l 31 663 l 187 685 l 387 87 q 425 205 403 137 q 472 352 447 274 q 523 517 497 431 q 575 687 550 602 l 726 686 m 605 823 l 530 737 l 376 872 l 251 730 l 157 790 l 369 1019 l 605 823 "},"ŕ":{"x_min":92.921875,"x_max":743.328125,"ha":757,"o":"m 609 381 q 603 439 609 415 q 591 481 598 463 q 573 510 583 499 q 553 529 563 522 q 499 545 529 546 q 459 530 480 543 q 415 496 438 516 q 370 449 393 475 q 326 395 347 423 q 286 341 305 368 q 252 291 267 314 q 255 191 253 240 q 257 100 256 142 q 260 23 258 57 q 263 -31 261 -10 l 118 -50 q 110 161 113 66 q 104 330 107 255 q 100 461 101 404 q 96 560 98 518 q 92 704 94 657 l 247 706 q 248 622 248 665 q 249 543 248 579 q 250 461 250 501 q 298 529 269 492 q 361 600 326 567 q 439 658 397 633 q 530 689 482 682 q 629 666 584 691 q 667 637 648 655 q 701 591 685 619 q 728 523 717 562 q 743 432 739 484 l 609 381 m 604 973 l 433 767 l 347 816 l 467 1048 l 604 973 "},"©":{"x_min":76.640625,"x_max":637.53125,"ha":714,"o":"m 511 383 q 443 319 483 343 q 359 295 404 295 q 290 309 322 295 q 235 348 259 324 q 198 405 211 373 q 184 476 184 438 q 198 545 184 513 q 235 602 211 578 q 290 641 259 627 q 359 655 322 655 q 439 634 401 655 q 503 577 478 613 l 450 534 q 408 571 432 558 q 359 584 385 584 q 319 576 337 584 q 286 553 300 567 q 263 518 271 538 q 255 476 255 498 q 263 433 255 453 q 286 398 271 413 q 319 375 300 383 q 359 366 337 366 q 411 381 387 366 q 453 422 436 396 l 511 383 m 637 478 q 615 366 637 419 q 555 276 593 314 q 465 214 516 237 q 355 191 413 191 q 246 214 297 191 q 158 276 196 237 q 98 366 120 314 q 76 478 76 419 q 98 590 76 537 q 158 681 120 642 q 246 742 196 720 q 355 765 297 765 q 465 742 413 765 q 555 681 516 720 q 615 590 593 642 q 637 478 637 537 m 562 478 q 545 561 562 522 q 501 629 529 600 q 436 674 474 657 q 355 691 398 691 q 275 674 312 691 q 209 629 238 657 q 165 561 181 600 q 149 478 149 522 q 165 395 149 434 q 209 327 181 356 q 275 281 238 298 q 355 265 312 265 q 436 281 398 265 q 501 327 474 298 q 545 395 529 356 q 562 478 562 434 "},"˘":{"x_min":0,"x_max":458.53125,"ha":458,"o":"m 458 1064 q 449 981 459 1017 q 424 918 440 945 q 388 872 408 891 q 347 841 368 853 q 234 807 297 812 q 118 834 170 808 q 75 863 96 845 q 38 907 54 881 q 11 969 21 933 q 0 1052 0 1005 l 120 1060 q 125 1010 120 1031 q 138 974 130 989 q 156 949 146 959 q 176 933 166 939 q 230 919 200 918 q 282 941 260 923 q 301 959 292 948 q 316 986 309 970 q 324 1023 322 1002 q 324 1070 327 1043 l 458 1064 "},"Ă":{"x_min":-2.71875,"x_max":1034.96875,"ha":1068,"o":"m 874 -38 q 834 98 855 30 q 790 236 813 166 l 244 212 q 196 82 219 147 q 151 -47 172 18 l -2 -26 q 209 478 92 229 q 457 969 325 726 l 647 966 q 859 486 763 731 q 1034 -15 956 242 l 874 -38 m 537 857 q 408 595 469 727 q 291 330 347 464 l 750 349 q 651 605 704 480 q 537 857 598 731 m 771 1285 q 762 1202 772 1238 q 737 1139 753 1166 q 701 1093 721 1112 q 660 1062 681 1074 q 547 1028 610 1033 q 431 1055 483 1029 q 388 1084 409 1066 q 351 1128 367 1102 q 324 1190 334 1154 q 313 1273 313 1226 l 433 1281 q 438 1231 433 1252 q 451 1195 443 1210 q 469 1170 459 1180 q 489 1154 479 1160 q 543 1140 513 1139 q 595 1162 573 1144 q 614 1180 605 1169 q 629 1207 622 1191 q 637 1244 635 1223 q 637 1291 640 1264 l 771 1285 "},"D":{"x_min":115.296875,"x_max":990.203125,"ha":1049,"o":"m 990 498 q 957 327 990 403 q 868 191 924 250 q 737 90 812 132 q 580 21 663 48 q 411 -18 497 -6 q 245 -31 325 -31 q 191 -30 218 -31 q 141 -25 165 -29 l 115 982 q 217 988 168 986 q 308 990 265 990 q 463 984 383 990 q 619 960 543 978 q 762 909 695 942 q 880 821 830 876 q 960 687 931 767 q 990 498 990 608 m 862 505 q 840 624 860 571 q 785 718 819 677 q 703 788 750 758 q 602 836 656 817 q 488 864 548 855 q 368 873 428 873 q 313 871 342 873 q 254 866 284 870 l 275 99 q 298 98 286 98 q 322 98 310 98 q 457 110 389 98 q 584 146 524 122 q 697 205 645 170 q 786 285 748 240 q 844 385 823 330 q 862 505 864 440 "},"ł":{"x_min":-15.59375,"x_max":516.8125,"ha":486,"o":"m 516 682 l 283 555 q 281 452 282 494 q 280 381 280 409 q 279 328 279 349 q 297 216 280 265 q 315 174 304 195 q 342 138 326 154 q 380 112 358 122 q 432 101 402 102 l 413 -33 q 329 -16 366 -32 q 264 23 292 -1 q 216 80 236 48 q 182 144 196 111 q 141 319 149 221 l 144 480 l 46 426 l -15 537 l 147 626 l 160 1179 l 301 1179 l 287 702 l 459 796 l 516 682 "},"ÿ":{"x_min":-5.421875,"x_max":726.375,"ha":762,"o":"m 726 686 q 660 493 690 580 q 607 335 631 405 q 564 209 583 264 q 531 113 545 154 q 479 -35 498 16 q 447 -121 465 -75 q 403 -210 430 -166 q 342 -297 377 -255 q 261 -372 307 -339 q 155 -425 215 -404 q 21 -450 95 -446 l -5 -318 q 73 -315 36 -323 q 142 -291 110 -307 q 200 -250 173 -274 q 249 -200 227 -227 q 288 -146 271 -174 q 318 -95 305 -119 l 31 663 l 187 685 l 387 87 q 425 205 403 137 q 472 352 447 274 q 523 517 497 431 q 575 687 550 602 l 726 686 m 621 832 q 614 800 621 815 q 598 775 608 785 q 572 757 587 764 q 541 751 558 751 q 510 757 525 751 q 485 775 496 764 q 468 800 474 785 q 461 832 461 815 q 468 863 461 848 q 485 888 474 877 q 510 905 496 899 q 541 911 525 911 q 572 905 558 911 q 598 888 587 899 q 614 863 608 877 q 621 832 621 848 m 288 832 q 281 800 288 815 q 264 775 275 785 q 238 757 253 764 q 207 751 223 751 q 176 757 191 751 q 151 775 161 764 q 134 800 140 785 q 128 832 128 815 q 134 863 128 848 q 151 888 140 877 q 176 905 161 899 q 207 911 191 911 q 238 905 223 911 q 264 888 253 899 q 281 863 275 877 q 288 832 288 848 "},"ĺ":{"x_min":94.265625,"x_max":410.046875,"ha":390,"o":"m 366 -33 q 281 -16 318 -32 q 216 23 244 -1 q 168 80 188 48 q 134 144 148 111 q 94 319 102 221 l 112 1179 l 254 1179 q 247 957 250 1058 q 242 774 244 857 q 239 627 240 692 q 236 512 237 562 q 231 328 233 396 q 250 216 233 265 q 268 174 257 195 q 295 138 279 154 q 333 112 311 122 q 384 101 355 102 l 366 -33 m 410 1427 l 239 1221 l 153 1270 l 273 1502 l 410 1427 "},"Ł":{"x_min":-15.59375,"x_max":885.078125,"ha":913,"o":"m 516 568 l 279 438 l 278 82 l 877 128 l 885 -15 l 145 -66 l 144 365 l 46 312 l -15 423 l 143 510 l 141 965 l 282 972 l 279 583 l 459 682 l 516 568 "},"$":{"x_min":52.90625,"x_max":559.53125,"ha":618,"o":"m 389 1070 l 372 780 q 441 766 411 776 q 494 745 472 756 q 529 724 516 733 q 544 712 541 715 l 505 596 q 485 608 501 598 q 446 627 470 617 q 395 647 423 638 q 339 657 366 655 q 226 640 266 661 q 187 576 187 619 q 196 543 187 555 q 226 524 204 531 q 286 511 248 516 q 383 497 324 505 q 470 471 436 489 q 523 429 503 453 q 551 377 543 405 q 559 320 559 349 q 555 276 559 297 q 498 172 545 212 q 373 120 451 131 l 392 -198 l 261 -202 l 276 119 q 188 139 228 124 q 120 171 149 154 q 73 202 90 188 q 52 221 55 217 l 107 316 q 157 289 130 304 q 214 261 184 274 q 277 240 244 248 q 344 231 309 231 q 407 246 383 231 q 440 286 432 260 q 434 328 445 311 q 404 357 423 346 q 360 372 385 367 q 315 379 336 377 q 73 537 86 389 q 80 624 69 584 q 116 695 91 664 q 178 748 141 727 q 263 777 215 769 l 245 1066 l 389 1070 "},"w":{"x_min":46.125,"x_max":1000.375,"ha":1043,"o":"m 1000 685 l 865 -23 l 663 -29 l 544 469 l 380 -5 l 177 -21 l 46 682 l 185 693 l 288 123 l 490 693 l 620 685 l 758 108 l 849 690 l 1000 685 "},"\\":{"x_min":42.734375,"x_max":682.296875,"ha":729,"o":"m 682 9 l 554 -12 l 42 946 l 189 966 l 682 9 "},"Ì":{"x_min":-33,"x_max":276.71875,"ha":400,"o":"m 276 23 l 140 23 l 116 966 l 267 961 l 276 23 m 236 1064 l 150 1015 l -33 1197 l 94 1308 l 236 1064 "},"Ç":{"x_min":56.96875,"x_max":986.140625,"ha":1021,"o":"m 670 -278 q 648 -336 665 -312 q 609 -373 632 -359 q 558 -394 585 -387 q 505 -400 531 -400 q 423 -384 460 -400 q 345 -343 385 -368 l 384 -255 q 429 -285 407 -275 q 469 -301 451 -296 q 508 -308 489 -307 q 551 -290 535 -308 q 567 -250 567 -273 q 556 -215 567 -232 q 522 -187 545 -198 q 482 -174 503 -179 q 442 -167 465 -169 q 396 -169 419 -165 l 459 -29 q 299 36 373 -10 q 171 151 225 84 q 87 304 118 219 q 56 483 56 389 q 75 623 56 556 q 126 748 93 690 q 206 854 160 807 q 310 936 253 902 q 433 989 367 971 q 569 1008 499 1008 q 686 994 630 1008 q 793 956 742 981 q 888 895 844 931 q 967 815 932 859 l 864 730 q 735 834 811 796 q 569 873 659 873 q 422 842 491 873 q 302 758 354 811 q 221 635 250 706 q 191 483 191 564 q 221 331 191 402 q 302 207 250 260 q 422 123 354 154 q 569 92 491 92 q 661 104 617 92 q 744 137 705 115 q 816 187 783 158 q 876 254 850 217 l 986 177 q 906 87 951 127 q 807 18 860 46 q 694 -25 754 -10 q 569 -41 634 -41 q 549 -40 558 -41 q 529 -38 539 -40 l 507 -104 q 568 -114 542 -106 q 612 -135 594 -123 q 641 -164 630 -148 q 659 -195 653 -179 q 670 -278 674 -232 "},"Ŝ":{"x_min":54.40625,"x_max":848.625,"ha":896,"o":"m 845 160 q 818 75 838 112 q 769 11 798 38 q 702 -34 739 -15 q 624 -64 665 -52 q 543 -81 584 -75 q 463 -86 501 -86 q 360 -74 411 -86 q 260 -43 309 -63 q 163 4 211 -23 q 69 65 115 31 l 168 181 q 272 108 221 134 q 366 67 324 81 q 458 46 414 51 q 549 53 507 43 q 622 83 591 63 q 673 129 654 102 q 695 185 692 155 q 687 231 697 210 q 655 269 676 252 q 605 300 634 286 q 544 323 577 313 q 478 342 512 334 q 412 355 444 349 q 330 373 373 362 q 246 402 288 384 q 168 448 205 421 q 105 513 132 475 q 64 602 78 552 q 55 719 50 653 q 78 817 59 773 q 126 895 96 861 q 194 955 155 930 q 276 996 232 980 q 365 1019 319 1012 q 458 1026 412 1026 q 586 1006 522 1022 q 643 989 613 999 q 704 964 674 978 q 765 929 735 949 q 822 883 794 909 l 746 763 q 699 806 724 788 q 650 838 675 824 q 601 861 626 851 q 555 876 577 870 q 453 893 503 891 q 343 874 391 893 q 262 826 295 855 q 211 760 229 796 q 194 689 194 724 q 215 621 194 654 q 272 562 236 589 q 358 517 309 536 q 465 491 408 499 q 563 474 514 486 q 657 442 613 461 q 740 397 702 423 q 803 335 777 370 q 841 256 829 300 q 845 160 853 212 m 672 1162 l 597 1076 l 443 1211 l 318 1069 l 224 1129 l 436 1358 l 672 1162 "},"C":{"x_min":55.609375,"x_max":984.78125,"ha":1019,"o":"m 984 177 q 904 87 950 127 q 806 18 859 46 q 692 -25 752 -10 q 568 -41 632 -41 q 431 -22 497 -41 q 309 30 366 -4 q 205 112 252 64 q 125 218 158 160 q 73 343 92 276 q 55 483 55 411 q 73 623 55 556 q 125 748 92 690 q 205 854 158 807 q 309 936 252 902 q 432 989 366 971 q 568 1008 497 1008 q 685 994 628 1008 q 792 956 741 981 q 887 895 843 931 q 966 815 931 859 l 862 730 q 734 834 809 796 q 568 873 658 873 q 421 842 489 873 q 301 758 352 811 q 220 635 249 706 q 190 483 190 564 q 220 331 190 402 q 301 207 249 260 q 421 123 352 154 q 568 92 489 92 q 659 104 615 92 q 742 137 704 115 q 815 187 781 158 q 874 254 849 217 l 984 177 "},"Ē":{"x_min":119.375,"x_max":855.921875,"ha":916,"o":"m 662 365 l 259 345 l 262 133 l 848 166 l 851 33 l 134 -5 l 119 961 l 855 972 l 851 843 l 252 833 l 257 479 l 659 495 l 662 365 m 726 1183 l 722 1041 l 189 1038 l 189 1175 l 726 1183 "},"!":{"x_min":105.796875,"x_max":270.609375,"ha":371,"o":"m 270 1039 l 236 202 l 130 200 l 105 1033 l 270 1039 m 259 21 q 253 -8 259 5 q 237 -32 247 -22 q 212 -48 226 -42 q 183 -54 198 -54 q 153 -48 167 -54 q 130 -32 140 -42 q 114 -8 120 -22 q 108 21 108 5 q 114 50 108 36 q 130 74 120 64 q 153 90 140 84 q 183 96 167 96 q 212 90 198 96 q 237 74 226 84 q 253 50 247 64 q 259 21 259 36 "},"ç":{"x_min":52.90625,"x_max":805.734375,"ha":844,"o":"m 579 -278 q 556 -336 573 -312 q 517 -373 539 -359 q 467 -394 494 -387 q 413 -400 440 -400 q 331 -384 368 -400 q 254 -343 294 -368 l 293 -255 q 338 -285 316 -275 q 377 -301 360 -296 q 416 -308 398 -307 q 459 -290 444 -308 q 474 -250 474 -273 q 464 -215 474 -232 q 430 -187 454 -198 q 391 -174 412 -179 q 350 -167 373 -169 q 304 -169 328 -165 l 354 -56 q 238 -5 293 -40 q 142 78 183 29 q 76 190 101 128 q 52 323 52 252 q 66 423 52 374 q 106 516 80 472 q 167 598 131 560 q 248 662 204 635 q 343 704 292 689 q 451 719 395 719 q 563 705 510 719 q 662 664 617 691 q 744 598 708 637 q 804 511 780 560 l 805 508 l 693 440 l 691 444 q 649 506 674 478 q 592 553 623 533 q 525 582 561 572 q 451 592 490 592 q 347 571 396 592 q 262 514 299 550 q 205 428 226 477 q 184 323 184 379 q 205 219 184 268 q 262 134 226 170 q 347 76 299 97 q 451 55 396 55 q 521 65 487 55 q 585 91 555 74 q 640 133 615 109 q 683 189 666 158 l 686 193 l 804 126 l 803 122 q 738 42 776 78 q 655 -17 701 7 q 557 -56 609 -43 q 451 -70 505 -70 q 439 -70 444 -70 q 427 -69 433 -70 l 415 -104 q 476 -114 450 -106 q 520 -135 501 -123 q 550 -164 538 -148 q 568 -195 561 -179 q 579 -278 583 -232 "},"Ĵ":{"x_min":30.515625,"x_max":923.984375,"ha":920,"o":"m 808 349 q 779 196 808 265 q 698 76 750 126 q 575 -4 646 25 q 422 -38 505 -33 q 254 -13 326 -44 q 133 75 182 17 q 58 214 84 134 q 30 389 32 295 l 173 405 q 180 297 171 343 q 206 218 189 251 q 245 163 223 185 q 291 128 267 141 q 419 96 347 96 q 511 117 472 101 q 579 157 551 132 q 626 213 607 181 q 654 280 644 244 q 669 354 665 316 q 673 430 673 392 q 671 525 673 470 q 667 640 670 580 q 662 760 665 701 q 656 867 659 820 q 650 943 653 914 q 645 972 647 972 l 792 975 q 795 942 794 974 q 799 858 797 910 q 802 740 800 806 q 805 604 804 674 q 807 468 807 535 q 808 349 808 402 m 923 1106 l 848 1020 l 694 1155 l 569 1013 l 475 1073 l 687 1302 l 923 1106 "},"È":{"x_min":119.375,"x_max":855.921875,"ha":916,"o":"m 662 365 l 259 345 l 262 133 l 848 166 l 851 33 l 134 -5 l 119 961 l 855 972 l 851 843 l 252 833 l 257 479 l 659 495 l 662 365 m 526 1062 l 440 1013 l 257 1195 l 384 1306 l 526 1062 "},"ﬁ":{"x_min":29.15625,"x_max":925.09375,"ha":990,"o":"m 190 687 q 219 825 198 758 q 279 942 240 891 q 377 1023 318 992 q 519 1053 436 1053 q 614 1038 564 1053 q 712 980 663 1023 l 645 866 q 574 903 609 892 q 512 916 539 913 q 453 914 480 918 q 404 892 425 907 q 368 851 383 878 q 342 785 352 825 q 326 686 332 744 l 891 686 q 884 357 887 491 q 881 139 882 223 q 880 -18 880 42 l 741 -18 q 744 127 742 42 q 747 305 746 200 q 751 551 749 411 l 318 555 l 318 495 q 317 312 317 406 q 317 227 317 272 q 316 135 316 182 q 316 41 316 88 q 315 -51 316 -6 l 174 -54 q 178 199 177 93 q 181 375 179 305 q 183 510 182 456 l 183 556 l 29 559 l 29 689 l 190 687 m 925 904 q 917 866 925 884 q 896 836 910 849 q 866 815 883 823 q 828 808 848 808 q 790 815 808 808 q 759 836 773 823 q 739 866 746 849 q 731 904 731 884 q 739 942 731 924 q 759 972 746 959 q 790 993 773 986 q 828 1001 808 1001 q 866 993 848 1001 q 896 972 883 986 q 917 942 910 959 q 925 904 925 924 "},"X":{"x_min":16.953125,"x_max":816.578125,"ha":827,"o":"m 779 946 l 493 495 l 816 -1 l 670 -27 l 412 368 l 160 -27 l 16 -1 l 331 491 l 34 948 l 187 965 l 412 619 l 632 962 l 779 946 "},"ô":{"x_min":52.90625,"x_max":779.28125,"ha":831,"o":"m 779 328 q 750 170 779 243 q 672 44 722 98 q 556 -38 623 -8 q 415 -69 490 -69 q 274 -40 339 -69 q 159 40 208 -12 q 81 166 109 92 q 52 328 52 239 q 81 492 52 419 q 159 618 109 566 q 274 699 208 670 q 415 727 339 727 q 556 697 490 727 q 672 614 623 667 q 750 487 722 560 q 779 328 779 415 m 636 330 q 623 428 636 379 q 585 518 611 478 q 516 583 558 558 q 415 608 474 608 q 316 583 357 608 q 248 518 274 558 q 209 428 221 478 q 197 330 197 379 q 210 231 197 281 q 250 142 223 182 q 319 78 278 103 q 415 52 360 52 q 514 78 472 52 q 583 142 556 103 q 623 231 610 182 q 636 330 636 281 m 635 881 l 560 795 l 406 930 l 281 788 l 187 848 l 399 1077 l 635 881 "},"Ė":{"x_min":119.375,"x_max":855.921875,"ha":916,"o":"m 662 365 l 259 345 l 262 133 l 848 166 l 851 33 l 134 -5 l 119 961 l 855 972 l 851 843 l 252 833 l 257 479 l 659 495 l 662 365 m 538 1118 q 531 1086 538 1101 q 514 1061 525 1071 q 488 1043 503 1050 q 457 1037 473 1037 q 426 1043 441 1037 q 401 1061 411 1050 q 384 1086 390 1071 q 378 1118 378 1101 q 384 1149 378 1134 q 401 1174 390 1163 q 426 1191 411 1185 q 457 1197 441 1197 q 488 1191 473 1197 q 514 1174 503 1185 q 531 1149 525 1163 q 538 1118 538 1134 "},"Ā":{"x_min":-2.71875,"x_max":1034.96875,"ha":1068,"o":"m 874 -38 q 834 98 855 30 q 790 236 813 166 l 244 212 q 196 82 219 147 q 151 -47 172 18 l -2 -26 q 209 478 92 229 q 457 969 325 726 l 647 966 q 859 486 763 731 q 1034 -15 956 242 l 874 -38 m 537 857 q 408 595 469 727 q 291 330 347 464 l 750 349 q 651 605 704 480 q 537 857 598 731 m 812 1182 l 808 1040 l 275 1037 l 275 1174 l 812 1182 "},"ċ":{"x_min":50.1875,"x_max":803.015625,"ha":842,"o":"m 803 508 l 690 440 l 689 444 q 646 506 671 478 q 590 553 621 533 q 523 582 558 572 q 448 592 487 592 q 344 571 393 592 q 260 514 296 550 q 202 428 223 477 q 181 323 181 379 q 202 219 181 268 q 260 134 223 170 q 344 76 296 97 q 448 55 393 55 q 518 65 484 55 q 582 91 552 74 q 638 133 613 109 q 680 189 663 158 l 683 193 l 801 126 l 800 122 q 735 42 773 78 q 652 -17 697 7 q 554 -56 606 -43 q 448 -70 502 -70 q 300 -40 372 -70 q 173 42 229 -10 q 83 166 117 94 q 50 323 50 238 q 64 423 50 374 q 103 516 78 472 q 165 598 128 560 q 245 662 201 635 q 341 704 289 689 q 448 719 392 719 q 561 705 507 719 q 659 664 614 691 q 741 598 705 637 q 801 511 777 560 l 803 508 m 517 855 q 510 823 517 838 q 493 798 504 808 q 467 780 482 787 q 436 774 452 774 q 405 780 420 774 q 380 798 390 787 q 363 823 369 808 q 357 855 357 838 q 363 886 357 871 q 380 911 369 900 q 405 928 390 922 q 436 934 420 934 q 467 928 452 934 q 493 911 482 922 q 510 886 504 900 q 517 855 517 871 "},"đ":{"x_min":52.90625,"x_max":955.609375,"ha":918,"o":"m 815 972 l 815 918 l 955 923 l 955 809 l 813 804 l 812 -27 l 673 -27 l 674 58 q 633 25 654 39 q 590 0 611 10 q 548 -17 569 -10 q 510 -29 528 -24 q 425 -41 467 -40 q 278 -13 346 -41 q 160 64 210 13 q 81 189 110 115 q 52 354 52 262 q 84 518 52 446 q 168 640 116 590 q 285 715 220 689 q 417 741 351 741 q 510 729 463 741 q 596 698 550 720 q 682 634 642 676 l 685 800 l 530 794 l 526 908 l 686 914 l 687 982 l 815 972 m 425 83 q 507 96 467 83 q 580 135 547 110 q 639 194 614 160 q 677 270 664 229 l 678 415 q 640 494 666 458 q 580 556 615 531 q 504 596 545 582 q 421 611 463 611 q 328 590 370 611 q 256 533 286 569 q 208 448 225 497 q 191 343 191 400 q 209 238 191 286 q 257 156 226 191 q 331 102 288 122 q 425 83 374 83 "},"Ẃ":{"x_min":42.734375,"x_max":1230.96875,"ha":1276,"o":"m 1230 988 l 1047 -19 l 887 -15 l 644 758 l 370 -23 l 230 -23 l 42 965 l 185 984 l 308 206 l 562 922 l 730 902 l 954 165 l 1090 1016 l 1230 988 m 865 1176 l 694 970 l 608 1019 l 728 1251 l 865 1176 "},"Ŀ":{"x_min":124.796875,"x_max":868.125,"ha":920,"o":"m 868 -15 l 128 -66 l 124 965 l 265 972 l 261 82 l 861 128 l 868 -15 m 832 497 q 825 463 832 479 q 806 436 818 448 q 779 417 794 424 q 745 411 763 411 q 711 417 727 411 q 683 436 695 424 q 665 463 672 448 q 658 497 658 479 q 665 531 658 515 q 683 559 672 547 q 711 577 695 571 q 745 584 727 584 q 779 577 763 584 q 806 559 794 571 q 825 531 818 547 q 832 497 832 515 "},"ŋ":{"x_min":92.921875,"x_max":763.53125,"ha":859,"o":"m 118 -50 q 110 161 113 66 q 104 330 107 255 q 100 461 101 404 q 96 560 98 518 q 92 704 94 657 l 247 706 l 250 511 q 301 584 272 550 q 362 644 329 618 q 433 687 396 671 q 512 706 471 704 q 602 697 564 710 q 668 663 640 685 q 712 612 695 642 q 740 551 730 583 q 755 489 750 520 q 760 432 759 457 q 762 202 765 317 q 758 -35 760 87 q 752 -112 757 -71 q 732 -194 746 -153 q 693 -271 718 -234 q 629 -337 668 -309 q 532 -382 589 -366 q 398 -398 476 -399 l 406 -245 q 484 -240 451 -250 q 540 -210 517 -229 q 579 -167 564 -191 q 602 -119 594 -143 q 615 -74 611 -94 q 619 -42 618 -53 q 628 175 626 66 q 628 396 629 284 q 626 427 628 408 q 618 468 623 446 q 602 511 612 490 q 576 549 592 533 q 536 573 560 564 q 482 576 513 581 q 373 498 428 568 q 254 293 318 427 q 258 119 257 183 q 261 21 260 54 q 263 -31 263 -18 l 118 -50 "},"}":{"x_min":25.09375,"x_max":499.84375,"ha":538,"o":"m 499 423 q 417 411 448 423 q 368 383 385 398 q 340 344 348 366 q 336 297 333 319 q 346 252 338 274 q 365 206 354 229 q 388 154 377 182 q 409 94 400 126 q 423 21 419 61 q 414 -62 427 -18 q 369 -143 400 -106 q 292 -205 339 -181 q 187 -230 246 -230 q 110 -220 151 -230 q 25 -185 69 -210 l 71 -59 q 125 -88 100 -80 q 169 -95 149 -95 q 211 -87 191 -95 q 245 -66 231 -80 q 268 -32 259 -52 q 276 10 276 -12 q 265 83 276 48 q 240 154 254 119 q 215 225 226 189 q 204 299 204 261 q 209 349 204 323 q 231 401 215 376 q 276 448 248 426 q 351 484 305 470 q 276 521 305 499 q 231 568 248 543 q 209 619 215 593 q 204 669 204 645 q 215 742 204 706 q 240 813 226 777 q 265 884 254 848 q 276 959 276 921 q 268 1001 276 982 q 246 1035 261 1021 q 212 1058 232 1049 q 169 1066 193 1066 q 125 1059 149 1066 q 71 1030 100 1051 l 25 1157 q 110 1191 69 1180 q 187 1201 151 1201 q 292 1177 246 1201 q 369 1115 339 1152 q 414 1033 400 1077 q 423 950 427 988 q 409 876 419 909 q 388 816 400 843 q 365 765 377 788 q 346 718 354 741 q 336 674 338 696 q 340 626 333 651 q 368 586 348 604 q 417 559 385 571 q 499 547 448 547 l 499 423 "},"â":{"x_min":42.734375,"x_max":790.125,"ha":867,"o":"m 626 -42 l 636 52 q 473 -23 553 0 q 324 -47 394 -47 q 230 -34 276 -47 q 149 3 184 -22 q 93 70 114 29 q 71 165 71 110 q 88 263 71 220 q 132 340 104 307 q 200 397 161 373 q 283 436 238 421 q 376 458 327 451 q 473 465 425 465 q 556 461 518 465 q 625 453 595 458 q 603 519 616 486 q 570 578 590 552 q 521 621 550 604 q 451 637 492 637 q 391 629 425 637 q 316 601 357 621 q 227 545 276 581 q 124 454 179 510 l 42 554 q 167 653 107 615 q 279 714 227 692 q 377 744 332 736 q 458 752 422 752 q 569 731 520 752 q 655 673 618 710 q 717 586 692 636 q 759 479 743 536 q 783 360 775 421 q 790 237 790 298 q 782 97 790 172 q 759 -65 775 23 l 626 -42 m 645 204 q 647 271 647 238 q 644 340 648 304 q 574 356 611 350 q 501 362 537 362 q 382 348 440 362 q 284 307 325 334 q 222 240 242 280 q 213 151 201 201 q 250 94 223 110 q 316 78 278 78 q 401 91 356 78 q 492 123 447 104 q 577 164 537 143 q 645 204 617 186 m 635 894 l 560 808 l 406 943 l 281 801 l 187 861 l 399 1090 l 635 894 "},"ø":{"x_min":52.90625,"x_max":779.28125,"ha":831,"o":"m 726 760 l 654 632 q 745 501 712 578 q 779 328 779 423 q 750 170 779 243 q 672 44 722 98 q 556 -38 623 -8 q 415 -69 490 -69 q 276 -41 341 -69 l 240 -108 l 113 -86 l 173 25 q 84 154 116 77 q 52 328 52 231 q 81 492 52 419 q 159 618 109 566 q 274 699 208 670 q 415 727 339 727 q 539 704 479 727 l 580 781 l 726 760 m 641 328 q 629 428 641 379 q 590 518 617 478 l 337 65 q 373 54 354 57 q 415 51 393 51 q 516 76 474 51 q 587 140 559 101 q 628 229 615 179 q 641 328 641 278 m 190 328 q 202 233 190 280 q 240 148 215 187 l 482 598 q 450 606 467 604 q 415 608 432 608 q 312 583 355 608 q 242 519 269 558 q 203 429 215 479 q 190 328 190 379 "},"‰":{"x_min":55.609375,"x_max":1458.171875,"ha":1511,"o":"m 476 702 q 459 602 476 649 q 415 521 443 556 q 347 466 386 486 q 265 446 309 446 q 181 466 219 446 q 114 521 143 486 q 71 602 86 556 q 55 702 55 649 q 71 802 55 755 q 114 883 86 849 q 180 938 142 918 q 265 958 219 958 q 351 938 312 958 q 418 883 390 918 q 460 802 445 849 q 476 702 476 755 m 376 702 q 368 762 376 734 q 347 812 361 790 q 312 846 333 833 q 265 858 291 858 q 219 846 240 858 q 185 812 199 833 q 163 762 170 790 q 155 702 155 734 q 163 641 155 670 q 185 591 170 613 q 219 558 199 570 q 265 545 240 545 q 311 558 290 545 q 346 591 332 570 q 368 641 360 613 q 376 702 376 670 m 852 946 l 312 -12 l 213 9 l 734 966 l 852 946 m 991 237 q 975 137 991 184 q 930 56 959 90 q 863 1 902 21 q 780 -18 824 -18 q 696 1 735 -18 q 630 56 658 21 q 586 137 602 90 q 571 237 571 184 q 586 337 571 290 q 630 418 602 383 q 696 473 657 453 q 780 493 734 493 q 866 473 828 493 q 933 418 905 453 q 976 337 961 383 q 991 237 991 290 m 891 237 q 884 297 891 269 q 862 346 876 325 q 827 380 847 368 q 780 393 806 393 q 735 380 755 393 q 700 346 714 368 q 678 297 686 325 q 670 237 670 269 q 678 176 670 204 q 700 126 686 147 q 735 92 714 105 q 780 80 755 80 q 826 92 805 80 q 861 126 847 105 q 884 176 876 147 q 891 237 891 204 m 1458 237 q 1441 138 1458 184 q 1397 58 1425 92 q 1330 5 1368 25 q 1247 -13 1291 -13 q 1163 5 1201 -13 q 1097 58 1125 25 q 1053 138 1068 92 q 1037 237 1037 184 q 1053 336 1037 290 q 1096 416 1068 382 q 1162 469 1124 450 q 1247 489 1201 489 q 1333 469 1294 489 q 1399 416 1372 450 q 1442 336 1427 382 q 1458 237 1458 290 m 1358 237 q 1351 296 1358 269 q 1329 344 1343 324 q 1294 376 1315 364 q 1247 388 1273 388 q 1201 376 1222 388 q 1167 344 1181 364 q 1145 296 1152 324 q 1137 237 1137 269 q 1145 177 1137 204 q 1167 128 1152 149 q 1201 96 1181 108 q 1247 84 1222 84 q 1293 96 1272 84 q 1328 128 1313 108 q 1350 177 1342 149 q 1358 237 1358 204 "},"Ä":{"x_min":-2.71875,"x_max":1034.96875,"ha":1068,"o":"m 874 -38 q 834 98 855 30 q 790 236 813 166 l 244 212 q 196 82 219 147 q 151 -47 172 18 l -2 -26 q 209 478 92 229 q 457 969 325 726 l 647 966 q 859 486 763 731 q 1034 -15 956 242 l 874 -38 m 537 857 q 408 595 469 727 q 291 330 347 464 l 750 349 q 651 605 704 480 q 537 857 598 731 m 791 1097 q 784 1065 791 1080 q 768 1040 778 1050 q 742 1022 757 1029 q 711 1016 728 1016 q 680 1022 695 1016 q 655 1040 666 1029 q 638 1065 644 1050 q 631 1097 631 1080 q 638 1128 631 1113 q 655 1153 644 1142 q 680 1170 666 1164 q 711 1176 695 1176 q 742 1170 728 1176 q 768 1153 757 1164 q 784 1128 778 1142 q 791 1097 791 1113 m 458 1097 q 451 1065 458 1080 q 434 1040 445 1050 q 408 1022 423 1029 q 377 1016 393 1016 q 346 1022 361 1016 q 321 1040 331 1029 q 304 1065 310 1050 q 298 1097 298 1080 q 304 1128 298 1113 q 321 1153 310 1142 q 346 1170 331 1164 q 377 1176 361 1176 q 408 1170 393 1176 q 434 1153 423 1164 q 451 1128 445 1142 q 458 1097 458 1113 "},"ř":{"x_min":92.921875,"x_max":743.328125,"ha":757,"o":"m 609 381 q 603 439 609 415 q 591 481 598 463 q 573 510 583 499 q 553 529 563 522 q 499 545 529 546 q 459 530 480 543 q 415 496 438 516 q 370 449 393 475 q 326 395 347 423 q 286 341 305 368 q 252 291 267 314 q 255 191 253 240 q 257 100 256 142 q 260 23 258 57 q 263 -31 261 -10 l 118 -50 q 110 161 113 66 q 104 330 107 255 q 100 461 101 404 q 96 560 98 518 q 92 704 94 657 l 247 706 q 248 622 248 665 q 249 543 248 579 q 250 461 250 501 q 298 529 269 492 q 361 600 326 567 q 439 658 397 633 q 530 689 482 682 q 629 666 584 691 q 667 637 648 655 q 701 591 685 619 q 728 523 717 562 q 743 432 739 484 l 609 381 m 638 921 l 405 723 l 196 950 l 290 1026 l 419 875 l 556 998 l 638 921 "},"—":{"x_min":91.5625,"x_max":926.453125,"ha":1019,"o":"m 926 392 l 91 392 l 91 534 l 926 534 l 926 392 "},"N":{"x_min":122.078125,"x_max":1020.71875,"ha":1143,"o":"m 872 225 l 861 966 l 1012 955 l 1020 23 l 874 12 l 267 737 l 276 5 l 134 0 l 122 969 l 265 976 l 872 225 "},"⁄":{"x_min":9.5,"x_max":648.375,"ha":653,"o":"m 648 946 l 108 -12 l 9 9 l 530 966 l 648 946 "},"2":{"x_min":61.046875,"x_max":765.375,"ha":825,"o":"m 763 647 q 737 550 756 594 q 680 463 718 505 q 582 382 642 422 q 434 301 522 342 q 355 250 392 278 q 322 222 339 238 q 290 189 305 207 q 262 151 275 172 q 240 108 248 131 l 718 126 l 725 -12 l 76 -25 q 84 71 74 26 q 111 155 94 116 q 153 226 129 193 q 201 284 177 258 q 335 387 259 344 q 477 465 419 430 q 569 535 535 500 q 616 610 603 570 q 623 702 628 649 q 600 784 619 749 q 552 841 581 819 q 483 873 522 864 q 400 878 444 883 q 324 854 358 875 q 262 797 289 832 q 218 716 236 763 q 194 617 201 670 l 61 636 q 82 751 65 701 q 124 838 99 801 q 179 902 149 876 q 241 944 210 927 q 405 991 314 984 q 541 976 483 993 q 639 929 598 959 q 706 862 680 900 q 746 785 732 824 q 763 710 760 746 q 763 647 767 673 "},"ü":{"x_min":86.140625,"x_max":775.203125,"ha":868,"o":"m 620 -48 l 617 145 q 567 70 595 105 q 505 7 538 34 q 434 -34 472 -18 q 355 -48 396 -50 q 250 -25 294 -46 q 177 30 206 -4 q 129 110 147 65 q 101 207 111 156 q 89 311 92 258 q 86 415 86 364 q 92 557 86 485 q 109 705 98 630 l 248 701 q 234 550 238 617 q 230 432 230 482 q 231 373 230 408 q 236 298 231 338 q 250 220 240 259 q 277 151 259 181 q 320 105 294 121 q 385 94 347 88 q 494 166 438 101 q 613 364 551 230 q 610 536 611 472 q 607 634 608 600 q 605 690 606 674 l 751 706 q 758 496 755 590 q 764 327 761 402 q 768 195 767 252 q 771 97 770 139 q 775 -46 774 0 l 620 -48 m 676 865 q 669 833 676 848 q 653 808 663 818 q 627 790 642 797 q 596 784 613 784 q 565 790 580 784 q 540 808 551 797 q 523 833 529 818 q 516 865 516 848 q 523 896 516 881 q 540 921 529 910 q 565 938 551 932 q 596 944 580 944 q 627 938 613 944 q 653 921 642 932 q 669 896 663 910 q 676 865 676 881 m 343 865 q 336 833 343 848 q 319 808 330 818 q 293 790 308 797 q 262 784 278 784 q 231 790 246 784 q 206 808 216 797 q 189 833 195 818 q 183 865 183 848 q 189 896 183 881 q 206 921 195 910 q 231 938 216 932 q 262 944 246 944 q 293 938 278 944 q 319 921 308 932 q 336 896 330 910 q 343 865 343 881 "},"˜":{"x_min":0,"x_max":558.171875,"ha":557,"o":"m 552 1065 q 556 1035 554 1049 q 558 1007 558 1020 q 545 933 558 969 q 510 870 533 897 q 454 825 487 842 q 379 808 421 808 q 327 816 349 808 q 288 838 305 825 q 257 866 271 851 q 230 894 243 881 q 204 915 217 907 q 176 923 191 924 q 146 909 159 921 q 125 877 134 899 q 113 815 115 855 l 0 834 q 11 897 3 869 q 29 946 18 925 q 52 983 40 967 q 76 1011 64 999 q 139 1048 105 1037 q 205 1050 177 1057 q 256 1029 233 1044 q 295 996 278 1015 q 326 961 311 977 q 356 934 341 944 q 387 927 370 924 q 414 942 402 931 q 433 968 424 951 q 441 1013 441 984 q 440 1037 441 1024 q 436 1062 439 1049 l 552 1065 "},"Ó":{"x_min":55.609375,"x_max":1081.765625,"ha":1137,"o":"m 1081 479 q 1063 340 1081 406 q 1011 215 1045 273 q 931 108 978 156 q 827 26 884 60 q 704 -27 769 -8 q 568 -46 638 -46 q 431 -27 497 -46 q 309 26 366 -8 q 205 108 252 60 q 125 215 158 156 q 73 340 92 273 q 55 479 55 406 q 73 619 55 552 q 125 744 92 686 q 205 850 158 803 q 309 932 252 898 q 432 985 366 967 q 568 1004 497 1004 q 704 985 638 1004 q 827 932 769 967 q 931 850 884 898 q 1011 744 978 803 q 1063 619 1045 686 q 1081 479 1081 552 m 947 479 q 933 582 947 533 q 895 676 920 632 q 836 755 870 719 q 759 816 801 790 q 669 855 717 841 q 568 869 620 869 q 421 838 489 869 q 301 754 352 807 q 220 631 249 701 q 190 479 190 560 q 220 327 190 398 q 301 203 249 256 q 421 119 352 150 q 568 88 489 88 q 669 102 620 88 q 759 142 717 116 q 836 203 801 167 q 895 282 870 238 q 933 375 920 325 q 947 479 947 425 m 793 1248 l 622 1042 l 536 1091 l 656 1323 l 793 1248 "},"ˇ":{"x_min":0,"x_max":442.875,"ha":443,"o":"m 442 971 l 209 773 l 0 1000 l 94 1076 l 223 925 l 360 1048 l 442 971 "},"Ÿ":{"x_min":4.0625,"x_max":851.171875,"ha":880,"o":"m 851 965 l 512 302 l 512 -22 l 372 -30 l 383 305 l 4 951 l 164 969 l 451 448 l 697 969 l 851 965 m 680 1108 q 673 1076 680 1091 q 657 1051 667 1061 q 631 1033 646 1040 q 600 1027 617 1027 q 569 1033 584 1027 q 544 1051 555 1040 q 527 1076 533 1061 q 520 1108 520 1091 q 527 1139 520 1124 q 544 1164 533 1153 q 569 1181 555 1175 q 600 1187 584 1187 q 631 1181 617 1187 q 657 1164 646 1175 q 673 1139 667 1153 q 680 1108 680 1124 m 347 1108 q 340 1076 347 1091 q 323 1051 334 1061 q 297 1033 312 1040 q 266 1027 282 1027 q 235 1033 250 1027 q 210 1051 220 1040 q 193 1076 199 1061 q 187 1108 187 1091 q 193 1139 187 1124 q 210 1164 199 1153 q 235 1181 220 1175 q 266 1187 250 1187 q 297 1181 282 1187 q 323 1164 312 1175 q 340 1139 334 1153 q 347 1108 347 1124 "},"ų":{"x_min":86.140625,"x_max":852.53125,"ha":868,"o":"m 852 -291 q 809 -335 830 -317 q 767 -363 787 -352 q 727 -378 746 -374 q 690 -383 708 -383 q 631 -373 659 -383 q 581 -343 603 -362 q 546 -297 559 -324 q 533 -237 533 -270 q 537 -198 533 -219 q 551 -152 541 -177 q 577 -100 560 -128 q 620 -42 594 -73 l 617 145 q 567 70 595 105 q 505 7 538 34 q 434 -34 472 -18 q 355 -48 396 -50 q 250 -25 294 -46 q 177 30 206 -4 q 129 110 147 65 q 101 207 111 156 q 89 311 92 258 q 86 415 86 364 q 92 557 86 485 q 109 705 98 630 l 248 701 q 234 550 238 617 q 230 432 230 482 q 231 373 230 408 q 236 298 231 338 q 250 220 240 259 q 277 151 259 181 q 320 105 294 121 q 385 94 347 88 q 494 166 438 101 q 613 364 551 230 q 610 536 611 472 q 607 634 608 600 q 605 690 606 674 l 751 706 q 758 496 755 590 q 764 327 761 402 q 768 195 767 252 q 771 97 770 139 q 775 -46 774 0 q 721 -84 743 -65 q 684 -121 699 -103 q 661 -156 670 -139 q 650 -187 653 -172 q 653 -254 642 -222 q 663 -265 657 -260 q 677 -272 669 -269 q 697 -275 685 -275 q 738 -262 714 -275 q 794 -215 763 -249 l 852 -291 "},"€":{"x_min":51.546875,"x_max":1212.65625,"ha":1279,"o":"m 777 545 l 421 537 q 418 510 419 524 q 417 483 417 497 q 420 442 417 462 q 426 402 422 422 l 746 401 l 706 283 l 472 280 q 531 204 497 238 q 607 144 566 169 q 696 106 649 120 q 796 92 744 92 q 887 104 843 92 q 970 137 931 115 q 1043 187 1009 158 q 1102 254 1077 217 l 1212 177 q 1132 87 1178 127 q 1033 18 1087 46 q 920 -25 980 -10 q 796 -41 860 -41 q 643 -17 716 -41 q 509 47 570 5 q 400 149 447 90 q 323 279 352 208 l 51 276 l 90 404 l 288 402 q 284 442 285 422 q 283 483 283 462 q 283 509 283 495 q 284 534 283 522 l 113 530 l 144 644 l 308 647 q 381 792 333 725 q 492 906 428 858 q 633 981 556 954 q 796 1008 710 1008 q 912 994 856 1008 q 1020 956 969 981 q 1114 895 1070 931 q 1194 815 1159 859 l 1090 730 q 962 834 1037 796 q 796 873 886 873 q 688 857 739 873 q 591 811 636 841 q 512 741 547 781 q 454 651 477 700 l 812 659 l 777 545 "},"Ŭ":{"x_min":98,"x_max":874.953125,"ha":968,"o":"m 874 465 q 865 340 875 402 q 834 224 855 279 q 778 122 812 168 q 699 41 745 75 q 595 -11 653 7 q 465 -30 536 -30 q 339 -7 393 -30 q 244 53 284 14 q 176 143 204 92 q 132 250 149 194 q 107 365 115 307 q 98 476 99 423 q 101 623 96 543 q 113 782 104 691 q 141 976 122 873 l 288 955 q 263 826 273 888 q 248 708 254 763 q 241 608 243 653 q 240 530 240 562 q 243 445 240 492 q 255 350 246 398 q 281 256 264 301 q 324 174 297 210 q 391 117 352 139 q 484 95 430 95 q 586 121 541 95 q 663 195 632 147 q 712 311 695 243 q 727 465 729 380 q 719 611 726 533 q 702 767 714 679 q 670 952 691 854 l 815 972 q 848 768 836 860 q 866 607 859 675 q 874 465 872 529 m 711 1279 q 702 1196 712 1232 q 677 1133 693 1160 q 641 1087 661 1106 q 600 1056 621 1068 q 487 1022 550 1027 q 371 1049 423 1023 q 328 1078 349 1060 q 291 1122 307 1096 q 264 1184 274 1148 q 253 1267 253 1220 l 373 1275 q 378 1225 373 1246 q 391 1189 383 1204 q 409 1164 399 1174 q 429 1148 419 1154 q 483 1134 453 1133 q 535 1156 513 1138 q 554 1174 545 1163 q 569 1201 562 1185 q 577 1238 575 1217 q 577 1285 580 1258 l 711 1279 "},"ĝ":{"x_min":52.90625,"x_max":816.578125,"ha":917,"o":"m 816 751 l 812 -27 q 800 -115 811 -71 q 768 -200 790 -159 q 715 -277 747 -241 q 643 -342 684 -314 q 551 -388 602 -370 q 440 -411 500 -406 q 285 -394 358 -413 q 222 -371 254 -385 q 160 -335 189 -357 q 105 -282 130 -313 q 63 -209 80 -251 l 194 -152 q 225 -202 207 -181 q 265 -238 244 -223 q 308 -261 286 -252 q 351 -274 330 -269 q 455 -278 400 -284 q 538 -248 503 -268 q 597 -205 573 -229 q 637 -154 621 -181 q 661 -103 652 -127 q 673 -58 670 -78 q 676 -27 676 -38 l 676 61 q 591 1 635 22 q 510 -28 548 -18 q 425 -41 467 -40 q 278 -13 346 -41 q 160 64 210 13 q 81 189 110 115 q 52 354 52 262 q 84 518 52 446 q 168 640 116 590 q 285 715 220 689 q 417 741 351 741 q 510 721 463 736 q 596 685 550 708 q 682 620 642 661 l 683 755 l 816 751 m 425 88 q 512 104 470 88 q 588 148 554 120 q 646 215 622 176 q 678 301 670 254 l 678 389 q 647 477 671 438 q 587 545 622 517 q 509 590 552 574 q 421 605 465 605 q 330 585 372 605 q 260 530 289 565 q 213 446 230 495 q 197 343 197 398 q 214 240 197 287 q 261 160 231 193 q 333 107 291 126 q 425 88 375 88 m 639 854 l 564 768 l 410 903 l 285 761 l 191 821 l 403 1050 l 639 854 "},"ß":{"x_min":29.15625,"x_max":1110.546875,"ha":1133,"o":"m 190 686 q 217 824 197 758 q 275 939 237 889 q 370 1019 313 989 q 511 1048 428 1048 q 610 1030 562 1048 q 695 979 658 1012 q 755 901 732 946 q 777 800 777 855 q 764 726 777 760 q 729 661 750 691 q 684 603 708 630 q 639 552 660 577 q 605 506 619 528 q 591 463 591 484 q 601 419 591 436 q 630 393 611 402 q 674 378 649 383 q 732 370 700 373 q 799 364 763 367 q 874 355 836 361 q 989 319 942 344 q 1066 259 1037 293 q 1105 182 1095 224 q 1106 96 1115 140 q 1075 22 1099 55 q 1013 -35 1051 -11 q 920 -73 974 -59 q 798 -87 866 -86 q 672 -74 736 -86 q 615 -61 645 -69 q 553 -40 584 -52 q 491 -11 522 -28 q 432 27 460 5 l 497 130 q 573 92 534 111 q 653 60 612 74 q 736 38 693 46 q 825 30 779 30 q 888 37 862 30 q 930 55 914 44 q 956 79 947 65 q 969 104 965 92 q 970 141 974 120 q 945 182 965 162 q 886 215 925 201 q 783 231 847 229 q 666 244 722 234 q 565 275 609 254 q 492 330 521 296 q 457 416 463 364 q 462 494 451 459 q 494 559 474 529 q 538 616 514 590 q 585 670 563 643 q 622 724 607 696 q 637 784 637 752 q 626 837 637 813 q 596 881 615 862 q 551 909 577 899 q 494 919 524 919 q 416 898 447 919 q 365 842 385 877 q 337 763 346 807 q 323 671 327 718 q 319 578 319 623 q 318 495 318 532 q 317 312 317 406 q 317 227 317 272 q 316 135 316 182 q 316 41 316 88 q 315 -51 316 -6 l 174 -54 q 178 199 177 93 q 181 375 179 305 q 183 510 182 456 l 183 554 l 29 559 l 29 689 l 190 686 "},"s":{"x_min":41.375,"x_max":722.3125,"ha":770,"o":"m 722 148 q 696 40 722 84 q 626 -30 670 -3 q 525 -71 582 -58 q 408 -87 469 -84 q 282 -74 345 -86 q 224 -61 255 -69 q 163 -40 194 -52 q 101 -11 132 -28 q 41 27 69 5 l 107 130 q 183 92 144 111 q 263 60 222 74 q 346 38 303 46 q 434 30 389 30 q 497 37 472 30 q 540 55 523 44 q 565 79 556 65 q 579 104 575 92 q 581 128 582 115 q 574 155 581 141 q 555 182 568 168 q 520 205 541 195 q 467 223 498 216 q 393 231 436 229 q 275 244 332 234 q 174 275 219 254 q 101 330 130 296 q 66 416 72 364 q 72 505 61 465 q 106 577 84 545 q 162 633 129 609 q 235 673 196 657 q 318 697 274 689 q 406 705 362 705 q 469 702 433 705 q 544 691 505 699 q 623 668 583 683 q 698 628 663 653 l 651 503 q 566 540 607 527 q 495 561 526 554 q 426 572 458 569 q 260 550 320 578 q 201 463 201 521 q 223 404 201 423 q 284 377 246 385 q 375 366 323 369 q 484 355 426 364 q 596 324 551 345 q 670 277 642 304 q 710 217 697 250 q 722 148 722 184 "},"Ű":{"x_min":98,"x_max":924.671875,"ha":968,"o":"m 874 465 q 865 340 875 402 q 834 224 855 279 q 778 122 812 168 q 699 41 745 75 q 595 -11 653 7 q 465 -30 536 -30 q 339 -7 393 -30 q 244 53 284 14 q 176 143 204 92 q 132 250 149 194 q 107 365 115 307 q 98 476 99 423 q 101 623 96 543 q 113 782 104 691 q 141 976 122 873 l 288 955 q 263 826 273 888 q 248 708 254 763 q 241 608 243 653 q 240 530 240 562 q 243 445 240 492 q 255 350 246 398 q 281 256 264 301 q 324 174 297 210 q 391 117 352 139 q 484 95 430 95 q 586 121 541 95 q 663 195 632 147 q 712 311 695 243 q 727 465 729 380 q 719 611 726 533 q 702 767 714 679 q 670 952 691 854 l 815 972 q 848 768 836 860 q 866 607 859 675 q 874 465 872 529 m 924 1272 l 647 1013 l 561 1062 l 763 1358 l 924 1272 m 625 1288 l 384 1013 l 298 1062 l 475 1374 l 625 1288 "},"?":{"x_min":52.90625,"x_max":715.53125,"ha":774,"o":"m 383 1066 q 515 1041 454 1066 q 620 970 576 1015 q 690 862 665 925 q 715 726 715 800 q 709 656 715 691 q 690 587 704 621 q 652 520 676 553 q 591 457 628 487 q 522 405 559 430 q 455 350 485 380 q 408 282 425 320 q 400 189 391 243 l 278 189 q 270 244 270 219 q 284 318 270 285 q 319 378 297 350 q 369 428 341 405 q 427 475 398 452 q 485 522 457 498 q 535 576 513 547 q 571 639 557 604 q 584 718 584 674 q 569 804 584 762 q 527 878 554 846 q 460 931 499 911 q 372 951 421 951 q 291 933 326 951 q 230 885 255 915 q 193 814 206 854 q 180 731 180 775 q 181 698 180 716 q 185 662 182 681 l 65 644 q 55 690 57 668 q 52 734 52 712 q 76 862 52 802 q 144 968 101 923 q 248 1040 187 1013 q 383 1066 309 1066 m 426 21 q 420 -8 426 5 q 404 -32 415 -22 q 380 -48 394 -42 q 351 -54 366 -54 q 321 -48 335 -54 q 297 -32 307 -42 q 281 -8 287 -22 q 275 21 275 5 q 281 50 275 36 q 297 74 287 64 q 321 90 307 84 q 351 96 335 96 q 380 90 366 96 q 404 74 394 84 q 420 50 415 64 q 426 21 426 36 "},"Ņ":{"x_min":122.078125,"x_max":1020.71875,"ha":1143,"o":"m 872 225 l 861 966 l 1012 955 l 1020 23 l 874 12 l 267 737 l 276 5 l 134 0 l 122 969 l 265 976 l 872 225 m 641 -108 q 631 -169 640 -138 q 607 -228 623 -196 q 561 -288 591 -260 l 499 -266 q 515 -241 508 -256 q 529 -211 522 -229 q 540 -169 535 -192 q 513 -143 523 -159 q 503 -108 503 -127 q 508 -80 503 -93 q 523 -58 513 -68 q 545 -43 532 -49 q 572 -38 558 -38 q 621 -58 601 -38 q 641 -108 641 -78 "},"c":{"x_min":50.1875,"x_max":803.015625,"ha":842,"o":"m 803 508 l 690 440 l 689 444 q 646 506 671 478 q 590 553 621 533 q 523 582 558 572 q 448 592 487 592 q 344 571 393 592 q 260 514 296 550 q 202 428 223 477 q 181 323 181 379 q 202 219 181 268 q 260 134 223 170 q 344 76 296 97 q 448 55 393 55 q 518 65 484 55 q 582 91 552 74 q 638 133 613 109 q 680 189 663 158 l 683 193 l 801 126 l 800 122 q 735 42 773 78 q 652 -17 697 7 q 554 -56 606 -43 q 448 -70 502 -70 q 300 -40 372 -70 q 173 42 229 -10 q 83 166 117 94 q 50 323 50 238 q 64 423 50 374 q 103 516 78 472 q 165 598 128 560 q 245 662 201 635 q 341 704 289 689 q 448 719 392 719 q 561 705 507 719 q 659 664 614 691 q 741 598 705 637 q 801 511 777 560 l 803 508 "},"¶":{"x_min":52.453125,"x_max":897.28125,"ha":1025,"o":"m 897 -6 l 766 -1 l 768 273 q 679 260 721 263 q 601 255 636 257 l 597 -23 l 454 -18 l 459 262 q 363 281 411 269 q 270 314 315 294 q 187 361 226 334 q 120 425 149 389 q 72 507 90 461 q 52 609 54 553 q 71 753 49 691 q 131 861 92 815 q 220 935 169 906 q 324 983 270 965 q 432 1008 379 1001 q 530 1015 486 1015 q 642 1007 582 1013 q 759 988 693 1001 q 897 952 825 976 l 897 -6 m 193 642 q 208 558 193 598 q 257 484 224 518 q 340 427 289 451 q 462 392 391 403 l 472 874 q 359 848 410 867 q 270 798 307 828 q 213 729 233 769 q 193 642 193 689 m 604 381 q 683 385 640 381 q 769 398 727 389 l 773 845 q 692 866 735 859 q 612 876 649 872 l 604 381 "},"Ī":{"x_min":-67,"x_max":470.828125,"ha":400,"o":"m 276 23 l 140 23 l 116 966 l 267 961 l 276 23 m 470 1200 l 466 1058 l -67 1055 l -67 1192 l 470 1200 "},"•":{"x_min":119.375,"x_max":387.265625,"ha":507,"o":"m 387 463 q 376 411 387 436 q 348 368 366 387 q 305 339 330 350 q 254 328 281 328 q 201 339 225 328 q 158 368 177 350 q 129 411 140 387 q 119 463 119 436 q 129 516 119 491 q 158 558 140 540 q 201 588 177 577 q 254 598 225 598 q 305 588 281 598 q 348 558 330 577 q 376 516 366 540 q 387 463 387 491 "},"(":{"x_min":44.765625,"x_max":519.515625,"ha":522,"o":"m 519 1094 q 409 1020 457 1062 q 326 928 361 977 q 266 828 290 880 q 227 728 242 777 q 185 489 189 613 q 223 258 190 370 q 258 158 237 210 q 311 55 280 106 q 384 -41 342 5 q 483 -127 427 -88 l 406 -226 q 287 -133 339 -185 q 197 -22 236 -80 q 133 95 159 35 q 90 212 107 155 q 44 489 50 345 q 95 765 50 631 q 144 882 114 822 q 216 1001 173 943 q 317 1112 259 1060 q 451 1207 375 1165 l 519 1094 "},"­":{"x_min":88.84375,"x_max":629.390625,"ha":717,"o":"m 629 406 l 92 392 l 88 533 l 629 548 l 629 406 "},"Ħ":{"x_min":70.53125,"x_max":1072.265625,"ha":1143,"o":"m 267 689 l 864 705 l 861 966 l 1012 955 l 1013 710 l 1072 711 l 1072 596 l 1015 594 l 1020 23 l 874 12 l 870 336 l 271 309 l 276 5 l 134 0 l 126 569 l 70 568 l 70 683 l 124 685 l 122 969 l 265 976 l 267 689 m 865 590 l 269 573 l 270 433 l 868 462 l 865 590 "},":":{"x_min":87.484375,"x_max":261.109375,"ha":349,"o":"m 261 38 q 254 5 261 21 q 235 -22 247 -10 q 208 -40 223 -33 q 174 -47 192 -47 q 140 -40 156 -47 q 112 -22 124 -33 q 94 5 101 -10 q 87 38 87 21 q 94 72 87 56 q 112 100 101 88 q 140 119 124 112 q 174 126 156 126 q 208 119 192 126 q 235 100 223 112 q 254 72 247 88 q 261 38 261 56 m 261 497 q 254 463 261 479 q 235 436 247 448 q 208 417 223 424 q 174 411 192 411 q 140 417 156 411 q 112 436 124 424 q 94 463 101 448 q 87 497 87 479 q 94 531 87 515 q 112 559 101 547 q 140 577 124 571 q 174 584 156 584 q 208 577 192 584 q 235 559 223 571 q 254 531 247 547 q 261 497 261 515 "},"Û":{"x_min":98,"x_max":874.953125,"ha":968,"o":"m 874 465 q 865 340 875 402 q 834 224 855 279 q 778 122 812 168 q 699 41 745 75 q 595 -11 653 7 q 465 -30 536 -30 q 339 -7 393 -30 q 244 53 284 14 q 176 143 204 92 q 132 250 149 194 q 107 365 115 307 q 98 476 99 423 q 101 623 96 543 q 113 782 104 691 q 141 976 122 873 l 288 955 q 263 826 273 888 q 248 708 254 763 q 241 608 243 653 q 240 530 240 562 q 243 445 240 492 q 255 350 246 398 q 281 256 264 301 q 324 174 297 210 q 391 117 352 139 q 484 95 430 95 q 586 121 541 95 q 663 195 632 147 q 712 311 695 243 q 727 465 729 380 q 719 611 726 533 q 702 767 714 679 q 670 952 691 854 l 815 972 q 848 768 836 860 q 866 607 859 675 q 874 465 872 529 m 710 1085 l 635 999 l 481 1134 l 356 992 l 262 1052 l 474 1281 l 710 1085 "},"ś":{"x_min":41.375,"x_max":722.3125,"ha":770,"o":"m 722 148 q 696 40 722 84 q 626 -30 670 -3 q 525 -71 582 -58 q 408 -87 469 -84 q 282 -74 345 -86 q 224 -61 255 -69 q 163 -40 194 -52 q 101 -11 132 -28 q 41 27 69 5 l 107 130 q 183 92 144 111 q 263 60 222 74 q 346 38 303 46 q 434 30 389 30 q 497 37 472 30 q 540 55 523 44 q 565 79 556 65 q 579 104 575 92 q 581 128 582 115 q 574 155 581 141 q 555 182 568 168 q 520 205 541 195 q 467 223 498 216 q 393 231 436 229 q 275 244 332 234 q 174 275 219 254 q 101 330 130 296 q 66 416 72 364 q 72 505 61 465 q 106 577 84 545 q 162 633 129 609 q 235 673 196 657 q 318 697 274 689 q 406 705 362 705 q 469 702 433 705 q 544 691 505 699 q 623 668 583 683 q 698 628 663 653 l 651 503 q 566 540 607 527 q 495 561 526 554 q 426 572 458 569 q 260 550 320 578 q 201 463 201 521 q 223 404 201 423 q 284 377 246 385 q 375 366 323 369 q 484 355 426 364 q 596 324 551 345 q 670 277 642 304 q 710 217 697 250 q 722 148 722 184 m 587 983 l 416 777 l 330 826 l 450 1058 l 587 983 "},"V":{"x_min":33.234375,"x_max":1070.90625,"ha":1068,"o":"m 1070 976 q 859 471 975 720 q 611 -19 743 223 l 422 -16 q 33 965 189 453 l 193 988 q 261 763 225 873 q 338 545 297 653 q 425 330 379 438 q 524 115 472 223 q 739 542 640 321 q 916 996 838 763 l 1070 976 "},"Ŗ":{"x_min":126.15625,"x_max":934.890625,"ha":992,"o":"m 934 609 q 913 514 932 557 q 863 435 894 470 q 790 373 832 400 q 702 326 749 345 l 900 15 l 759 -30 l 569 286 q 502 276 537 280 q 425 271 467 271 q 350 275 391 271 q 266 286 310 278 l 269 -1 l 126 -6 l 126 952 q 242 979 184 970 q 349 992 301 988 q 457 999 404 997 q 554 992 501 999 q 662 971 608 986 q 766 927 716 955 q 855 856 817 900 q 915 752 893 813 q 934 609 937 691 m 457 862 q 392 859 425 862 q 329 854 364 857 q 262 843 295 850 l 265 411 q 329 402 297 404 q 392 400 361 400 q 546 418 473 400 q 674 470 619 437 q 761 546 729 502 q 794 642 794 591 q 769 735 794 695 q 699 804 744 776 q 593 847 655 832 q 457 862 531 862 m 566 -106 q 556 -167 565 -136 q 532 -226 548 -194 q 486 -286 516 -258 l 424 -264 q 440 -239 433 -254 q 454 -209 447 -227 q 465 -167 460 -190 q 438 -141 448 -157 q 428 -106 428 -125 q 433 -78 428 -91 q 448 -56 438 -66 q 470 -41 457 -47 q 497 -36 483 -36 q 546 -56 526 -36 q 566 -106 566 -76 "}," ":{"x_min":0,"x_max":0,"ha":364},"@":{"x_min":72.96875,"x_max":1054.265625,"ha":1108,"o":"m 1053 516 q 1026 383 1051 439 q 964 290 1001 326 q 883 239 927 255 q 801 226 840 223 q 758 233 779 228 q 719 248 737 239 q 686 272 701 258 q 659 307 670 287 q 616 276 638 288 q 575 258 594 265 q 533 247 553 250 q 448 251 486 240 q 382 287 410 262 q 337 350 354 312 q 318 436 320 388 q 329 523 315 483 q 371 593 344 563 q 436 639 398 622 q 518 655 474 655 q 563 651 541 655 q 605 641 583 648 q 649 622 628 634 l 657 672 l 765 669 q 759 544 760 594 q 756 462 757 493 q 756 404 756 425 q 762 364 755 379 q 779 343 769 350 q 802 335 790 336 q 823 336 813 334 q 840 340 829 337 q 864 350 851 343 q 890 370 876 358 q 914 405 903 383 q 931 457 925 426 q 938 531 938 489 q 909 650 938 595 q 829 745 881 705 q 706 808 777 786 q 551 829 635 830 q 451 811 498 828 q 362 764 403 794 q 288 694 321 734 q 232 610 255 655 q 197 518 209 565 q 184 425 184 470 q 200 302 184 356 q 254 208 215 248 q 358 139 293 167 q 522 96 423 111 l 491 -10 q 340 18 404 -4 q 230 75 276 42 q 154 150 184 109 q 108 233 125 191 q 73 451 67 330 q 111 609 83 539 q 179 731 139 678 q 269 820 219 784 q 371 881 318 857 q 475 916 423 905 q 572 929 526 927 q 676 921 621 931 q 786 889 732 911 q 890 834 841 868 q 977 753 940 800 q 1035 648 1014 707 q 1053 516 1056 589 m 638 415 q 639 464 638 438 q 641 516 640 489 q 605 539 623 531 q 573 550 588 547 q 539 555 555 554 q 492 543 512 555 q 460 515 472 532 q 441 478 447 497 q 436 442 436 458 q 440 409 436 426 q 455 379 444 393 q 484 357 465 366 q 531 348 503 348 q 565 357 548 349 q 600 377 581 363 q 638 415 619 390 "},"¾":{"x_min":52.90625,"x_max":912.890625,"ha":974,"o":"m 833 946 l 293 -12 l 194 9 l 715 966 l 833 946 m 421 592 q 413 542 421 569 q 384 495 404 516 q 327 459 363 473 q 234 445 290 444 q 160 466 195 448 q 129 485 145 474 q 99 513 113 497 q 73 551 85 529 q 52 602 61 573 l 153 630 q 167 594 158 611 q 189 566 177 578 q 215 548 202 554 q 238 540 227 541 q 265 541 250 539 q 291 549 279 543 q 310 564 303 554 q 319 591 318 575 q 311 625 320 612 q 292 644 303 638 q 268 653 280 651 q 248 654 255 655 q 226 653 238 654 q 201 652 215 653 q 169 649 187 651 l 169 746 q 200 744 187 744 q 223 742 213 743 q 241 741 233 741 q 277 748 262 741 q 302 764 293 754 q 316 785 311 774 q 320 803 320 795 q 318 819 320 810 q 307 836 315 828 q 286 850 299 845 q 251 855 272 855 q 215 845 231 854 q 189 820 201 838 q 174 772 177 803 l 75 781 q 108 866 88 834 q 151 915 128 897 q 199 938 174 932 q 247 946 224 944 q 303 941 273 946 q 359 920 333 935 q 402 877 385 905 q 419 805 419 849 q 410 766 417 786 q 392 730 404 749 q 359 697 381 712 q 405 649 389 677 q 421 592 421 621 m 648 234 l 772 238 l 777 459 l 876 461 l 870 242 l 912 245 l 912 147 l 869 144 l 865 -30 l 765 -30 l 769 140 l 547 130 l 523 198 l 637 454 l 739 437 l 648 234 "},"ŉ":{"x_min":18.3125,"x_max":885.671875,"ha":981,"o":"m 160 959 q 149 897 158 929 q 126 839 142 871 q 79 779 109 807 l 18 801 q 33 826 26 811 q 47 856 40 838 q 58 898 54 874 q 31 923 41 906 q 21 959 21 940 q 26 987 21 974 q 41 1009 31 999 q 63 1024 50 1018 q 90 1029 75 1029 q 117 1024 104 1029 q 139 1009 130 1018 q 154 987 149 999 q 160 959 160 974 m 240 -50 q 232 161 235 66 q 226 330 229 255 q 222 461 223 404 q 218 560 220 518 q 214 704 216 657 l 369 706 l 372 511 q 423 584 394 550 q 484 644 451 618 q 555 687 518 671 q 634 706 593 704 q 724 697 686 710 q 790 663 762 685 q 834 612 817 642 q 862 551 852 583 q 877 489 872 520 q 882 432 881 457 q 885 197 887 315 q 880 -47 882 79 l 741 -42 q 751 175 746 66 q 750 396 755 284 q 748 427 750 408 q 740 468 746 446 q 724 511 735 490 q 698 549 714 533 q 658 573 682 564 q 604 576 635 581 q 495 498 550 568 q 376 293 440 427 q 380 119 379 183 q 383 21 382 54 q 385 -31 385 -18 l 240 -50 "},"i":{"x_min":88.84375,"x_max":282.140625,"ha":347,"o":"m 282 904 q 274 866 282 884 q 253 836 266 849 q 222 815 240 823 q 184 808 204 808 q 147 815 164 808 q 116 836 130 823 q 96 866 103 849 q 88 904 88 884 q 96 942 88 924 q 116 972 103 959 q 147 993 130 986 q 184 1001 164 1001 q 222 993 204 1001 q 253 972 240 986 q 274 942 266 959 q 282 904 282 924 m 250 665 q 246 487 248 568 q 243 339 244 406 q 241 220 242 273 q 239 128 240 168 q 237 -18 237 35 l 98 -18 q 101 155 99 54 q 105 368 103 242 q 109 659 107 493 l 250 665 "},"Ģ":{"x_min":55.609375,"x_max":984.78125,"ha":1050,"o":"m 984 177 q 904 87 950 127 q 806 18 859 46 q 692 -25 752 -10 q 568 -41 632 -41 q 431 -22 497 -41 q 309 30 366 -4 q 205 112 252 64 q 125 218 158 160 q 73 343 92 276 q 55 483 55 411 q 73 623 55 556 q 125 748 92 690 q 205 854 158 807 q 309 936 252 902 q 432 989 366 971 q 568 1008 497 1008 q 685 994 628 1008 q 792 956 741 981 q 887 895 843 931 q 966 815 931 859 l 862 730 q 734 834 809 796 q 568 873 658 873 q 421 842 489 873 q 301 758 352 811 q 220 635 249 706 q 190 483 190 564 q 220 331 190 402 q 301 207 249 260 q 421 123 352 154 q 568 92 489 92 q 721 125 650 92 q 844 216 792 158 l 841 360 l 426 344 l 426 486 l 973 503 l 984 177 m 651 -168 q 641 -229 650 -198 q 617 -288 633 -256 q 571 -348 601 -320 l 509 -326 q 525 -301 518 -316 q 539 -271 532 -289 q 550 -229 545 -252 q 523 -203 533 -219 q 513 -168 513 -187 q 518 -140 513 -153 q 533 -118 523 -128 q 555 -103 542 -109 q 582 -98 568 -98 q 631 -118 611 -98 q 651 -168 651 -138 "},"m":{"x_min":95.625,"x_max":1032.25,"ha":1125,"o":"m 240 524 q 285 580 261 552 q 338 633 309 609 q 399 672 366 657 q 472 687 432 687 q 526 678 500 687 q 575 650 553 669 q 611 601 596 631 q 630 531 626 572 q 675 585 651 558 q 726 635 698 613 q 785 673 753 658 q 855 687 817 687 q 914 677 885 687 q 964 646 942 667 q 1001 591 986 624 q 1016 511 1015 557 q 1024 386 1020 461 q 1029 222 1027 322 q 1032 -15 1032 123 l 890 -22 q 889 188 890 101 q 888 334 889 276 q 886 445 887 401 q 868 528 884 501 q 826 555 852 555 q 792 545 809 555 q 757 518 775 535 q 724 481 740 502 q 692 438 707 460 q 663 396 677 417 q 640 360 650 376 q 642 295 641 330 q 645 213 644 259 q 646 111 646 168 q 647 -15 647 55 l 515 -22 q 513 188 515 101 q 507 334 510 276 q 501 445 505 401 q 483 528 499 501 q 441 555 467 555 q 405 543 423 555 q 368 514 387 532 q 332 472 349 495 q 298 425 314 448 q 267 379 282 401 q 242 341 253 358 l 248 -15 l 113 -22 l 95 706 l 237 722 l 240 524 "},"ĕ":{"x_min":51.546875,"x_max":786.0625,"ha":823,"o":"m 423 62 q 495 73 459 62 q 560 106 530 84 q 612 159 590 127 q 644 233 634 191 l 775 206 q 721 94 756 145 q 640 8 687 44 q 539 -46 594 -27 q 423 -66 484 -66 q 265 -39 334 -66 q 148 37 196 -12 q 76 156 101 86 q 51 312 51 226 q 80 471 51 397 q 159 598 109 544 q 277 684 209 653 q 423 715 345 715 q 556 688 494 715 q 667 612 619 660 q 746 497 715 563 q 786 355 777 432 l 198 267 q 222 181 203 219 q 270 116 241 143 q 339 76 300 90 q 423 62 378 62 m 611 442 l 607 455 q 536 560 581 522 q 423 598 491 598 q 361 589 395 598 q 295 555 327 579 q 238 492 263 531 q 202 393 212 452 l 611 442 m 638 1036 q 629 953 639 989 q 604 890 620 917 q 568 844 588 863 q 527 813 548 825 q 414 779 477 784 q 298 806 350 780 q 255 835 276 817 q 218 879 234 853 q 191 941 201 905 q 180 1024 180 977 l 300 1032 q 305 982 300 1003 q 318 946 310 961 q 336 921 326 931 q 356 905 346 911 q 410 891 380 890 q 462 913 440 895 q 481 931 472 920 q 496 958 489 942 q 504 995 502 974 q 504 1042 507 1015 l 638 1036 "},"ż":{"x_min":42.734375,"x_max":715.53125,"ha":773,"o":"m 715 -23 l 61 -51 l 42 88 l 529 554 l 82 537 l 80 673 l 693 690 l 704 543 l 216 84 l 710 111 l 715 -23 m 466 841 q 459 809 466 824 q 442 784 453 794 q 416 766 431 773 q 385 760 401 760 q 354 766 369 760 q 329 784 339 773 q 312 809 318 794 q 306 841 306 824 q 312 872 306 857 q 329 897 318 886 q 354 914 339 908 q 385 920 369 920 q 416 914 401 920 q 442 897 431 908 q 459 872 453 886 q 466 841 466 857 "},"ő":{"x_min":52.90625,"x_max":855.671875,"ha":831,"o":"m 779 328 q 750 170 779 243 q 672 44 722 98 q 556 -38 623 -8 q 415 -69 490 -69 q 274 -40 339 -69 q 159 40 208 -12 q 81 166 109 92 q 52 328 52 239 q 81 492 52 419 q 159 618 109 566 q 274 699 208 670 q 415 727 339 727 q 556 697 490 727 q 672 614 623 667 q 750 487 722 560 q 779 328 779 415 m 636 330 q 623 428 636 379 q 585 518 611 478 q 516 583 558 558 q 415 608 474 608 q 316 583 357 608 q 248 518 274 558 q 209 428 221 478 q 197 330 197 379 q 210 231 197 281 q 250 142 223 182 q 319 78 278 103 q 415 52 360 52 q 514 78 472 52 q 583 142 556 103 q 623 231 610 182 q 636 330 636 281 m 855 1025 l 578 766 l 492 815 l 694 1111 l 855 1025 m 556 1041 l 315 766 l 229 815 l 406 1127 l 556 1041 "},"ž":{"x_min":42.734375,"x_max":715.53125,"ha":773,"o":"m 715 -23 l 61 -51 l 42 88 l 529 554 l 82 537 l 80 673 l 693 690 l 704 543 l 216 84 l 710 111 l 715 -23 m 618 938 l 385 740 l 176 967 l 270 1043 l 399 892 l 536 1015 l 618 938 "},"Ŏ":{"x_min":55.609375,"x_max":1081.765625,"ha":1137,"o":"m 1081 479 q 1063 340 1081 406 q 1011 215 1045 273 q 931 108 978 156 q 827 26 884 60 q 704 -27 769 -8 q 568 -46 638 -46 q 431 -27 497 -46 q 309 26 366 -8 q 205 108 252 60 q 125 215 158 156 q 73 340 92 273 q 55 479 55 406 q 73 619 55 552 q 125 744 92 686 q 205 850 158 803 q 309 932 252 898 q 432 985 366 967 q 568 1004 497 1004 q 704 985 638 1004 q 827 932 769 967 q 931 850 884 898 q 1011 744 978 803 q 1063 619 1045 686 q 1081 479 1081 552 m 947 479 q 933 582 947 533 q 895 676 920 632 q 836 755 870 719 q 759 816 801 790 q 669 855 717 841 q 568 869 620 869 q 421 838 489 869 q 301 754 352 807 q 220 631 249 701 q 190 479 190 560 q 220 327 190 398 q 301 203 249 256 q 421 119 352 150 q 568 88 489 88 q 669 102 620 88 q 759 142 717 116 q 836 203 801 167 q 895 282 870 238 q 933 375 920 325 q 947 479 947 425 m 796 1318 q 787 1235 797 1271 q 762 1172 778 1199 q 726 1126 746 1145 q 685 1095 706 1107 q 572 1061 635 1066 q 456 1088 508 1062 q 413 1117 434 1099 q 376 1161 392 1135 q 349 1223 359 1187 q 338 1306 338 1259 l 458 1314 q 463 1264 458 1285 q 476 1228 468 1243 q 494 1203 484 1213 q 514 1187 504 1193 q 568 1173 538 1172 q 620 1195 598 1177 q 639 1213 630 1202 q 654 1240 647 1224 q 662 1277 660 1256 q 662 1324 665 1297 l 796 1318 "},"á":{"x_min":42.734375,"x_max":790.125,"ha":867,"o":"m 626 -42 l 636 52 q 473 -23 553 0 q 324 -47 394 -47 q 230 -34 276 -47 q 149 3 184 -22 q 93 70 114 29 q 71 165 71 110 q 88 263 71 220 q 132 340 104 307 q 200 397 161 373 q 283 436 238 421 q 376 458 327 451 q 473 465 425 465 q 556 461 518 465 q 625 453 595 458 q 603 519 616 486 q 570 578 590 552 q 521 621 550 604 q 451 637 492 637 q 391 629 425 637 q 316 601 357 621 q 227 545 276 581 q 124 454 179 510 l 42 554 q 167 653 107 615 q 279 714 227 692 q 377 744 332 736 q 458 752 422 752 q 569 731 520 752 q 655 673 618 710 q 717 586 692 636 q 759 479 743 536 q 783 360 775 421 q 790 237 790 298 q 782 97 790 172 q 759 -65 775 23 l 626 -42 m 645 204 q 647 271 647 238 q 644 340 648 304 q 574 356 611 350 q 501 362 537 362 q 382 348 440 362 q 284 307 325 334 q 222 240 242 280 q 213 151 201 201 q 250 94 223 110 q 316 78 278 78 q 401 91 356 78 q 492 123 447 104 q 577 164 537 143 q 645 204 617 186 m 589 1009 l 418 803 l 332 852 l 452 1084 l 589 1009 "},"×":{"x_min":92.921875,"x_max":569.703125,"ha":647,"o":"m 567 601 l 430 472 l 569 341 l 483 254 l 341 387 l 177 231 l 92 320 l 252 472 l 92 623 l 176 712 l 341 555 l 486 693 l 567 601 "},"İ":{"x_min":110,"x_max":276.71875,"ha":400,"o":"m 276 23 l 140 23 l 116 966 l 267 961 l 276 23 m 270 1128 q 263 1096 270 1111 q 246 1071 257 1081 q 220 1053 235 1060 q 189 1047 205 1047 q 158 1053 173 1047 q 133 1071 143 1060 q 116 1096 122 1081 q 110 1128 110 1111 q 116 1159 110 1144 q 133 1184 122 1173 q 158 1201 143 1195 q 189 1207 173 1207 q 220 1201 205 1207 q 246 1184 235 1195 q 263 1159 257 1173 q 270 1128 270 1144 "},"Ě":{"x_min":119.375,"x_max":855.921875,"ha":916,"o":"m 662 365 l 259 345 l 262 133 l 848 166 l 851 33 l 134 -5 l 119 961 l 855 972 l 851 843 l 252 833 l 257 479 l 659 495 l 662 365 m 678 1215 l 445 1017 l 236 1244 l 330 1320 l 459 1169 l 596 1292 l 678 1215 "},"K":{"x_min":119.375,"x_max":955.609375,"ha":977,"o":"m 276 388 l 790 972 l 942 952 l 623 590 l 955 5 l 796 -18 l 534 489 l 280 198 l 286 -2 l 134 -5 l 119 955 l 262 966 l 276 388 "},"7":{"x_min":48.828125,"x_max":657.203125,"ha":679,"o":"m 657 942 l 653 837 q 595 773 622 807 q 543 704 567 739 q 497 635 518 670 q 459 570 476 601 q 388 425 419 497 q 336 276 360 352 q 316 208 326 244 q 296 134 305 172 q 280 59 287 97 q 270 -13 274 21 l 137 16 q 156 114 145 67 q 178 206 166 162 q 203 290 190 250 q 227 362 215 329 q 286 507 255 440 q 339 612 308 558 q 402 712 364 657 q 489 815 440 766 l 63 805 l 48 934 l 657 942 "},"¨":{"x_min":0,"x_max":493.0625,"ha":493,"o":"m 493 900 q 486 868 493 883 q 470 843 480 853 q 444 825 459 832 q 413 819 430 819 q 382 825 397 819 q 357 843 368 832 q 340 868 346 853 q 333 900 333 883 q 340 931 333 916 q 357 956 346 945 q 382 973 368 967 q 413 979 397 979 q 444 973 430 979 q 470 956 459 967 q 486 931 480 945 q 493 900 493 916 m 160 900 q 153 868 160 883 q 136 843 147 853 q 110 825 125 832 q 79 819 95 819 q 48 825 63 819 q 23 843 33 832 q 6 868 12 853 q 0 900 0 883 q 6 931 0 916 q 23 956 12 945 q 48 973 33 967 q 79 979 63 979 q 110 973 95 979 q 136 956 125 967 q 153 931 147 945 q 160 900 160 916 "},"Y":{"x_min":4.0625,"x_max":851.171875,"ha":880,"o":"m 851 965 l 512 302 l 512 -22 l 372 -30 l 383 305 l 4 951 l 164 969 l 451 448 l 697 969 l 851 965 "},"E":{"x_min":119.375,"x_max":855.921875,"ha":916,"o":"m 662 365 l 259 345 l 262 133 l 848 166 l 851 33 l 134 -5 l 119 961 l 855 972 l 851 843 l 252 833 l 257 479 l 659 495 l 662 365 "},"Ô":{"x_min":55.609375,"x_max":1081.765625,"ha":1137,"o":"m 1081 479 q 1063 340 1081 406 q 1011 215 1045 273 q 931 108 978 156 q 827 26 884 60 q 704 -27 769 -8 q 568 -46 638 -46 q 431 -27 497 -46 q 309 26 366 -8 q 205 108 252 60 q 125 215 158 156 q 73 340 92 273 q 55 479 55 406 q 73 619 55 552 q 125 744 92 686 q 205 850 158 803 q 309 932 252 898 q 432 985 366 967 q 568 1004 497 1004 q 704 985 638 1004 q 827 932 769 967 q 931 850 884 898 q 1011 744 978 803 q 1063 619 1045 686 q 1081 479 1081 552 m 947 479 q 933 582 947 533 q 895 676 920 632 q 836 755 870 719 q 759 816 801 790 q 669 855 717 841 q 568 869 620 869 q 421 838 489 869 q 301 754 352 807 q 220 631 249 701 q 190 479 190 560 q 220 327 190 398 q 301 203 249 256 q 421 119 352 150 q 568 88 489 88 q 669 102 620 88 q 759 142 717 116 q 836 203 801 167 q 895 282 870 238 q 933 375 920 325 q 947 479 947 425 m 793 1141 l 718 1055 l 564 1190 l 439 1048 l 345 1108 l 557 1337 l 793 1141 "},"‹":{"x_min":44.765625,"x_max":503.921875,"ha":557,"o":"m 503 149 l 412 42 l 44 348 l 383 653 l 470 552 l 236 355 l 503 149 "},"Ï":{"x_min":-8.140625,"x_max":401.515625,"ha":400,"o":"m 401 1123 q 395 1092 401 1106 q 378 1066 389 1077 q 353 1049 367 1056 q 322 1043 339 1043 q 290 1049 305 1043 q 265 1066 276 1056 q 247 1092 254 1077 q 241 1123 241 1106 q 247 1154 241 1140 q 265 1180 254 1169 q 290 1197 276 1190 q 322 1203 305 1203 q 353 1197 339 1203 q 378 1180 367 1190 q 395 1154 389 1169 q 401 1123 401 1140 m 151 1123 q 144 1092 151 1106 q 127 1066 138 1077 q 102 1049 116 1056 q 70 1043 87 1043 q 40 1049 54 1043 q 15 1066 25 1056 q -1 1092 4 1077 q -8 1123 -8 1106 q -1 1154 -8 1140 q 15 1180 4 1169 q 40 1197 25 1190 q 70 1203 54 1203 q 102 1197 87 1203 q 127 1180 116 1190 q 144 1154 138 1169 q 151 1123 151 1140 m 276 23 l 140 23 l 116 966 l 267 961 l 276 23 "},"ġ":{"x_min":52.90625,"x_max":816.578125,"ha":917,"o":"m 816 751 l 812 -27 q 800 -115 811 -71 q 768 -200 790 -159 q 715 -277 747 -241 q 643 -342 684 -314 q 551 -388 602 -370 q 440 -411 500 -406 q 285 -394 358 -413 q 222 -371 254 -385 q 160 -335 189 -357 q 105 -282 130 -313 q 63 -209 80 -251 l 194 -152 q 225 -202 207 -181 q 265 -238 244 -223 q 308 -261 286 -252 q 351 -274 330 -269 q 455 -278 400 -284 q 538 -248 503 -268 q 597 -205 573 -229 q 637 -154 621 -181 q 661 -103 652 -127 q 673 -58 670 -78 q 676 -27 676 -38 l 676 61 q 591 1 635 22 q 510 -28 548 -18 q 425 -41 467 -40 q 278 -13 346 -41 q 160 64 210 13 q 81 189 110 115 q 52 354 52 262 q 84 518 52 446 q 168 640 116 590 q 285 715 220 689 q 417 741 351 741 q 510 721 463 736 q 596 685 550 708 q 682 620 642 661 l 683 755 l 816 751 m 425 88 q 512 104 470 88 q 588 148 554 120 q 646 215 622 176 q 678 301 670 254 l 678 389 q 647 477 671 438 q 587 545 622 517 q 509 590 552 574 q 421 605 465 605 q 330 585 372 605 q 260 530 289 565 q 213 446 230 495 q 197 343 197 398 q 214 240 197 287 q 261 160 231 193 q 333 107 291 126 q 425 88 375 88 m 481 884 q 474 852 481 867 q 457 827 468 837 q 431 809 446 816 q 400 803 416 803 q 369 809 384 803 q 344 827 354 816 q 327 852 333 837 q 321 884 321 867 q 327 915 321 900 q 344 940 333 929 q 369 957 354 951 q 400 963 384 963 q 431 957 416 963 q 457 940 446 951 q 474 915 468 929 q 481 884 481 900 "},"ķ":{"x_min":92.921875,"x_max":750.109375,"ha":770,"o":"m 278 1028 l 252 384 l 607 740 l 711 657 l 458 406 l 750 27 l 630 -59 l 358 307 l 245 197 l 238 -6 l 92 -15 l 127 1030 l 278 1028 m 455 -132 q 445 -193 454 -162 q 421 -252 437 -220 q 375 -312 405 -284 l 313 -290 q 329 -265 322 -280 q 343 -235 336 -253 q 354 -193 349 -216 q 327 -167 337 -183 q 317 -132 317 -151 q 322 -104 317 -117 q 337 -82 327 -92 q 359 -67 346 -73 q 386 -62 372 -62 q 435 -82 415 -62 q 455 -132 455 -102 "},"±":{"x_min":84.78125,"x_max":625.328125,"ha":711,"o":"m 625 406 l 430 401 l 425 193 l 283 197 l 287 397 l 88 392 l 84 533 l 291 539 l 297 737 l 438 730 l 433 543 l 625 548 l 625 406 m 625 -10 l 88 -12 l 84 128 l 625 130 l 625 -10 "},"ì":{"x_min":-45,"x_max":251.625,"ha":349,"o":"m 251 665 q 247 487 249 568 q 244 339 246 406 q 242 220 243 273 q 240 128 241 168 q 238 -18 238 35 l 99 -18 q 103 155 101 54 q 106 368 104 242 q 111 659 109 493 l 251 665 m 224 781 l 138 732 l -45 914 l 82 1025 l 224 781 "},"|":{"x_min":108.515625,"x_max":267.890625,"ha":371,"o":"m 267 1174 l 242 -172 l 108 -179 l 119 1174 l 267 1174 "},"§":{"x_min":66.421875,"x_max":861.515625,"ha":924,"o":"m 858 298 q 816 191 847 236 q 853 115 841 158 q 858 21 866 73 q 831 -63 851 -26 q 781 -127 811 -100 q 714 -173 752 -154 q 637 -203 677 -191 q 555 -220 597 -215 q 476 -225 514 -225 q 373 -213 423 -225 q 273 -182 322 -202 q 176 -134 223 -162 q 82 -73 128 -107 l 173 35 q 279 -36 226 -10 q 375 -74 332 -61 q 470 -92 425 -89 q 561 -85 519 -95 q 635 -55 603 -74 q 685 -9 666 -35 q 708 47 704 16 q 699 93 710 72 q 667 130 688 113 q 618 161 647 147 q 557 184 590 174 q 491 203 524 195 q 425 216 457 210 q 343 234 386 223 q 259 263 301 245 q 181 309 218 282 q 117 374 144 336 q 76 463 90 413 q 67 580 63 514 q 76 638 69 611 q 95 690 84 666 q 71 765 79 723 q 67 858 63 807 q 90 956 71 912 q 139 1034 109 1000 q 207 1093 168 1068 q 288 1135 245 1119 q 378 1158 331 1150 q 470 1165 424 1165 q 598 1145 534 1161 q 656 1128 626 1138 q 717 1102 687 1117 q 777 1067 748 1087 q 834 1022 807 1047 l 758 902 q 712 945 736 927 q 662 977 687 963 q 613 1000 638 990 q 567 1015 589 1009 q 465 1032 515 1030 q 355 1013 403 1032 q 274 965 307 994 q 224 899 241 935 q 206 828 206 863 q 227 759 206 792 q 284 697 248 725 q 370 650 321 670 q 478 623 420 630 q 576 607 526 618 q 670 576 626 595 q 753 532 715 558 q 816 472 790 506 q 854 394 842 438 q 858 298 866 351 m 425 494 q 316 519 373 502 q 206 568 258 536 l 206 550 q 227 481 206 515 q 284 420 248 448 q 370 373 321 392 q 478 345 420 353 q 592 324 535 339 q 697 286 648 309 q 703 305 701 295 q 708 324 706 314 q 699 370 710 349 q 667 408 688 391 q 618 438 647 425 q 557 462 590 452 q 491 481 524 473 q 425 494 457 489 "},"q":{"x_min":52.90625,"x_max":815.21875,"ha":917,"o":"m 815 735 l 812 -402 l 669 -402 l 674 58 q 633 25 654 39 q 590 0 611 10 q 548 -17 569 -10 q 510 -29 528 -24 q 425 -41 467 -40 q 278 -13 346 -41 q 160 64 210 13 q 81 189 110 115 q 52 354 52 262 q 84 518 52 446 q 168 640 116 590 q 285 715 220 689 q 417 741 351 741 q 510 727 463 739 q 595 695 550 716 q 682 637 641 674 l 683 746 l 815 735 m 425 88 q 510 103 468 88 q 585 145 551 118 q 643 209 619 172 q 677 293 668 247 l 678 396 q 644 481 669 442 q 584 547 619 520 q 507 590 550 575 q 421 605 465 605 q 330 585 372 605 q 260 530 289 565 q 213 446 230 495 q 197 343 197 398 q 214 240 197 287 q 261 160 231 193 q 333 107 291 126 q 425 88 375 88 "},"b":{"x_min":96.984375,"x_max":844.515625,"ha":896,"o":"m 245 1016 l 241 616 q 323 675 280 654 q 401 705 365 695 q 483 718 443 716 q 575 705 529 718 q 661 667 620 691 q 736 609 701 643 q 795 534 770 575 q 832 444 819 492 q 844 343 845 396 q 826 233 842 284 q 785 138 811 181 q 726 61 760 95 q 654 2 692 26 q 574 -33 615 -21 q 493 -46 533 -46 q 407 -33 451 -44 q 324 -2 369 -23 q 234 56 278 18 l 234 -31 l 108 -34 l 96 1011 l 245 1016 m 698 330 q 686 428 701 381 q 639 511 670 475 q 564 568 608 547 q 469 588 520 589 q 390 574 427 588 q 323 537 353 560 q 272 484 294 514 q 238 419 250 453 l 237 257 q 271 182 249 215 q 323 128 294 150 q 387 95 353 106 q 457 83 421 84 q 549 101 506 82 q 624 153 592 120 q 676 232 657 187 q 698 330 695 278 "},"ﬂ":{"x_min":29.15625,"x_max":1000.375,"ha":1006,"o":"m 982 -33 q 896 -16 933 -32 q 832 23 859 -1 q 784 80 804 48 q 750 144 764 111 q 710 319 718 221 l 719 779 q 682 831 705 805 q 628 879 660 858 q 552 910 595 900 q 453 914 509 921 q 404 892 425 907 q 368 851 383 878 q 342 785 352 825 q 326 686 332 744 l 613 685 l 598 551 l 318 555 l 318 495 q 317 312 317 406 q 317 227 317 272 q 316 135 316 182 q 316 41 316 88 q 315 -51 316 -6 l 174 -54 q 178 199 177 93 q 181 375 179 305 q 183 510 182 456 l 183 556 l 29 559 l 29 689 l 190 687 q 219 825 198 758 q 279 942 240 891 q 377 1023 318 992 q 519 1053 436 1053 q 558 1049 535 1053 q 610 1036 582 1045 q 667 1011 637 1027 q 723 972 696 995 l 727 1179 l 869 1179 q 863 957 866 1058 q 857 774 859 857 q 854 627 855 692 q 851 512 852 562 q 847 328 848 396 q 865 216 848 265 q 883 174 872 195 q 910 138 894 154 q 949 112 927 122 q 1000 101 971 102 l 982 -33 "}}}
